<svg width="20" height="18" viewBox="0 0 20 18" fill="none" xmlns="http://www.w3.org/2000/svg">
<path d="M9.68134 -0.000185859C10.0047 -0.000185831 10.2473 0.0806619 10.4898 0.3232L19.0595 8.89289C19.4637 9.29712 19.4637 10.0247 19.0595 10.5098C18.6553 10.914 17.9277 10.914 17.4426 10.5098L9.68134 2.74858L1.92011 10.5098C1.51588 10.914 0.788267 10.914 0.30319 10.5098C-0.10104 10.1056 -0.10104 9.37797 0.30319 8.89289L8.87288 0.3232C9.11542 0.0806618 9.35796 -0.000185887 9.68134 -0.000185859Z" fill="#959595"/>
<path d="M9.68134 6.3045C10.0047 6.3045 10.2473 6.38535 10.4898 6.62789L19.0595 15.1976C19.4637 15.6018 19.4637 16.3294 19.0595 16.8145C18.6553 17.2187 17.9277 17.2187 17.4426 16.8145L9.68134 9.05327L1.92011 16.8145C1.51588 17.2187 0.788267 17.2187 0.30319 16.8145C-0.10104 16.4103 -0.10104 15.6827 0.30319 15.1976L8.87288 6.62789C9.11542 6.46619 9.35796 6.3045 9.68134 6.3045Z" fill="#959595"/>
</svg>
