<svg width="20" height="18" viewBox="0 0 20 18" fill="none" xmlns="http://www.w3.org/2000/svg">
<path d="M9.68133 17.1181C9.35794 17.1181 9.1154 17.0373 8.87286 16.7947L0.303173 8.22503C-0.101058 7.8208 -0.101058 7.09318 0.303173 6.6081C0.707404 6.20387 1.43502 6.20387 1.9201 6.6081L9.68133 14.3693L17.4426 6.6081C17.8468 6.20387 18.5744 6.20387 19.0595 6.6081C19.4637 7.01234 19.4637 7.73995 19.0595 8.22503L10.4898 16.7947C10.2472 17.0373 10.0047 17.1181 9.68133 17.1181Z" fill="#959595"/>
<path d="M9.68133 10.8132C9.35794 10.8132 9.1154 10.7323 8.87286 10.4898L0.303173 1.9201C-0.101058 1.51587 -0.101058 0.78825 0.303173 0.303173C0.707404 -0.101058 1.43502 -0.101058 1.9201 0.303173L9.68133 8.0644L17.4426 0.303173C17.8468 -0.101058 18.5744 -0.101058 19.0595 0.303173C19.4637 0.707404 19.4637 1.43502 19.0595 1.9201L10.4898 10.4898C10.2472 10.6515 10.0047 10.8132 9.68133 10.8132Z" fill="#959595"/>
</svg>
