<svg width="16" height="22" viewBox="0 0 16 22" fill="none" xmlns="http://www.w3.org/2000/svg">
<path d="M14.7583 10.9083C14.025 10.3583 13.0167 10.175 13.0167 10.175C13.0167 10.175 13.8417 9.71667 14.2083 9.16667C14.575 8.70833 14.7583 7.88333 14.7583 7.51667C14.7583 7.15 14.85 5.40833 13.5667 4.49167C12.5583 3.75833 11.3667 3.48333 9.9 3.39167V0H7.79167V3.3C7.33333 3.3 6.78333 3.3 6.23333 3.3V0H4.125V3.3C2.01667 3.3 0 3.3 0 3.3V5.5C0 5.5 0.916667 5.5 1.19167 5.5C1.55833 5.5 2.10833 5.5 2.38333 5.775C2.65833 6.05 2.65833 6.23333 2.65833 6.69167C2.65833 7.24167 2.65833 15.125 2.65833 15.3083C2.65833 15.4917 2.65833 15.7667 2.475 15.95C2.29167 16.1333 2.10833 16.1333 1.74167 16.1333C1.28333 16.1333 0.458333 16.1333 0.458333 16.1333L0 18.6083C0 18.6083 2.01667 18.6083 4.125 18.6083V22H6.14167V18.7C6.78333 18.7 7.33333 18.7 7.7 18.7V22H9.80833V18.6083C10.3583 18.6083 10.8167 18.5167 11.1833 18.5167C11.7333 18.425 13.1083 18.2417 14.3917 17.4167C15.675 16.5 15.95 15.2167 15.95 13.75C15.95 12.375 15.4 11.4583 14.7583 10.9083ZM6.14167 5.68333C6.14167 5.68333 6.78333 5.59167 7.425 5.59167C8.06667 5.59167 8.61667 5.59167 9.53333 5.86667C10.3583 6.14167 10.9083 6.78333 10.9083 7.51667C10.9083 8.25 10.6333 8.8 9.99167 9.075C9.44167 9.35 8.61667 9.53333 7.88333 9.625C7.15 9.625 6.14167 9.625 6.14167 9.625V5.68333ZM10.8167 15.5833C10.3583 15.8583 9.35 16.0417 8.43333 16.1333C7.51667 16.225 6.14167 16.1333 6.14167 16.1333V11.6417C6.14167 11.6417 7.425 11.55 8.525 11.6417C9.53333 11.7333 10.45 12.0083 10.8167 12.1917C11.1833 12.375 11.9167 12.8333 11.9167 13.8417C11.9167 14.9417 11.275 15.4 10.8167 15.5833Z" fill="#787878"/>
</svg>
