<svg width="16" height="16" viewBox="0 0 16 16" fill="none" xmlns="http://www.w3.org/2000/svg">
<path d="M8 0C3.6 0 0 3.6 0 8C0 12.4 3.6 16 8 16C12.4 16 16 12.4 16 8C16 3.6 12.4 0 8 0ZM11.4667 6.73333L7.66667 10.5333C7.53333 10.6667 7.33333 10.7333 7.2 10.7333C7.06667 10.7333 6.86667 10.6667 6.73333 10.5333L4.66667 8.53333C4.4 8.26667 4.4 7.86667 4.66667 7.6C4.93333 7.33333 5.33333 7.33333 5.6 7.6L7.2 9.13333L10.5333 5.8C10.8 5.53333 11.2 5.53333 11.4667 5.8C11.7333 6.06667 11.7333 6.46667 11.4667 6.73333Z" fill="#00C853"/>
</svg>
