<svg width="23" height="23" viewBox="0 0 23 23" fill="none" xmlns="http://www.w3.org/2000/svg">
<path d="M16.6 15.3L15.3 14L12.7 11.4L15.2 8.9L16.7 7.4L22.4 1.7C22.8 1.3 22.8 0.7 22.4 0.3C22.1 0.1 21.8 0 21.6 0C21.3 0 21.1 0.1 20.9 0.3L11.3 9.9L1.7 0.3C1.5 0.1 1.3 0 1 0C0.7 0 0.5 0.1 0.3 0.3C-0.1 0.7 -0.1 1.3 0.3 1.7L6 7.4L7.5 8.9L10 11.4L7.4 14L6.1 15.3L0.3 21C-0.1 21.4 -0.1 22 0.3 22.4C0.5 22.6 0.8 22.7 1 22.7C1.3 22.7 1.5 22.6 1.7 22.4L11.3 12.8L20.9 22.4C21.1 22.6 21.4 22.7 21.6 22.7C21.9 22.7 22.1 22.6 22.3 22.4C22.7 22 22.7 21.4 22.3 21L16.6 15.3Z" fill="#9E9E9E"/>
</svg>
