<svg width="149" height="248" viewBox="0 0 149 248" fill="none" xmlns="http://www.w3.org/2000/svg">
<path d="M15.8301 246.302V182.757H127.2V246.302H15.8301Z" stroke="#C4C4C4" stroke-width="2"/>
<path d="M12.5901 181.297V174.975H130.44V181.297H12.5901Z" stroke="#C4C4C4" stroke-width="2"/>
<path d="M107.256 149.709L129.188 173.975H13.9534L37.4932 149.709H107.256Z" stroke="#C4C4C4" stroke-width="2"/>
<path d="M55.1401 159.302L51.3201 163.242H91.7101L88.1501 159.302H55.1401Z" fill="#3977FF"/>
<path d="M56.4301 160.812H89.5201L88.1501 159.302H55.1401L51.3201 163.242H54.0801L56.4301 160.812Z" fill="white"/>
<path d="M125.148 74.1478C123.799 73.132 121.944 72.7934 121.944 72.7934C121.944 72.7934 123.462 71.9468 124.136 70.9309C124.811 70.0844 125.148 68.5606 125.148 67.8834C125.148 67.2061 125.317 63.9893 122.956 62.2962C121.101 60.9417 118.909 60.4338 116.211 60.2645V54H112.333V60.0951C111.49 60.0951 110.478 60.0951 109.466 60.0951V54H105.588V60.0951C101.71 60.0951 98 60.0951 98 60.0951V64.1586C98 64.1586 99.6862 64.1586 100.192 64.1586C100.867 64.1586 101.878 64.1586 102.384 64.6665C102.89 65.1744 102.89 65.513 102.89 66.3596C102.89 67.3755 102.89 81.9361 102.89 82.2747C102.89 82.6133 102.89 83.1212 102.553 83.4599C102.216 83.7985 101.878 83.7985 101.204 83.7985C100.361 83.7985 98.8431 83.7985 98.8431 83.7985L98 88.3698C98 88.3698 101.71 88.3698 105.588 88.3698V94.6343H109.298V88.5391C110.478 88.5391 111.49 88.5391 112.164 88.5391V94.6343H116.043V88.3698C117.054 88.3698 117.897 88.2005 118.572 88.2005C119.584 88.0312 122.113 87.6926 124.474 86.1688C126.834 84.4757 127.34 82.1054 127.34 79.3964C127.34 76.8568 126.329 75.1637 125.148 74.1478ZM109.298 64.4972C109.298 64.4972 110.478 64.3279 111.658 64.3279C112.839 64.3279 113.85 64.3279 115.537 64.8358C117.054 65.3437 118.066 66.5289 118.066 67.8834C118.066 69.2379 117.56 70.2537 116.38 70.7616C115.368 71.2696 113.85 71.6082 112.502 71.7775C111.153 71.7775 109.298 71.7775 109.298 71.7775V64.4972ZM117.897 82.7826C117.054 83.2905 115.199 83.6292 113.513 83.7985C111.827 83.9678 109.298 83.7985 109.298 83.7985V75.5023C109.298 75.5023 111.658 75.333 113.682 75.5023C115.537 75.6716 117.223 76.1795 117.897 76.5182C118.572 76.8568 119.921 77.7033 119.921 79.5657C119.921 81.5974 118.741 82.444 117.897 82.7826Z" fill="#3977FF"/>
<circle cx="48.5334" cy="25" r="24" stroke="#C4C4C4" stroke-width="2"/>
<path d="M47.3796 9.49609L39.0142 23.7073L47.3796 20.3869V9.49609Z" fill="#3977FF"/>
<path d="M47.3797 22.1135L37.8193 25.9651L47.3797 31.5432V22.1135Z" fill="#3977FF"/>
<path d="M48.973 20.3871L57.6039 24.106L48.973 9.49609V20.3871Z" fill="#3977FF"/>
<path d="M48.973 22.2466V31.5435L58.135 26.231L48.973 22.2466Z" fill="#3977FF"/>
<path d="M48.973 41.5044L58.5333 28.0901L48.973 33.6683V41.5044Z" fill="#3977FF"/>
<path d="M47.3797 33.6683L37.8193 28.0901L47.3797 41.5044V33.6683Z" fill="#3977FF"/>
<circle cx="113" cy="74" r="35" stroke="#C4C4C4" stroke-width="2"/>
<circle cx="28" cy="88" r="27" stroke="#C4C4C4" stroke-width="2"/>
<mask id="mask0" mask-type="alpha" maskUnits="userSpaceOnUse" x="7" y="68" width="40" height="40">
<path d="M47 88C47 99.0457 38.0457 108 27 108C15.9543 108 7 99.0457 7 88C7 76.9543 15.9543 68 27 68C38.0457 68 47 76.9543 47 88Z" fill="#3977FF"/>
</mask>
<g mask="url(#mask0)">
<path fill-rule="evenodd" clip-rule="evenodd" d="M28 115C42.9117 115 55 102.912 55 88C55 73.0883 42.9117 61 28 61C13.0883 61 1 73.0883 1 88C1 102.912 13.0883 115 28 115ZM27.6111 64.3611C14.625 64.3611 4 74.9885 4 87.9777C4 100.967 14.625 111.594 27.6111 111.594C40.5972 111.594 51.2222 100.967 51.2222 87.9777C51.2222 74.9885 40.5972 64.3611 27.6111 64.3611ZM41.9745 88.1745C41.9745 90.1425 37.0555 93.0946 30.5625 93.4882V102.344H24.6597V93.4882C18.1667 93.0946 13.2477 90.1425 13.2477 88.1745V87.9777C13.2477 87.8793 13.2969 87.7809 13.3461 87.6825C13.3952 87.5841 13.4444 87.4856 13.4444 87.3872C14.625 85.8128 18.9537 84.4352 24.6597 84.0416V81.2863H16.5926V75.9726H38.4328V81.2863H30.3657V84.0416C36.0717 84.4352 40.4004 85.616 41.581 87.3872C41.7777 87.5841 41.7777 87.7809 41.7777 87.9777C41.8761 87.9777 41.9253 87.9777 41.9499 88.0023C41.9745 88.0268 41.9745 88.0761 41.9745 88.1745ZM30.5623 85.2222V88.1743H27.611H24.6596V85.2222C18.9536 85.419 14.6249 86.403 14.6249 87.7806C14.6249 89.1583 18.9536 89.9455 24.6596 90.3391H27.611H30.5623C36.2684 90.1423 40.597 89.1583 40.597 87.7806C40.597 86.403 36.2684 85.419 30.5623 85.2222Z" fill="#3977FF"/>
</g>
<path d="M84 108.5V134M84 134L89 127.5M84 134L78 127.5" stroke="white"/>
<path d="M65 97V122.5M65 122.5L70 116M65 122.5L59 116" stroke="white"/>
</svg>
