<svg width="161" height="99" viewBox="0 0 161 99" fill="none" xmlns="http://www.w3.org/2000/svg">
<path d="M41.9472 46.709L70.7119 44.4727L71.8086 15.6419C65.2389 15.3877 58.5496 17.3591 52.9599 21.7229C45.0411 27.9048 41.2306 37.3929 41.9472 46.709Z" fill="#386EE6"/>
<path d="M107.403 23.0309C100.279 13.9016 89.7953 8.94415 79.0654 8.53396L77.6298 46.274L100.868 76.0538C117.312 63.2162 120.238 39.4789 107.403 23.0309Z" fill="white"/>
<path d="M46.3656 72.4307C57.7312 86.9961 78.7467 89.5876 93.3087 78.2194L72.7308 51.8481L39.3872 54.4404C39.8752 60.7813 42.1644 67.0468 46.3656 72.4307Z" fill="#386EE6"/>
<path d="M130.673 22.2793L160.5 22.2793L160.5 45.6597L130.673 45.6597L130.673 38.2047L124.75 33.9603L130.673 29.716L130.673 22.2793ZM159.586 23.194L131.587 23.194L131.587 30.2008L126.322 33.9695L131.587 37.7381L131.587 44.7449L159.586 44.7449L159.586 23.194Z" fill="#3977FF" stroke="#3977FF" stroke-width="0.2"/>
<path d="M27.3852 34.6571L1 34.6571L1 12.6522L27.3852 12.6522L27.3852 19.6686L32.625 23.6633L27.3852 27.6579L27.3852 34.6571ZM1.80862 33.7962L26.5765 33.7962L26.5765 27.2016L31.2342 23.6547L26.5765 20.1077L26.5765 13.5131L1.80862 13.5131L1.80862 33.7962Z" fill="#3977FF" stroke="#3977FF" stroke-width="0.2"/>
<path d="M27.8327 73.166L10.625 73.166L10.625 60.7881L27.8327 60.7881L27.8327 64.7349L31.25 66.9819L27.8327 69.2289L27.8327 73.166ZM11.1524 72.6817L27.3054 72.6817L27.3054 68.9722L30.3429 66.9771L27.3054 64.9819L27.3054 61.2724L11.1524 61.2724L11.1524 72.6817Z" fill="#3977FF" stroke="#3977FF" stroke-width="0.2"/>
<path d="M140.332 34.1546H141.275V35.2292H140.332V37.0148H139.065V35.2292H135.786L135.75 34.4136L139.023 28.9907H140.332V34.1546ZM137.079 34.1546H139.065V30.8039L138.971 30.9802L137.079 34.1546Z" fill="white"/>
<path d="M147.061 33.6365C147.061 34.7902 146.856 35.6609 146.446 36.2487C146.04 36.8329 145.419 37.125 144.585 37.125C143.765 37.125 143.147 36.8403 142.73 36.2708C142.316 35.6976 142.104 34.8508 142.094 33.7302V32.3414C142.094 31.1878 142.297 30.3226 142.704 29.7457C143.114 29.1689 143.737 28.8805 144.575 28.8805C145.405 28.8805 146.024 29.1616 146.431 29.7237C146.841 30.2858 147.051 31.1272 147.061 32.2477V33.6365ZM145.795 32.1375C145.795 31.3844 145.697 30.8332 145.503 30.4842C145.308 30.1315 144.999 29.9552 144.575 29.9552C144.161 29.9552 143.857 30.1223 143.663 30.4567C143.468 30.7873 143.366 31.3054 143.355 32.0108V33.8294C143.355 34.5789 143.454 35.1374 143.652 35.5048C143.85 35.8722 144.161 36.0559 144.585 36.0559C144.992 36.0559 145.292 35.8869 145.487 35.5488C145.682 35.2072 145.784 34.6744 145.795 33.9507V32.1375Z" fill="white"/>
<path d="M148.13 30.5338C148.13 30.0488 148.278 29.6521 148.573 29.3434C148.868 29.0311 149.256 28.875 149.735 28.875C150.222 28.875 150.611 29.0311 150.903 29.3434C151.198 29.6521 151.346 30.058 151.346 30.5614V30.9582C151.346 31.4395 151.198 31.8344 150.903 32.143C150.611 32.4517 150.225 32.606 149.746 32.606C149.277 32.606 148.889 32.4553 148.583 32.1541C148.281 31.8491 148.13 31.4395 148.13 30.9251V30.5338ZM149.016 30.9582C149.016 31.2117 149.082 31.4174 149.214 31.5754C149.35 31.7297 149.527 31.8069 149.746 31.8069C149.961 31.8069 150.135 31.7297 150.267 31.5754C150.399 31.4174 150.465 31.2043 150.465 30.9361V30.5338C150.465 30.2803 150.397 30.0746 150.262 29.9166C150.13 29.7586 149.954 29.6796 149.735 29.6796C149.516 29.6796 149.341 29.7604 149.209 29.9221C149.08 30.0801 149.016 30.2895 149.016 30.5504V30.9582ZM151.779 35.0473C151.779 34.555 151.93 34.1564 152.232 33.8515C152.534 33.5465 152.92 33.394 153.389 33.394C153.862 33.394 154.248 33.5465 154.547 33.8515C154.849 34.1564 155 34.5679 155 35.0859V35.4772C155 35.9548 154.854 36.3498 154.562 36.6621C154.274 36.9707 153.886 37.125 153.4 37.125C152.913 37.125 152.521 36.9725 152.222 36.6676C151.926 36.359 151.779 35.953 151.779 35.4496V35.0473ZM152.665 35.4772C152.665 35.727 152.733 35.9328 152.868 36.0944C153.007 36.2524 153.184 36.3314 153.4 36.3314C153.622 36.3314 153.796 36.2561 153.921 36.1055C154.05 35.9512 154.114 35.7362 154.114 35.4607V35.0473C154.114 34.7902 154.046 34.5844 153.911 34.4301C153.775 34.2758 153.601 34.1986 153.389 34.1986C153.174 34.1986 152.998 34.2758 152.863 34.4301C152.731 34.5844 152.665 34.7975 152.665 35.0694V35.4772ZM150.006 36.4141L149.355 36.0173L153.061 29.7457L153.712 30.1425L150.006 36.4141Z" fill="white"/>
<path d="M15.5665 66.383H15.9551C16.1511 66.3812 16.306 66.3279 16.4198 66.2232C16.5353 66.1185 16.5931 65.9669 16.5931 65.7685C16.5931 65.5775 16.545 65.4296 16.4487 65.3249C16.3542 65.2184 16.2089 65.1651 16.0129 65.1651C15.8413 65.1651 15.7004 65.2174 15.5902 65.3221C15.4799 65.425 15.4247 65.56 15.4247 65.7272H14.7868C14.7868 65.5215 14.8384 65.3341 14.9417 65.1651C15.0467 64.9961 15.192 64.8647 15.3775 64.771C15.5648 64.6755 15.7739 64.6278 16.005 64.6278C16.3865 64.6278 16.6859 64.7288 16.9029 64.9309C17.1217 65.1311 17.2311 65.4103 17.2311 65.7685C17.2311 65.9486 17.1759 66.1185 17.0657 66.2783C16.9572 66.4363 16.8163 66.5557 16.643 66.6365C16.853 66.7118 17.0123 66.8303 17.1208 66.992C17.2311 67.1536 17.2862 67.3465 17.2862 67.5706C17.2862 67.9307 17.1681 68.2173 16.9318 68.4304C16.6972 68.6435 16.3883 68.75 16.005 68.75C15.6374 68.75 15.3364 68.6471 15.1018 68.4414C14.8673 68.2356 14.75 67.9619 14.75 67.6202H15.388C15.388 67.7966 15.444 67.9399 15.556 68.0501C15.6698 68.1603 15.8221 68.2154 16.0129 68.2154C16.2106 68.2154 16.3664 68.1603 16.4802 68.0501C16.594 67.9399 16.6508 67.7801 16.6508 67.5706C16.6508 67.3594 16.5913 67.1968 16.4723 67.0829C16.3533 66.969 16.1765 66.9121 15.942 66.9121H15.5665V66.383Z" fill="white"/>
<path d="M18.0555 66.7054L18.2629 64.6829H20.316V65.2615H18.7932L18.6882 66.2204C18.865 66.1139 19.0645 66.0606 19.2868 66.0606C19.6509 66.0606 19.9336 66.1828 20.1349 66.4271C20.3379 66.6714 20.4394 67.0002 20.4394 67.4136C20.4394 67.8214 20.3274 68.1465 20.1033 68.389C19.8793 68.6297 19.5721 68.75 19.1818 68.75C18.8317 68.75 18.5412 68.6462 18.3101 68.4386C18.0809 68.2292 17.9566 67.9537 17.9373 67.612H18.5543C18.5788 67.8067 18.6453 67.9564 18.7539 68.0611C18.8624 68.164 19.0041 68.2154 19.1792 68.2154C19.3752 68.2154 19.5275 68.1419 19.636 67.995C19.7463 67.848 19.8014 67.6478 19.8014 67.3943C19.8014 67.15 19.741 66.9571 19.6203 66.8156C19.4995 66.6723 19.3332 66.6007 19.1214 66.6007C19.0059 66.6007 18.9079 66.6172 18.8274 66.6503C18.7469 66.6815 18.6593 66.744 18.5648 66.8377L18.0555 66.7054Z" fill="white"/>
<path d="M20.9146 65.4544C20.9146 65.2119 20.989 65.0135 21.1378 64.8592C21.2866 64.7031 21.4817 64.625 21.7233 64.625C21.9683 64.625 22.1643 64.7031 22.3114 64.8592C22.4602 65.0135 22.5345 65.2165 22.5345 65.4682V65.6666C22.5345 65.9072 22.4602 66.1047 22.3114 66.259C22.1643 66.4133 21.9701 66.4905 21.7285 66.4905C21.4922 66.4905 21.2971 66.4152 21.143 66.2645C20.9908 66.1121 20.9146 65.9072 20.9146 65.65V65.4544ZM21.361 65.6666C21.361 65.7933 21.3942 65.8962 21.4607 65.9752C21.529 66.0524 21.6182 66.0909 21.7285 66.0909C21.837 66.0909 21.9246 66.0524 21.9911 65.9752C22.0576 65.8962 22.0908 65.7897 22.0908 65.6556V65.4544C22.0908 65.3277 22.0567 65.2248 21.9884 65.1458C21.9219 65.0668 21.8335 65.0273 21.7233 65.0273C21.613 65.0273 21.5246 65.0677 21.4581 65.1485C21.3933 65.2275 21.361 65.3322 21.361 65.4627V65.6666ZM22.7525 67.7112C22.7525 67.465 22.8286 67.2657 22.9809 67.1132C23.1331 66.9608 23.3274 66.8845 23.5637 66.8845C23.8018 66.8845 23.9961 66.9608 24.1466 67.1132C24.2989 67.2657 24.375 67.4714 24.375 67.7305V67.9261C24.375 68.1649 24.3015 68.3624 24.1545 68.5185C24.0092 68.6728 23.814 68.75 23.569 68.75C23.3239 68.75 23.1261 68.6738 22.9756 68.5213C22.8268 68.367 22.7525 68.164 22.7525 67.9123V67.7112ZM23.1988 67.9261C23.1988 68.051 23.2329 68.1539 23.3012 68.2347C23.3712 68.3137 23.4605 68.3532 23.569 68.3532C23.681 68.3532 23.7685 68.3155 23.8315 68.2402C23.8963 68.1631 23.9287 68.0556 23.9287 67.9178V67.7112C23.9287 67.5826 23.8945 67.4797 23.8263 67.4026C23.758 67.3254 23.6705 67.2868 23.5637 67.2868C23.4552 67.2868 23.3668 67.3254 23.2986 67.4026C23.232 67.4797 23.1988 67.5863 23.1988 67.7222V67.9261ZM21.8598 68.3945L21.5316 68.1961L23.3983 65.0604L23.7265 65.2588L21.8598 68.3945Z" fill="white"/>
<path d="M10.6569 27.4081H6.61558V26.6412L8.61766 24.2118C8.90662 23.8535 9.11165 23.555 9.23274 23.3162C9.35658 23.0743 9.4185 22.8325 9.4185 22.5906C9.4185 22.2722 9.33731 22.015 9.17494 21.8191C9.01533 21.6231 8.7993 21.5251 8.52685 21.5251C8.20211 21.5251 7.9503 21.6354 7.77142 21.8558C7.59254 22.0762 7.5031 22.3778 7.5031 22.7605H6.5C6.5 22.3533 6.58256 21.9874 6.74768 21.6629C6.91555 21.3353 7.1536 21.0812 7.46182 20.9006C7.7728 20.7199 8.13056 20.6296 8.5351 20.6296C9.11853 20.6296 9.57811 20.7934 9.91386 21.121C10.2524 21.4455 10.4216 21.8956 10.4216 22.4712C10.4216 22.8049 10.3363 23.1555 10.1657 23.5229C9.99779 23.8872 9.72122 24.3021 9.33594 24.7675L7.86637 26.5172H10.6569V27.4081Z" fill="white"/>
<path d="M11.6889 24.0924L12.015 20.7214H15.2431V21.6859H12.8489L12.6837 23.2841C12.9617 23.1065 13.2754 23.0177 13.6249 23.0177C14.1973 23.0177 14.6418 23.2213 14.9583 23.6285C15.2775 24.0357 15.4371 24.5838 15.4371 25.2726C15.4371 25.9523 15.261 26.4942 14.9087 26.8984C14.5565 27.2995 14.0735 27.5 13.4598 27.5C12.9094 27.5 12.4526 27.327 12.0893 26.981C11.7288 26.632 11.5334 26.1728 11.5031 25.6033H12.4732C12.5117 25.9278 12.6163 26.1774 12.7869 26.3519C12.9576 26.5233 13.1805 26.6091 13.4557 26.6091C13.7639 26.6091 14.0033 26.4866 14.174 26.2416C14.3473 25.9967 14.434 25.663 14.434 25.2405C14.434 24.8333 14.3391 24.5118 14.1492 24.2761C13.9593 24.0372 13.6979 23.9178 13.3649 23.9178C13.1832 23.9178 13.0291 23.9454 12.9025 24.0005C12.7759 24.0525 12.6383 24.1566 12.4897 24.3128L11.6889 24.0924Z" fill="white"/>
<path d="M16.1843 22.0073C16.1843 21.6032 16.3013 21.2725 16.5352 21.0154C16.7691 20.7551 17.0759 20.625 17.4557 20.625C17.841 20.625 18.1492 20.7551 18.3804 21.0154C18.6143 21.2725 18.7313 21.6109 18.7313 22.0303V22.361C18.7313 22.7621 18.6143 23.0912 18.3804 23.3484C18.1492 23.6055 17.8437 23.7341 17.464 23.7341C17.0925 23.7341 16.7856 23.6086 16.5434 23.3575C16.304 23.1034 16.1843 22.7621 16.1843 22.3334V22.0073ZM16.8861 22.361C16.8861 22.5722 16.9383 22.7437 17.0429 22.8753C17.1502 23.0039 17.2906 23.0682 17.464 23.0682C17.6346 23.0682 17.7722 23.0039 17.8768 22.8753C17.9813 22.7437 18.0336 22.5661 18.0336 22.3426V22.0073C18.0336 21.7961 17.98 21.6246 17.8726 21.493C17.7681 21.3613 17.6291 21.2955 17.4557 21.2955C17.2823 21.2955 17.1434 21.3629 17.0388 21.4976C16.937 21.6292 16.8861 21.8037 16.8861 22.0211V22.361ZM19.0739 25.7686C19.0739 25.3584 19.1936 25.0262 19.433 24.772C19.6725 24.5179 19.9779 24.3909 20.3494 24.3909C20.7237 24.3909 21.0292 24.5179 21.2659 24.772C21.5053 25.0262 21.625 25.3691 21.625 25.8008V26.1268C21.625 26.5249 21.5094 26.854 21.2782 27.1142C21.0498 27.3714 20.743 27.5 20.3577 27.5C19.9724 27.5 19.6614 27.3729 19.4248 27.1188C19.1909 26.8616 19.0739 26.5233 19.0739 26.1039V25.7686ZM19.7757 26.1268C19.7757 26.335 19.8293 26.5065 19.9366 26.6412C20.0467 26.7729 20.1871 26.8387 20.3577 26.8387C20.5338 26.8387 20.6714 26.7759 20.7705 26.6504C20.8723 26.5218 20.9232 26.3427 20.9232 26.1131V25.7686C20.9232 25.5543 20.8696 25.3828 20.7622 25.2543C20.6549 25.1257 20.5173 25.0614 20.3494 25.0614C20.1788 25.0614 20.0398 25.1257 19.9325 25.2543C19.8279 25.3828 19.7757 25.5604 19.7757 25.787V26.1268ZM17.6704 26.9076L17.1544 26.5769L20.0894 21.3506L20.6054 21.6813L17.6704 26.9076Z" fill="white"/>
</svg>
