<svg width="107" height="85" viewBox="0 0 107 85" fill="none" xmlns="http://www.w3.org/2000/svg">
<path d="M21.1266 55.5262H17.5793V70.2904H21.1266V55.5262Z" fill="#E6E6E6"/>
<path d="M24.6703 46.7212H21.123V70.4409H24.6703V46.7212Z" fill="#386EE6"/>
<path d="M40.7451 46.4001H37.1978V70.4408H40.7451V46.4001Z" fill="#E6E6E6"/>
<path d="M44.2925 36.5752H40.7452V70.4409H44.2925V36.5752Z" fill="#386EE6"/>
<path d="M60.3672 36.6455H56.8199V70.4409H60.3672V36.6455Z" fill="#E6E6E6"/>
<path d="M63.9146 26.4995H60.3673V70.4409H63.9146V26.4995Z" fill="#386EE6"/>
<path d="M80.1262 26.4995H76.579V70.4409H80.1262V26.4995Z" fill="#E6E6E6"/>
<path d="M83.6736 15.8317H80.1262V70.4408H83.6736V15.8317Z" fill="#386EE6"/>
<path d="M99.5876 15.8317H96.0404V70.4408H99.5876V15.8317Z" fill="#E6E6E6"/>
<path d="M103.135 4.58447H99.5879V70.4398H103.135V4.58447Z" fill="#386EE6"/>
<path d="M107 75.5669H100.093V73.8113H99.755H99.4207H99.083V75.5669H80.6311V73.8113H80.2934H79.9591H79.6214V75.5669H60.872V73.8113H60.5343H60.2H59.8623V75.5669H41.25V73.8113H40.9123H40.578H40.2403V75.5669H21.628V73.8113H21.2903H20.956H20.6216V75.5669H11.1332V61.8996H12.8885V61.5619V61.2274V60.8897H11.1332V47.2257H12.8885V46.888V46.5536V46.2158H11.1332V32.5518H12.8885V32.2141V31.8797V31.5419H11.1332V17.8779H12.8885V17.5402V17.2058V16.8714H11.1332V3.03685H12.8885V2.69909V2.36468V2.03027H8.375V2.36468V2.69909V3.03685H10.1302V16.8714H8.375V17.2058V17.5402V17.8779H10.1302V31.5419H8.375V31.8797V32.2141V32.5518H10.1302V46.2158H8.375V46.5536V46.888V47.2257H10.1302V60.8897H8.375V61.2274V61.5619V61.8996H10.1302V75.5602H8.375V76.5702H10.1302H20.6216V78.3258H20.956H21.2903H21.628V76.5702H40.2403V78.3258H40.578H40.9123H41.25V76.5702H59.8623V78.3258H60.2H60.5343H60.872V76.5702H79.6214V78.3258H79.9591H80.2934H80.6311V76.5702H99.083V78.3258H99.4207H99.755H100.093V76.5702H107V75.5669Z" fill="#386EE6"/>
<path d="M0.304377 2.68286L0.551777 0.305176H2.6948V0.820174H1.03655L0.899475 2.05416C0.989742 1.98394 1.09338 1.92709 1.20371 1.88361C1.31404 1.84014 1.44108 1.81673 1.58484 1.81338C1.97934 1.81004 2.29026 1.93377 2.51426 2.18458C2.73826 2.4354 2.85193 2.78319 2.85193 3.22127C2.85193 3.64932 2.73826 3.99377 2.50757 4.25461C2.27689 4.51545 1.94257 4.64587 1.50126 4.64587C1.14019 4.64587 0.835953 4.54555 0.59524 4.34825C0.354526 4.15094 0.237513 3.86 0.247542 3.47542L0.254229 3.4587H0.775775C0.775775 3.69279 0.84264 3.87338 0.976369 4.00045C1.1101 4.12753 1.28395 4.19441 1.49792 4.19441C1.74197 4.19441 1.93254 4.10747 2.06961 3.93692C2.20668 3.76636 2.27355 3.52893 2.27355 3.22796C2.27355 2.95708 2.20668 2.73637 2.06961 2.56582C1.93254 2.39527 1.74532 2.31166 1.50126 2.31166C1.27392 2.31166 1.1101 2.3451 1.00646 2.41533C0.902818 2.48556 0.829267 2.59257 0.782461 2.73302L0.304377 2.68286Z" fill="white"/>
<path d="M6.23206 3.07398C6.23206 3.55887 6.10835 3.9401 5.86428 4.22435C5.62022 4.5086 5.28922 4.64905 4.8713 4.64905C4.45672 4.64905 4.12573 4.5086 3.87832 4.22435C3.63091 3.9401 3.5072 3.55887 3.5072 3.07398V1.8166C3.5072 1.33505 3.63091 0.953821 3.87497 0.669573C4.11904 0.385325 4.45338 0.244873 4.86461 0.244873C5.27919 0.244873 5.61019 0.385325 5.86094 0.669573C6.11169 0.953821 6.23206 1.33505 6.23206 1.8166V3.07398ZM5.65365 1.69621C5.65365 1.38855 5.58344 1.14443 5.44636 0.967198C5.30928 0.789961 5.11537 0.69967 4.86461 0.69967C4.6172 0.69967 4.42329 0.789961 4.28955 0.967198C4.15582 1.14443 4.08561 1.38855 4.08561 1.69621V3.19102C4.08561 3.49868 4.15582 3.7428 4.2929 3.92338C4.42997 4.10396 4.62389 4.19425 4.8713 4.19425C5.12205 4.19425 5.31597 4.10396 5.4497 3.92672C5.58344 3.74614 5.65365 3.50202 5.65365 3.19437V1.69621Z" fill="white"/>
<path d="M2.41385 18.1727H3.00562V18.6242H2.41385V19.6107H1.83546V18.6242H0V18.2965L1.80203 15.3302H2.41385V18.1727ZM0.618508 18.1727H1.83546V16.1662L1.81875 16.1629L1.76191 16.31L0.618508 18.1727Z" fill="white"/>
<path d="M6.23206 18.1024C6.23206 18.5873 6.10835 18.9685 5.86428 19.2528C5.62022 19.537 5.28922 19.6775 4.8713 19.6775C4.45672 19.6775 4.12573 19.537 3.87832 19.2528C3.63091 18.9685 3.5072 18.5873 3.5072 18.1024V16.845C3.5072 16.3635 3.63091 15.9823 3.87497 15.698C4.11904 15.4138 4.45004 15.2733 4.86461 15.2733C5.27919 15.2733 5.61019 15.4138 5.86094 15.698C6.11169 15.9823 6.23206 16.3635 6.23206 16.845V18.1024ZM5.65365 16.7247C5.65365 16.417 5.58344 16.1729 5.44636 15.9956C5.30928 15.8184 5.11537 15.7281 4.86461 15.7281C4.6172 15.7281 4.42329 15.8184 4.28955 15.9956C4.15582 16.1729 4.08561 16.417 4.08561 16.7247V18.2195C4.08561 18.5271 4.15582 18.7712 4.2929 18.9518C4.42997 19.1324 4.62389 19.2227 4.8713 19.2227C5.12205 19.2227 5.31597 19.1324 5.4497 18.9552C5.58344 18.7746 5.65365 18.5305 5.65365 18.2228V16.7247Z" fill="white"/>
<path d="M1.49117 31.8232C1.74861 31.8232 1.9325 31.7597 2.03949 31.6293C2.14648 31.5022 2.19998 31.3216 2.19998 31.0909C2.19998 30.8768 2.14314 30.6996 2.02612 30.5692C1.9091 30.4354 1.73524 30.3719 1.50789 30.3719C1.28387 30.3719 1.09999 30.4421 0.952874 30.5792C0.805762 30.7163 0.73555 30.8902 0.73555 31.0976H0.180539L0.170508 31.0775C0.160478 30.7564 0.280842 30.4822 0.534944 30.2548C0.789045 30.0274 1.11002 29.9137 1.50454 29.9137C1.90241 29.9137 2.21335 30.014 2.43736 30.2147C2.66137 30.4153 2.77505 30.7096 2.77505 31.1009C2.77505 31.3015 2.72155 31.4821 2.61791 31.646C2.51426 31.8099 2.36715 31.9403 2.17992 32.0306C2.3939 32.1175 2.56107 32.248 2.6714 32.4219C2.78174 32.5958 2.84192 32.8098 2.84192 33.0573C2.84192 33.4485 2.71821 33.7562 2.4708 33.9803C2.22338 34.2043 1.90241 34.3147 1.50454 34.3147C1.14011 34.3147 0.819136 34.2077 0.541631 33.9937C0.264125 33.7796 0.130387 33.4954 0.140417 33.1442L0.147104 33.1275H0.698772C0.698772 33.3348 0.772328 33.5087 0.922783 33.6525C1.07324 33.7963 1.26716 33.8666 1.50454 33.8666C1.73858 33.8666 1.92582 33.793 2.05955 33.6459C2.19329 33.4987 2.2635 33.3081 2.2635 33.074C2.2635 32.8065 2.19998 32.6058 2.07627 32.472C1.95256 32.3383 1.7553 32.2714 1.49117 32.2714H1.01306V31.8232H1.49117Z" fill="white"/>
<path d="M6.2319 32.7455C6.2319 33.2302 6.10819 33.6114 5.86413 33.8956C5.62007 34.1797 5.28908 34.3202 4.87116 34.3202C4.45659 34.3202 4.1256 34.1797 3.87819 33.8956C3.63078 33.6114 3.50708 33.2302 3.50708 32.7455V31.4884C3.50708 31.0069 3.63078 30.6258 3.87485 30.3416C4.11891 30.0574 4.4499 29.917 4.86447 29.917C5.27905 29.917 5.61004 30.0574 5.86079 30.3416C6.11154 30.6258 6.2319 31.0069 6.2319 31.4884V32.7455ZM5.6535 31.368C5.6535 31.0604 5.58329 30.8163 5.44621 30.6392C5.30914 30.462 5.11522 30.3717 4.86447 30.3717C4.61707 30.3717 4.42315 30.462 4.28942 30.6392C4.15569 30.8163 4.08548 31.0604 4.08548 31.368V32.8625C4.08548 33.1701 4.15569 33.4141 4.29276 33.5947C4.42984 33.7752 4.62375 33.8655 4.87116 33.8655C5.12191 33.8655 5.31582 33.7752 5.44956 33.598C5.58329 33.4175 5.6535 33.1734 5.6535 32.8658V31.368Z" fill="white"/>
<path d="M2.88525 48.9852H0.230608V48.5873L1.57465 46.9854C1.81203 46.6945 1.97585 46.4637 2.05944 46.2931C2.14302 46.1226 2.18649 45.9487 2.18649 45.7748C2.18649 45.5775 2.12965 45.4136 2.01263 45.2865C1.89561 45.1595 1.73847 45.0959 1.53453 45.0959C1.28043 45.0959 1.08986 45.1728 0.956122 45.3267C0.822387 45.4805 0.758863 45.6745 0.758863 45.9052H0.200518L0.193831 45.8885C0.183801 45.5407 0.300819 45.2431 0.544886 45.0023C0.788953 44.7615 1.1166 44.6411 1.53453 44.6411C1.91567 44.6411 2.21658 44.7481 2.43724 44.9588C2.6579 45.1695 2.76489 45.4437 2.76489 45.7781C2.76489 46.0022 2.70137 46.2229 2.57766 46.4403C2.45396 46.6577 2.26338 46.9252 2.00929 47.2529L0.929375 48.517L0.936062 48.5304H2.88525V48.9852Z" fill="white"/>
<path d="M6.23206 47.4736C6.23206 47.9585 6.10835 48.3397 5.86428 48.624C5.62022 48.9082 5.28922 49.0487 4.8713 49.0487C4.45672 49.0487 4.12573 48.9082 3.87832 48.624C3.63091 48.3397 3.5072 47.9585 3.5072 47.4736V46.2162C3.5072 45.7346 3.63091 45.3534 3.87497 45.0691C4.11904 44.7849 4.45004 44.6444 4.86461 44.6444C5.27919 44.6444 5.61019 44.7849 5.86094 45.0691C6.11169 45.3534 6.23206 45.7346 6.23206 46.2162V47.4736ZM5.65365 46.0958C5.65365 45.7881 5.58344 45.544 5.44636 45.3668C5.30928 45.1895 5.11537 45.0992 4.86461 45.0992C4.6172 45.0992 4.42329 45.1895 4.28955 45.3668C4.15582 45.544 4.08561 45.7881 4.08561 46.0958V47.5906C4.08561 47.8983 4.15582 48.1424 4.2929 48.323C4.42997 48.5036 4.62389 48.5939 4.8713 48.5939C5.12205 48.5939 5.31597 48.5036 5.4497 48.3264C5.58344 48.1458 5.65365 47.9016 5.65365 47.594V46.0958Z" fill="white"/>
<path d="M1.87573 63.5822H1.29399V59.8367L0.361206 59.8467V59.3986L1.87573 59.2415V63.5822Z" fill="white"/>
<path d="M6.23206 62.0706C6.23206 62.5555 6.10835 62.9367 5.86428 63.2209C5.62022 63.5052 5.28922 63.6456 4.8713 63.6456C4.45672 63.6456 4.12573 63.5052 3.87832 63.2209C3.63091 62.9367 3.5072 62.5555 3.5072 62.0706V60.8132C3.5072 60.3316 3.63091 59.9504 3.87497 59.6662C4.11904 59.3819 4.45004 59.2415 4.86461 59.2415C5.27919 59.2415 5.61019 59.3819 5.86094 59.6662C6.11169 59.9504 6.23206 60.3316 6.23206 60.8132V62.0706ZM5.65365 60.6928C5.65365 60.3851 5.58344 60.141 5.44636 59.9638C5.30928 59.7865 5.11537 59.6963 4.86461 59.6963C4.6172 59.6963 4.42329 59.7865 4.28955 59.9638C4.15582 60.141 4.08561 60.3851 4.08561 60.6928V62.1876C4.08561 62.4953 4.15582 62.7394 4.2929 62.92C4.42997 63.1005 4.62389 63.1908 4.8713 63.1908C5.12205 63.1908 5.31597 63.1005 5.4497 62.9233C5.58344 62.7427 5.65365 62.4986 5.65365 62.191V60.6928Z" fill="white"/>
<path d="M2.84521 76.8147C2.84521 77.2996 2.72151 77.6808 2.47744 77.9651C2.23338 78.2493 1.90238 78.3898 1.48446 78.3898C1.06988 78.3898 0.738886 78.2493 0.491476 77.9651C0.244066 77.6808 0.120361 77.2996 0.120361 76.8147V75.5573C0.120361 75.0758 0.244066 74.6945 0.488133 74.4103C0.7322 74.126 1.06319 73.9856 1.47777 73.9856C1.89235 73.9856 2.22335 74.126 2.4741 74.4103C2.72485 74.6945 2.84521 75.0758 2.84521 75.5573V76.8147ZM2.26681 75.4369C2.26681 75.1293 2.1966 74.8852 2.05952 74.7079C1.92244 74.5307 1.72853 74.4404 1.47777 74.4404C1.23036 74.4404 1.03645 74.5307 0.902712 74.7079C0.768977 74.8852 0.698766 75.1293 0.698766 75.4369V76.9317C0.698766 77.2394 0.768977 77.4835 0.906055 77.6641C1.04313 77.8447 1.23705 77.935 1.48446 77.935C1.73521 77.935 1.92913 77.8447 2.06286 77.6674C2.1966 77.4869 2.26681 77.2427 2.26681 76.9351V75.4369Z" fill="white"/>
<path d="M6.23193 76.8147C6.23193 77.2996 6.10823 77.6808 5.86418 77.9651C5.62012 78.2493 5.28914 78.3898 4.87124 78.3898C4.45668 78.3898 4.1257 78.2493 3.8783 77.9651C3.6309 77.6808 3.5072 77.2996 3.5072 76.8147V75.5573C3.5072 75.0758 3.6309 74.6945 3.87496 74.4103C4.11901 74.126 4.44999 73.9856 4.86455 73.9856C5.27911 73.9856 5.61009 74.126 5.86084 74.4103C6.11158 74.6945 6.23193 75.0758 6.23193 75.5573V76.8147ZM5.65356 75.4369C5.65356 75.1293 5.58335 74.8852 5.44628 74.7079C5.3092 74.5307 5.1153 74.4404 4.86455 74.4404C4.61715 74.4404 4.42325 74.5307 4.28952 74.7079C4.15579 74.8852 4.08558 75.1293 4.08558 75.4369V76.9317C4.08558 77.2394 4.15579 77.4835 4.29286 77.6641C4.42993 77.8447 4.62384 77.935 4.87124 77.935C5.12198 77.935 5.31589 77.8447 5.44962 77.6674C5.58335 77.4869 5.65356 77.2427 5.65356 76.9351V75.4369Z" fill="white"/>
<path d="M20.6351 83.3457C20.6351 83.8306 20.5114 84.2118 20.2674 84.4961C20.0233 84.7803 19.6923 84.9208 19.2744 84.9208C18.8598 84.9208 18.5288 84.7803 18.2814 84.4961C18.034 84.2118 17.9103 83.8306 17.9103 83.3457V82.0883C17.9103 81.6068 18.034 81.2256 18.278 80.9413C18.5221 80.6571 18.8531 80.5166 19.2677 80.5166C19.6823 80.5166 20.0133 80.6571 20.264 80.9413C20.5148 81.2256 20.6351 81.6068 20.6351 82.0883V83.3457ZM20.0534 81.9679C20.0534 81.6603 19.9832 81.4162 19.8461 81.2389C19.709 81.0617 19.5151 80.9714 19.2643 80.9714C19.0169 80.9714 18.823 81.0617 18.6893 81.2389C18.5556 81.4162 18.4853 81.6603 18.4853 81.9679V83.4628C18.4853 83.7704 18.5556 84.0145 18.6926 84.1951C18.8297 84.3757 19.0236 84.466 19.271 84.466C19.5218 84.466 19.7157 84.3757 19.8494 84.1985C19.9832 84.0179 20.0534 83.7738 20.0534 83.4661V81.9679Z" fill="white"/>
<path d="M23.0524 84.8563H22.4706V81.1117L21.5378 81.1217V80.6737L23.0524 80.5166V84.8563Z" fill="white"/>
<path d="M40.5312 83.347C40.5312 83.8319 40.4075 84.2132 40.1635 84.4974C39.9194 84.7817 39.5884 84.9221 39.1705 84.9221C38.7559 84.9221 38.4249 84.7817 38.1775 84.4974C37.9301 84.2132 37.8064 83.8319 37.8064 83.347V82.0896C37.8064 81.608 37.9301 81.2268 38.1742 80.9425C38.4182 80.6583 38.7492 80.5178 39.1638 80.5178C39.5784 80.5178 39.9094 80.6583 40.1601 80.9425C40.4109 81.2268 40.5312 81.608 40.5312 82.0896V83.347ZM39.9528 81.9692C39.9528 81.6615 39.8826 81.4174 39.7456 81.2402C39.6085 81.0629 39.4146 80.9726 39.1638 80.9726C38.9164 80.9726 38.7225 81.0629 38.5887 81.2402C38.455 81.4174 38.3848 81.6615 38.3848 81.9692V83.4641C38.3848 83.7717 38.455 84.0158 38.5921 84.1964C38.7292 84.377 38.9231 84.4673 39.1705 84.4673C39.4212 84.4673 39.6152 84.377 39.7489 84.1998C39.8826 84.0192 39.9528 83.7751 39.9528 83.4674V81.9692Z" fill="white"/>
<path d="M43.958 84.8573H41.3001V84.4594L42.6441 82.8575C42.8815 82.5666 43.0453 82.3358 43.1289 82.1653C43.2124 81.9947 43.2559 81.8209 43.2559 81.647C43.2559 81.4497 43.1991 81.2858 43.0821 81.1587C42.965 81.0316 42.8079 80.9681 42.604 80.9681C42.3499 80.9681 42.1593 81.045 42.0256 81.1988C41.8918 81.3527 41.8283 81.5466 41.8283 81.7774H41.27L41.2633 81.7607C41.2533 81.4129 41.3703 81.1152 41.6143 80.8745C41.8584 80.6337 42.186 80.5133 42.604 80.5133C42.9851 80.5133 43.286 80.6203 43.5067 80.831C43.7273 81.0417 43.8343 81.3159 43.8343 81.6503C43.8343 81.8744 43.7708 82.0951 43.6471 82.3124C43.5234 82.5298 43.3328 82.7973 43.0787 83.1251L41.9988 84.3891L42.0055 84.4025H43.9547V84.8573H43.958Z" fill="white"/>
<path d="M59.9059 83.3457C59.9059 83.8306 59.7822 84.2118 59.5381 84.4961C59.294 84.7803 58.9631 84.9208 58.5451 84.9208C58.1306 84.9208 57.7996 84.7803 57.5521 84.4961C57.3047 84.2118 57.181 83.8306 57.181 83.3457V82.0883C57.181 81.6068 57.3047 81.2256 57.5488 80.9413C57.7929 80.6571 58.1239 80.5166 58.5384 80.5166C58.953 80.5166 59.284 80.6571 59.5348 80.9413C59.7855 81.2256 59.9059 81.6068 59.9059 82.0883V83.3457ZM59.3275 81.9679C59.3275 81.6603 59.2573 81.4162 59.1202 81.2389C58.9831 81.0617 58.7892 80.9714 58.5384 80.9714C58.291 80.9714 58.0971 81.0617 57.9634 81.2389C57.8296 81.4162 57.7594 81.6603 57.7594 81.9679V83.4628C57.7594 83.7704 57.8296 84.0145 57.9667 84.1951C58.1038 84.3757 58.2977 84.466 58.5451 84.466C58.7959 84.466 58.9898 84.3757 59.1235 84.1985C59.2573 84.0179 59.3275 83.7738 59.3275 83.4661V81.9679Z" fill="white"/>
<path d="M61.9419 82.4223C62.1993 82.4223 62.3832 82.3588 62.4902 82.2284C62.5972 82.1013 62.6507 81.9208 62.6507 81.6901C62.6507 81.4761 62.5938 81.2989 62.4768 81.1686C62.3598 81.0348 62.1859 80.9713 61.9586 80.9713C61.7346 80.9713 61.5507 81.0415 61.4036 81.1786C61.2565 81.3157 61.1863 81.4895 61.1863 81.6968H60.6346L60.6246 81.6801C60.6146 81.3591 60.7349 81.085 60.989 80.8576C61.2431 80.6303 61.5641 80.5166 61.9586 80.5166C62.3565 80.5166 62.6674 80.6169 62.8914 80.8175C63.1154 81.0181 63.2291 81.3123 63.2291 81.7035C63.2291 81.9041 63.1756 82.0846 63.0719 82.2485C62.9683 82.4123 62.8212 82.5427 62.6339 82.6329C62.8479 82.7199 63.0151 82.8502 63.1254 83.0241C63.2357 83.198 63.2959 83.4119 63.2959 83.6593C63.2959 84.0505 63.1722 84.3581 62.9248 84.5821C62.6774 84.8061 62.3565 84.9164 61.9586 84.9164C61.5942 84.9164 61.2732 84.8094 60.9957 84.5955C60.7182 84.3815 60.5845 84.0973 60.5945 83.7463L60.6012 83.7295H61.1529C61.1529 83.9368 61.2264 84.1107 61.3769 84.2544C61.5273 84.3982 61.7212 84.4684 61.9586 84.4684C62.1926 84.4684 62.3799 84.3949 62.5136 84.2478C62.6473 84.1007 62.7175 83.9101 62.7175 83.6761C62.7175 83.4086 62.654 83.208 62.5303 83.0743C62.4066 82.9405 62.2093 82.8737 61.9452 82.8737H61.4705V82.4256H61.9419V82.4223Z" fill="white"/>
<path d="M79.7953 83.3457C79.7953 83.8306 79.6716 84.2118 79.4275 84.4961C79.1835 84.7803 78.8525 84.9208 78.4345 84.9208C78.02 84.9208 77.689 84.7803 77.4416 84.4961C77.1941 84.2118 77.0704 83.8306 77.0704 83.3457V82.0883C77.0704 81.6068 77.1941 81.2256 77.4382 80.9413C77.6823 80.6571 78.0133 80.5166 78.4278 80.5166C78.8424 80.5166 79.1734 80.6571 79.4242 80.9413C79.6749 81.2256 79.7953 81.6068 79.7953 82.0883V83.3457ZM79.2169 81.9679C79.2169 81.6603 79.1467 81.4162 79.0096 81.2389C78.8725 81.0617 78.6786 80.9714 78.4278 80.9714C78.1804 80.9714 77.9865 81.0617 77.8528 81.2389C77.719 81.4162 77.6488 81.6603 77.6488 81.9679V83.4628C77.6488 83.7704 77.719 84.0145 77.8561 84.1951C77.9932 84.3757 78.1871 84.466 78.4345 84.466C78.6853 84.466 78.8792 84.3757 79.0129 84.1985C79.1467 84.0179 79.2169 83.7738 79.2169 83.4661V81.9679Z" fill="white"/>
<path d="M82.7541 83.4153H83.3458V83.8667H82.7541V84.8529H82.179V83.8667H80.3435V83.539L82.1456 80.5735H82.7574V83.4153H82.7541ZM80.9587 83.4153H82.1757V81.4093L82.1589 81.406L82.1021 81.5531L80.9587 83.4153Z" fill="white"/>
<path d="M99.3438 83.3457C99.3438 83.8306 99.22 84.2118 98.976 84.4961C98.7319 84.7803 98.4009 84.9208 97.983 84.9208C97.5684 84.9208 97.2374 84.7803 96.99 84.4961C96.7426 84.2118 96.6189 83.8306 96.6189 83.3457V82.0883C96.6189 81.6068 96.7426 81.2256 96.9867 80.9413C97.2307 80.6571 97.5617 80.5166 97.9763 80.5166C98.3909 80.5166 98.7219 80.6571 98.9726 80.9413C99.2234 81.2256 99.3438 81.6068 99.3438 82.0883V83.3457ZM98.7653 81.9679C98.7653 81.6603 98.6951 81.4162 98.5581 81.2389C98.421 81.0617 98.2271 80.9714 97.9763 80.9714C97.7289 80.9714 97.535 81.0617 97.4012 81.2389C97.2675 81.4162 97.1973 81.6603 97.1973 81.9679V83.4628C97.1973 83.7704 97.2675 84.0145 97.4046 84.1951C97.5417 84.3757 97.7356 84.466 97.983 84.466C98.2337 84.466 98.4277 84.3757 98.5614 84.1985C98.6951 84.0179 98.7653 83.7738 98.7653 83.4661V81.9679Z" fill="white"/>
<path d="M100.19 82.9545L100.437 80.5768H102.58V81.0918H100.925L100.788 82.3224C100.882 82.2522 100.982 82.1987 101.092 82.1519C101.203 82.1084 101.33 82.085 101.473 82.0817C101.868 82.0783 102.179 82.2021 102.403 82.4529C102.627 82.7037 102.74 83.0515 102.74 83.4896C102.74 83.9176 102.627 84.2621 102.396 84.5229C102.165 84.7838 101.831 84.9142 101.39 84.9142C101.029 84.9142 100.724 84.8139 100.484 84.6166C100.243 84.4192 100.126 84.1283 100.136 83.7437L100.143 83.727H100.664C100.664 83.9611 100.731 84.1417 100.865 84.2688C100.999 84.3958 101.172 84.4627 101.386 84.4627C101.631 84.4627 101.821 84.3758 101.958 84.2052C102.095 84.0347 102.162 83.7972 102.162 83.4963C102.162 83.2254 102.095 83.0047 101.958 82.8341C101.821 82.6636 101.634 82.5799 101.39 82.5799C101.162 82.5799 100.999 82.6134 100.895 82.6836C100.791 82.7538 100.718 82.8575 100.668 83.0013L100.19 82.9545Z" fill="white"/>
</svg>
