<svg width="114" height="91" viewBox="0 0 114 91" fill="none" xmlns="http://www.w3.org/2000/svg">
<path d="M0.32425 2.90162L0.587846 0.368408H2.87116V0.917094H1.10435L0.958305 2.2318C1.05448 2.15698 1.16491 2.09641 1.28246 2.05009C1.40001 2.00378 1.53537 1.97884 1.68854 1.97527C2.10886 1.97171 2.44014 2.10354 2.6788 2.37075C2.91746 2.63797 3.03857 3.00851 3.03857 3.47525C3.03857 3.9313 2.91746 4.29828 2.67168 4.57618C2.42589 4.85409 2.06968 4.99304 1.59948 4.99304C1.21478 4.99304 0.890625 4.88616 0.634153 4.67594C0.377682 4.46573 0.253008 4.15576 0.263694 3.74603L0.270819 3.72822H0.826507C0.826507 3.97762 0.897749 4.17001 1.04023 4.3054C1.18272 4.44079 1.36795 4.51205 1.59592 4.51205C1.85596 4.51205 2.059 4.41942 2.20504 4.23771C2.35109 4.056 2.42233 3.80304 2.42233 3.48238C2.42233 3.19378 2.35109 2.95863 2.20504 2.77692C2.059 2.59522 1.85952 2.50614 1.59948 2.50614C1.35726 2.50614 1.18272 2.54177 1.07229 2.61659C0.961867 2.69141 0.883501 2.80543 0.833631 2.95507L0.32425 2.90162Z" fill="white"/>
<path d="M6.63965 3.31942C6.63965 3.83604 6.50785 4.24222 6.24782 4.54507C5.98779 4.84792 5.63515 4.99756 5.18989 4.99756C4.7482 4.99756 4.39555 4.84792 4.13196 4.54507C3.86837 4.24222 3.73657 3.83604 3.73657 3.31942V1.97975C3.73657 1.46669 3.86837 1.06052 4.1284 0.757668C4.38843 0.454819 4.74463 0.305176 5.18277 0.305176C5.62446 0.305176 5.97711 0.454819 6.24426 0.757668C6.51141 1.06052 6.63965 1.46669 6.63965 1.97975V3.31942ZM6.02341 1.85149C6.02341 1.5237 5.94861 1.2636 5.80257 1.07477C5.65652 0.885934 5.44992 0.789735 5.18277 0.789735C4.91918 0.789735 4.71258 0.885934 4.57009 1.07477C4.42761 1.2636 4.35281 1.5237 4.35281 1.85149V3.44412C4.35281 3.77191 4.42761 4.032 4.57366 4.2244C4.7197 4.4168 4.9263 4.513 5.18989 4.513C5.45705 4.513 5.66364 4.4168 5.80613 4.22796C5.94861 4.03557 6.02341 3.77547 6.02341 3.44768V1.85149Z" fill="white"/>
<path d="M2.5718 19.4042H3.20229V19.8851H2.5718V20.9359H1.95557V19.8851H0V19.536L1.91995 16.3765H2.5718V19.4042ZM0.65898 19.4042H1.95557V17.267L1.93776 17.2634L1.8772 17.4201L0.65898 19.4042Z" fill="white"/>
<path d="M6.63965 19.3311C6.63965 19.8478 6.50785 20.2539 6.24782 20.5568C5.98779 20.8596 5.63515 21.0093 5.18989 21.0093C4.7482 21.0093 4.39555 20.8596 4.13196 20.5568C3.86837 20.2539 3.73657 19.8478 3.73657 19.3311V17.9915C3.73657 17.4784 3.86837 17.0722 4.1284 16.7694C4.38843 16.4665 4.74107 16.3169 5.18277 16.3169C5.62446 16.3169 5.97711 16.4665 6.24426 16.7694C6.51141 17.0722 6.63965 17.4784 6.63965 17.9915V19.3311ZM6.02341 17.8632C6.02341 17.5354 5.94861 17.2753 5.80257 17.0865C5.65652 16.8977 5.44992 16.8015 5.18277 16.8015C4.91918 16.8015 4.71258 16.8977 4.57009 17.0865C4.42761 17.2753 4.35281 17.5354 4.35281 17.8632V19.4558C4.35281 19.7836 4.42761 20.0437 4.57366 20.2361C4.7197 20.4285 4.9263 20.5247 5.18989 20.5247C5.45705 20.5247 5.66364 20.4285 5.80613 20.2397C5.94861 20.0473 6.02341 19.7872 6.02341 19.4594V17.8632Z" fill="white"/>
<path d="M1.58866 33.9494C1.86293 33.9494 2.05884 33.8817 2.17283 33.7428C2.28681 33.6074 2.3438 33.415 2.3438 33.1692C2.3438 32.9411 2.28325 32.7523 2.15858 32.6134C2.03391 32.4708 1.84869 32.4031 1.60647 32.4031C1.36781 32.4031 1.1719 32.478 1.01518 32.624C0.858447 32.7701 0.783645 32.9554 0.783645 33.1763H0.192351L0.181665 33.1549C0.170979 32.8129 0.299211 32.5207 0.569924 32.2784C0.840637 32.0362 1.18259 31.915 1.60291 31.915C2.02679 31.915 2.35805 32.0219 2.59671 32.2357C2.83536 32.4495 2.95647 32.763 2.95647 33.1799C2.95647 33.3936 2.89948 33.586 2.78906 33.7606C2.67863 33.9352 2.5219 34.0741 2.32243 34.1703C2.5504 34.263 2.7285 34.4019 2.84605 34.5872C2.96359 34.7725 3.02771 35.0005 3.02771 35.2641C3.02771 35.681 2.89592 36.0088 2.63233 36.2475C2.36874 36.4862 2.02679 36.6038 1.60291 36.6038C1.21465 36.6038 0.872695 36.4897 0.577048 36.2617C0.281401 36.0337 0.138921 35.7309 0.149607 35.3568L0.156731 35.3389H0.744462C0.744462 35.5598 0.822827 35.7451 0.983117 35.8983C1.14341 36.0515 1.35 36.1263 1.60291 36.1263C1.85225 36.1263 2.05172 36.048 2.1942 35.8912C2.33668 35.7344 2.41148 35.5313 2.41148 35.2819C2.41148 34.9969 2.3438 34.7831 2.21201 34.6406C2.08022 34.4981 1.87006 34.4269 1.58866 34.4269H1.07929V33.9494H1.58866Z" fill="white"/>
<path d="M6.63953 34.9326C6.63953 35.4492 6.50773 35.8554 6.2477 36.1582C5.98767 36.4611 5.63503 36.6107 5.18977 36.6107C4.74807 36.6107 4.39543 36.4611 4.13184 36.1582C3.86825 35.8554 3.73645 35.4492 3.73645 34.9326V33.593C3.73645 33.0799 3.86825 32.6738 4.12828 32.3709C4.38831 32.0681 4.74095 31.9185 5.18265 31.9185C5.62434 31.9185 5.97698 32.0681 6.24414 32.3709C6.51129 32.6738 6.63953 33.0799 6.63953 33.593V34.9326ZM6.02329 33.4647C6.02329 33.1369 5.94849 32.8769 5.80244 32.688C5.6564 32.4992 5.4498 32.403 5.18265 32.403C4.91905 32.403 4.71245 32.4992 4.56997 32.688C4.42749 32.8769 4.35269 33.1369 4.35269 33.4647V35.0573C4.35269 35.3851 4.42749 35.6452 4.57353 35.8376C4.71958 36.03 4.92618 36.1262 5.18977 36.1262C5.45692 36.1262 5.66352 36.03 5.80601 35.8411C5.94849 35.6487 6.02329 35.3887 6.02329 35.0609V33.4647Z" fill="white"/>
<path d="M3.07397 52.2341H0.245747V51.8101L1.67767 50.1035C1.93057 49.7936 2.10511 49.5477 2.19416 49.366C2.28321 49.1843 2.32952 48.999 2.32952 48.8138C2.32952 48.6036 2.26896 48.429 2.14429 48.2936C2.01962 48.1582 1.85221 48.0905 1.63493 48.0905C1.36422 48.0905 1.16118 48.1725 1.0187 48.3363C0.876221 48.5002 0.808543 48.7069 0.808543 48.9527H0.213689L0.206565 48.9349C0.195879 48.5644 0.320549 48.2473 0.580575 47.9907C0.840601 47.7342 1.18968 47.606 1.63493 47.606C2.04099 47.606 2.36157 47.72 2.59667 47.9444C2.83176 48.1689 2.94574 48.461 2.94574 48.8173C2.94574 49.056 2.87806 49.2912 2.74627 49.5228C2.61448 49.7544 2.41144 50.0394 2.14073 50.3886L0.990205 51.7353L0.997329 51.7496H3.07397V52.2341Z" fill="white"/>
<path d="M6.63977 50.6235C6.63977 51.1401 6.50797 51.5463 6.24794 51.8492C5.98791 52.152 5.63527 52.3016 5.19001 52.3016C4.74832 52.3016 4.39568 52.152 4.13208 51.8492C3.86849 51.5463 3.73669 51.1401 3.73669 50.6235V49.2839C3.73669 48.7709 3.86849 48.3647 4.12852 48.0619C4.38855 47.759 4.74119 47.6094 5.18289 47.6094C5.62458 47.6094 5.97723 47.759 6.24438 48.0619C6.51154 48.3647 6.63977 48.7709 6.63977 49.2839V50.6235ZM6.02353 49.1556C6.02353 48.8279 5.94873 48.5678 5.80269 48.3789C5.65664 48.1901 5.45004 48.0939 5.18289 48.0939C4.9193 48.0939 4.7127 48.1901 4.57022 48.3789C4.42773 48.5678 4.35293 48.8279 4.35293 49.1556V50.7482C4.35293 51.076 4.42773 51.3361 4.57378 51.5285C4.71982 51.7209 4.92642 51.8171 5.19001 51.8171C5.45717 51.8171 5.66377 51.7209 5.80625 51.5321C5.94873 51.3397 6.02353 51.0796 6.02353 50.7518V49.1556Z" fill="white"/>
<path d="M1.99841 67.7858H1.3786V63.7953L0.384766 63.806V63.3286L1.99841 63.1611V67.7858Z" fill="white"/>
<path d="M6.63965 66.1754C6.63965 66.692 6.50785 67.0982 6.24782 67.401C5.98779 67.7039 5.63515 67.8535 5.18989 67.8535C4.7482 67.8535 4.39555 67.7039 4.13196 67.401C3.86837 67.0982 3.73657 66.692 3.73657 66.1754V64.8357C3.73657 64.3226 3.86837 63.9165 4.1284 63.6136C4.38843 63.3108 4.74107 63.1611 5.18277 63.1611C5.62446 63.1611 5.97711 63.3108 6.24426 63.6136C6.51141 63.9165 6.63965 64.3226 6.63965 64.8357V66.1754ZM6.02341 64.7074C6.02341 64.3797 5.94861 64.1196 5.80257 63.9307C5.65652 63.7419 5.44992 63.6457 5.18277 63.6457C4.91918 63.6457 4.71258 63.7419 4.57009 63.9307C4.42761 64.1196 4.35281 64.3797 4.35281 64.7074V66.3001C4.35281 66.6279 4.42761 66.888 4.57366 67.0804C4.7197 67.2728 4.9263 67.369 5.18989 67.369C5.45705 67.369 5.66364 67.2728 5.80613 67.0839C5.94861 66.8915 6.02341 66.6314 6.02341 66.3036V64.7074Z" fill="white"/>
<path d="M3.03137 81.8843C3.03137 82.4009 2.89958 82.8071 2.63955 83.1099C2.37952 83.4127 2.02687 83.5624 1.58161 83.5624C1.13992 83.5624 0.787276 83.4127 0.523684 83.1099C0.260092 82.8071 0.128296 82.4009 0.128296 81.8843V80.5447C0.128296 80.0316 0.260092 79.6254 0.520122 79.3226C0.780152 79.0198 1.1328 78.8701 1.57449 78.8701C2.01619 78.8701 2.36883 79.0198 2.63598 79.3226C2.90314 79.6254 3.03137 80.0316 3.03137 80.5447V81.8843ZM2.41514 80.4164C2.41514 80.0886 2.34033 79.8285 2.19429 79.6397C2.04824 79.4509 1.84165 79.3547 1.57449 79.3547C1.3109 79.3547 1.1043 79.4509 0.961817 79.6397C0.819335 79.8285 0.744532 80.0886 0.744532 80.4164V82.009C0.744532 82.3368 0.819335 82.5968 0.965379 82.7892C1.11142 82.9816 1.31802 83.0778 1.58161 83.0778C1.84877 83.0778 2.05537 82.9816 2.19785 82.7928C2.34033 82.6004 2.41514 82.3403 2.41514 82.0125V80.4164Z" fill="white"/>
<path d="M6.63977 81.8843C6.63977 82.4009 6.50797 82.8071 6.24794 83.1099C5.98791 83.4127 5.63527 83.5624 5.19001 83.5624C4.74832 83.5624 4.39568 83.4127 4.13208 83.1099C3.86849 82.8071 3.73669 82.4009 3.73669 81.8843V80.5447C3.73669 80.0316 3.86849 79.6254 4.12852 79.3226C4.38855 79.0198 4.74119 78.8701 5.18289 78.8701C5.62458 78.8701 5.97723 79.0198 6.24438 79.3226C6.51154 79.6254 6.63977 80.0316 6.63977 80.5447V81.8843ZM6.02353 80.4164C6.02353 80.0886 5.94873 79.8285 5.80269 79.6397C5.65664 79.4509 5.45004 79.3547 5.18289 79.3547C4.9193 79.3547 4.7127 79.4509 4.57022 79.6397C4.42773 79.8285 4.35293 80.0886 4.35293 80.4164V82.009C4.35293 82.3368 4.42773 82.5968 4.57378 82.7892C4.71982 82.9816 4.92642 83.0778 5.19001 83.0778C5.45717 83.0778 5.66377 82.9816 5.80625 82.7928C5.94873 82.6004 6.02353 82.3403 6.02353 82.0125V80.4164Z" fill="white"/>
<path d="M21.9851 88.8425C21.9851 89.3591 21.8533 89.7653 21.5933 90.0681C21.3333 90.371 20.9806 90.5206 20.5354 90.5206C20.0937 90.5206 19.741 90.371 19.4774 90.0681C19.2138 89.7653 19.082 89.3591 19.082 88.8425V87.5029C19.082 86.9899 19.2138 86.5837 19.4739 86.2809C19.7339 85.978 20.0865 85.8284 20.5282 85.8284C20.9699 85.8284 21.3226 85.978 21.5897 86.2809C21.8569 86.5837 21.9851 86.9899 21.9851 87.5029V88.8425ZM21.3653 87.3746C21.3653 87.0469 21.2905 86.7868 21.1445 86.5979C20.9984 86.4091 20.7918 86.3129 20.5247 86.3129C20.2611 86.3129 20.0545 86.4091 19.912 86.5979C19.7695 86.7868 19.6947 87.0469 19.6947 87.3746V88.9672C19.6947 89.295 19.7695 89.5551 19.9156 89.7475C20.0616 89.9399 20.2682 90.0361 20.5318 90.0361C20.7989 90.0361 21.0055 89.9399 21.148 89.7511C21.2905 89.5587 21.3653 89.2986 21.3653 88.9708V87.3746Z" fill="white"/>
<path d="M24.5604 90.453H23.9407V86.4626L22.9469 86.4733V85.9958L24.5604 85.8284V90.453Z" fill="white"/>
<path d="M43.1827 88.8423C43.1827 89.3589 43.0509 89.7651 42.7909 90.0679C42.5309 90.3707 42.1782 90.5204 41.733 90.5204C41.2913 90.5204 40.9386 90.3707 40.6751 90.0679C40.4115 89.7651 40.2797 89.3589 40.2797 88.8423V87.5027C40.2797 86.9896 40.4115 86.5834 40.6715 86.2806C40.9315 85.9778 41.2842 85.8281 41.7259 85.8281C42.1676 85.8281 42.5202 85.9778 42.7874 86.2806C43.0545 86.5834 43.1827 86.9896 43.1827 87.5027V88.8423ZM42.5665 87.3744C42.5665 87.0466 42.4917 86.7865 42.3457 86.5977C42.1996 86.4089 41.993 86.3127 41.7259 86.3127C41.4623 86.3127 41.2557 86.4089 41.1132 86.5977C40.9707 86.7865 40.8959 87.0466 40.8959 87.3744V88.967C40.8959 89.2948 40.9707 89.5549 41.1167 89.7472C41.2628 89.9396 41.4694 90.0358 41.733 90.0358C42.0001 90.0358 42.2067 89.9396 42.3492 89.7508C42.4917 89.5584 42.5665 89.2983 42.5665 88.9705V87.3744Z" fill="white"/>
<path d="M46.8337 90.453H44.0019V90.029L45.4338 88.3223C45.6867 88.0124 45.8613 87.7665 45.9503 87.5848C46.0394 87.4031 46.0857 87.2178 46.0857 87.0326C46.0857 86.8223 46.0251 86.6478 45.9005 86.5124C45.7758 86.377 45.6084 86.3093 45.3911 86.3093C45.1204 86.3093 44.9173 86.3912 44.7748 86.5551C44.6323 86.719 44.5647 86.9257 44.5647 87.1715H43.9698L43.9627 87.1537C43.952 86.7831 44.0767 86.466 44.3367 86.2095C44.5967 85.953 44.9458 85.8247 45.3911 85.8247C45.7972 85.8247 46.1178 85.9387 46.3529 86.1632C46.588 86.3877 46.7019 86.6798 46.7019 87.0361C46.7019 87.2748 46.6343 87.51 46.5025 87.7416C46.3707 87.9732 46.1676 88.2582 45.8969 88.6074L44.7463 89.9542L44.7535 89.9684H46.8302V90.453H46.8337Z" fill="white"/>
<path d="M63.825 88.8425C63.825 89.3591 63.6932 89.7653 63.4331 90.0681C63.1731 90.371 62.8205 90.5206 62.3752 90.5206C61.9335 90.5206 61.5809 90.371 61.3173 90.0681C61.0537 89.7653 60.9219 89.3591 60.9219 88.8425V87.5029C60.9219 86.9899 61.0537 86.5837 61.3137 86.2809C61.5737 85.978 61.9264 85.8284 62.3681 85.8284C62.8098 85.8284 63.1624 85.978 63.4296 86.2809C63.6967 86.5837 63.825 86.9899 63.825 87.5029V88.8425ZM63.2087 87.3746C63.2087 87.0469 63.1339 86.7868 62.9879 86.5979C62.8418 86.4091 62.6352 86.3129 62.3681 86.3129C62.1045 86.3129 61.8979 86.4091 61.7554 86.5979C61.6129 86.7868 61.5381 87.0469 61.5381 87.3746V88.9672C61.5381 89.295 61.6129 89.5551 61.759 89.7475C61.905 89.9399 62.1116 90.0361 62.3752 90.0361C62.6424 90.0361 62.8489 89.9399 62.9914 89.7511C63.1339 89.5587 63.2087 89.2986 63.2087 88.9708V87.3746Z" fill="white"/>
<path d="M65.9943 87.8587C66.2686 87.8587 66.4645 87.7911 66.5785 87.6521C66.6925 87.5168 66.7494 87.3244 66.7494 87.0787C66.7494 86.8507 66.6889 86.6619 66.5642 86.523C66.4395 86.3805 66.2543 86.3128 66.0121 86.3128C65.7734 86.3128 65.5775 86.3876 65.4208 86.5337C65.2641 86.6797 65.1893 86.8649 65.1893 87.0858H64.6015L64.5908 87.068C64.5802 86.726 64.7084 86.4339 64.9791 86.1917C65.2498 85.9495 65.5918 85.8284 66.0121 85.8284C66.436 85.8284 66.7673 85.9352 67.0059 86.149C67.2446 86.3627 67.3657 86.6761 67.3657 87.0929C67.3657 87.3066 67.3087 87.499 67.1983 87.6735C67.0878 87.8481 66.9311 87.987 66.7316 88.0831C66.9596 88.1758 67.1377 88.3147 67.2553 88.4999C67.3728 88.6851 67.4369 88.9131 67.4369 89.1767C67.4369 89.5935 67.3051 89.9212 67.0415 90.1598C66.7779 90.3985 66.436 90.516 66.0121 90.516C65.6238 90.516 65.2819 90.4021 64.9862 90.1741C64.6906 89.9461 64.5481 89.6433 64.5588 89.2693L64.5659 89.2515H65.1536C65.1536 89.4724 65.232 89.6576 65.3923 89.8107C65.5526 89.9639 65.7592 90.0387 66.0121 90.0387C66.2614 90.0387 66.4609 89.9604 66.6034 89.8036C66.7459 89.6469 66.8207 89.4439 66.8207 89.1945C66.8207 88.9095 66.753 88.6958 66.6212 88.5533C66.4894 88.4109 66.2793 88.3396 65.9979 88.3396H65.492V87.8623H65.9943V87.8587Z" fill="white"/>
<path d="M85.0155 88.8425C85.0155 89.3591 84.8837 89.7653 84.6237 90.0681C84.3636 90.371 84.011 90.5206 83.5657 90.5206C83.1241 90.5206 82.7714 90.371 82.5078 90.0681C82.2442 89.7653 82.1124 89.3591 82.1124 88.8425V87.5029C82.1124 86.9899 82.2442 86.5837 82.5043 86.2809C82.7643 85.978 83.1169 85.8284 83.5586 85.8284C84.0003 85.8284 84.353 85.978 84.6201 86.2809C84.8873 86.5837 85.0155 86.9899 85.0155 87.5029V88.8425ZM84.3993 87.3746C84.3993 87.0469 84.3245 86.7868 84.1784 86.5979C84.0324 86.4091 83.8258 86.3129 83.5586 86.3129C83.295 86.3129 83.0884 86.4091 82.9459 86.5979C82.8035 86.7868 82.7287 87.0469 82.7287 87.3746V88.9672C82.7287 89.295 82.8035 89.5551 82.9495 89.7475C83.0956 89.9399 83.3022 90.0361 83.5657 90.0361C83.8329 90.0361 84.0395 89.9399 84.182 89.7511C84.3245 89.5587 84.3993 89.2986 84.3993 88.9708V87.3746Z" fill="white"/>
<path d="M88.1679 88.9167H88.7983V89.3975H88.1679V90.4483H87.5552V89.3975H85.5996V89.0485L87.5196 85.8889H88.1714V88.9167H88.1679ZM86.255 88.9167H87.5516V86.7794L87.5338 86.7759L87.4733 86.9326L86.255 88.9167Z" fill="white"/>
<path d="M105.843 88.8425C105.843 89.3591 105.711 89.7653 105.451 90.0681C105.191 90.371 104.838 90.5206 104.393 90.5206C103.951 90.5206 103.599 90.371 103.335 90.0681C103.071 89.7653 102.94 89.3591 102.94 88.8425V87.5029C102.94 86.9899 103.071 86.5837 103.332 86.2809C103.592 85.978 103.944 85.8284 104.386 85.8284C104.828 85.8284 105.18 85.978 105.447 86.2809C105.715 86.5837 105.843 86.9899 105.843 87.5029V88.8425ZM105.227 87.3746C105.227 87.0469 105.152 86.7868 105.006 86.5979C104.86 86.4091 104.653 86.3129 104.386 86.3129C104.122 86.3129 103.916 86.4091 103.773 86.5979C103.631 86.7868 103.556 87.0469 103.556 87.3746V88.9672C103.556 89.295 103.631 89.5551 103.777 89.7475C103.923 89.9399 104.129 90.0361 104.393 90.0361C104.66 90.0361 104.867 89.9399 105.009 89.7511C105.152 89.5587 105.227 89.2986 105.227 88.9708V87.3746Z" fill="white"/>
<path d="M106.744 88.4256L107.008 85.8923H109.291V86.441H107.528L107.382 87.7522C107.481 87.6774 107.588 87.6203 107.706 87.5705C107.823 87.5241 107.959 87.4992 108.112 87.4956C108.532 87.4921 108.863 87.6239 109.102 87.8911C109.341 88.1583 109.462 88.5289 109.462 88.9956C109.462 89.4517 109.341 89.8187 109.095 90.0966C108.849 90.3745 108.493 90.5134 108.023 90.5134C107.638 90.5134 107.314 90.4065 107.057 90.1963C106.801 89.9861 106.676 89.6761 106.687 89.2664L106.694 89.2486H107.25C107.25 89.498 107.321 89.6904 107.464 89.8258C107.606 89.9612 107.791 90.0324 108.019 90.0324C108.279 90.0324 108.482 89.9398 108.628 89.7581C108.774 89.5764 108.846 89.3234 108.846 89.0028C108.846 88.7142 108.774 88.479 108.628 88.2973C108.482 88.1156 108.283 88.0265 108.023 88.0265C107.781 88.0265 107.606 88.0621 107.496 88.137C107.385 88.2118 107.307 88.3222 107.253 88.4754L106.744 88.4256Z" fill="white"/>
<path d="M22.7987 3.30591H22.4418V79.3232H22.7987V3.30591Z" fill="#E2E2E2"/>
<path d="M43.7449 3.30591H43.3879V79.3232H43.7449V3.30591Z" fill="#E2E2E2"/>
<path d="M64.6874 3.30591H64.3304V79.3232H64.6874V3.30591Z" fill="#E2E2E2"/>
<path d="M85.7834 3.30591H85.4265V79.3232H85.7834V3.30591Z" fill="#E2E2E2"/>
<path d="M106.558 3.30591H106.201V79.3232H106.558V3.30591Z" fill="#E2E2E2"/>
<path d="M32.2136 71.7666C25.8966 71.7666 21.8316 71.2893 21.7495 71.2825L21.8423 70.617C22.0136 70.6371 39.2659 72.654 58.1812 68.274C69.2735 65.7058 78.7597 61.477 86.3759 55.6985C95.8906 48.4847 102.504 38.817 106.037 26.9677L106.726 27.1492C103.15 39.1397 96.4545 48.9251 86.8148 56.2297C79.1131 62.0686 69.5269 66.3411 58.3311 68.9328C48.4487 71.2153 39.0232 71.7666 32.2136 71.7666Z" fill="#386EE6"/>
<path d="M26.7888 66.3679C23.6659 66.3679 21.8172 66.2234 21.7601 66.2167L21.8244 65.5477C21.9921 65.5612 38.6626 66.8688 57.2889 61.4466C68.2135 58.2666 77.6676 53.4261 85.3836 47.0593C95.0234 39.106 101.972 28.7289 106.034 16.2207L106.715 16.4157C102.611 29.0516 95.5908 39.5329 85.8405 47.5736C78.0459 54.0009 68.499 58.8885 57.4745 62.0954C44.8833 65.7595 33.1736 66.3679 26.7888 66.3679Z" fill="#386EE6"/>
<path d="M24.6617 61.0265C22.8452 61.0265 21.8102 60.966 21.7673 60.9626L21.8173 60.2903C21.9779 60.3004 38.1809 61.2652 56.5716 55.2985C67.3605 51.7991 76.7825 46.6325 84.5735 39.943C94.3132 31.5829 101.522 20.8059 106.005 7.91113L106.683 8.11955C102.158 21.132 94.8771 32.0099 85.0411 40.4506C77.1715 47.2006 67.6639 52.4143 56.7786 55.9405C42.8526 60.4584 30.1686 61.0265 24.6617 61.0265Z" fill="#386EE6"/>
<path d="M22.6203 72.1458C23.3181 72.1458 23.8837 71.6131 23.8837 70.9561C23.8837 70.299 23.3181 69.7664 22.6203 69.7664C21.9226 69.7664 21.3569 70.299 21.3569 70.9561C21.3569 71.6131 21.9226 72.1458 22.6203 72.1458Z" fill="#386EE6"/>
<path d="M22.6203 72.4817C21.7281 72.4817 21 71.7961 21 70.956C21 70.1158 21.7281 69.4302 22.6203 69.4302C23.5125 69.4302 24.2406 70.1158 24.2406 70.956C24.2406 71.7961 23.5161 72.4817 22.6203 72.4817ZM22.6203 70.099C22.1206 70.099 21.7138 70.4821 21.7138 70.9526C21.7138 71.4231 22.1206 71.8062 22.6203 71.8062C23.1199 71.8062 23.5268 71.4231 23.5268 70.9526C23.5268 70.4855 23.1199 70.099 22.6203 70.099Z" fill="white"/>
<path d="M43.5664 72.1458C44.2641 72.1458 44.8298 71.6131 44.8298 70.9561C44.8298 70.299 44.2641 69.7664 43.5664 69.7664C42.8686 69.7664 42.303 70.299 42.303 70.9561C42.303 71.6131 42.8686 72.1458 43.5664 72.1458Z" fill="#386EE6"/>
<path d="M43.5663 72.4817C42.6741 72.4817 41.946 71.7961 41.946 70.956C41.946 70.1158 42.6741 69.4302 43.5663 69.4302C44.4586 69.4302 45.1866 70.1158 45.1866 70.956C45.1866 71.7961 44.4586 72.4817 43.5663 72.4817ZM43.5663 70.099C43.0667 70.099 42.6598 70.4821 42.6598 70.9526C42.6598 71.4231 43.0667 71.8062 43.5663 71.8062C44.066 71.8062 44.4729 71.4231 44.4729 70.9526C44.4729 70.4855 44.066 70.099 43.5663 70.099Z" fill="white"/>
<path d="M64.5089 68.065C65.2066 68.065 65.7723 67.5323 65.7723 66.8753C65.7723 66.2182 65.2066 65.6855 64.5089 65.6855C63.8111 65.6855 63.2455 66.2182 63.2455 66.8753C63.2455 67.5323 63.8111 68.065 64.5089 68.065Z" fill="#386EE6"/>
<path d="M64.5089 68.4012C63.6166 68.4012 62.8885 67.7156 62.8885 66.8754C62.8885 66.0352 63.6166 65.3496 64.5089 65.3496C65.4011 65.3496 66.1291 66.0352 66.1291 66.8754C66.1291 67.7156 65.4047 68.4012 64.5089 68.4012ZM64.5089 66.0184C64.0092 66.0184 63.6023 66.4015 63.6023 66.872C63.6023 67.3425 64.0092 67.7257 64.5089 67.7257C65.0085 67.7257 65.4154 67.3425 65.4154 66.872C65.4189 66.4015 65.0121 66.0184 64.5089 66.0184Z" fill="white"/>
<path d="M85.605 57.8626C86.3027 57.8626 86.8684 57.3299 86.8684 56.6729C86.8684 56.0158 86.3027 55.4832 85.605 55.4832C84.9072 55.4832 84.3416 56.0158 84.3416 56.6729C84.3416 57.3299 84.9072 57.8626 85.605 57.8626Z" fill="#386EE6"/>
<path d="M85.6049 58.1988C84.7127 58.1988 83.9846 57.5132 83.9846 56.673C83.9846 55.8328 84.7127 55.1472 85.6049 55.1472C86.4972 55.1472 87.2252 55.8328 87.2252 56.673C87.2252 57.5132 86.4972 58.1988 85.6049 58.1988ZM85.6049 55.8194C85.1053 55.8194 84.6984 56.2025 84.6984 56.673C84.6984 57.1435 85.1053 57.5266 85.6049 57.5266C86.1046 57.5266 86.5114 57.1435 86.5114 56.673C86.5114 56.2025 86.1046 55.8194 85.6049 55.8194Z" fill="white"/>
<path d="M107.643 27.0545C107.643 27.7132 107.076 28.2442 106.38 28.2442C105.68 28.2442 105.116 27.7098 105.116 27.0545C105.116 26.3957 105.684 25.8647 106.38 25.8647C107.076 25.8647 107.643 26.3991 107.643 27.0545Z" fill="#386EE6"/>
<path d="M106.38 28.5838C105.487 28.5838 104.759 27.8982 104.759 27.058C104.759 26.2178 105.487 25.5322 106.38 25.5322C107.272 25.5322 108 26.2178 108 27.058C108 27.8982 107.272 28.5838 106.38 28.5838ZM106.38 26.201C105.88 26.201 105.473 26.5841 105.473 27.0546C105.473 27.5252 105.88 27.9083 106.38 27.9083C106.879 27.9083 107.286 27.5252 107.286 27.0546C107.286 26.5841 106.879 26.201 106.38 26.201Z" fill="white"/>
<path d="M107.643 16.3851C107.643 17.0438 107.076 17.5748 106.38 17.5748C105.68 17.5748 105.116 17.0405 105.116 16.3851C105.116 15.7264 105.684 15.1954 106.38 15.1954C107.076 15.1954 107.643 15.7298 107.643 16.3851Z" fill="#386EE6"/>
<path d="M106.38 17.9144C105.487 17.9144 104.759 17.2288 104.759 16.3886C104.759 15.5484 105.487 14.8628 106.38 14.8628C107.272 14.8628 108 15.5484 108 16.3886C108 17.2288 107.272 17.9144 106.38 17.9144ZM106.38 15.5316C105.88 15.5316 105.473 15.9147 105.473 16.3852C105.473 16.8557 105.88 17.2388 106.38 17.2388C106.879 17.2388 107.286 16.8557 107.286 16.3852C107.286 15.9147 106.879 15.5316 106.38 15.5316Z" fill="white"/>
<path d="M85.605 48.4303C86.3027 48.4303 86.8684 47.8977 86.8684 47.2406C86.8684 46.5836 86.3027 46.0509 85.605 46.0509C84.9072 46.0509 84.3416 46.5836 84.3416 47.2406C84.3416 47.8977 84.9072 48.4303 85.605 48.4303Z" fill="#386EE6"/>
<path d="M85.6049 48.7663C84.7127 48.7663 83.9846 48.0807 83.9846 47.2405C83.9846 46.4003 84.7127 45.7147 85.6049 45.7147C86.4972 45.7147 87.2252 46.4003 87.2252 47.2405C87.2252 48.0807 86.4972 48.7663 85.6049 48.7663ZM85.6049 46.3869C85.1053 46.3869 84.6984 46.77 84.6984 47.2405C84.6984 47.711 85.1053 48.0941 85.6049 48.0941C86.1046 48.0941 86.5114 47.711 86.5114 47.2405C86.5114 46.77 86.1046 46.3869 85.6049 46.3869Z" fill="white"/>
<path d="M65.7758 59.1101C65.7758 59.7688 65.2084 60.2998 64.5124 60.2998C63.8129 60.2998 63.249 59.7655 63.249 59.1101C63.249 58.4514 63.8165 57.9204 64.5124 57.9204C65.2084 57.9171 65.7758 58.4514 65.7758 59.1101Z" fill="#386EE6"/>
<path d="M64.5089 60.6358C63.6166 60.6358 62.8885 59.9502 62.8885 59.11C62.8885 58.2698 63.6166 57.5842 64.5089 57.5842C65.4011 57.5842 66.1291 58.2698 66.1291 59.11C66.1291 59.9502 65.4047 60.6358 64.5089 60.6358ZM64.5089 58.253C64.0092 58.253 63.6023 58.6361 63.6023 59.1066C63.6023 59.5772 64.0092 59.9603 64.5089 59.9603C65.0085 59.9603 65.4154 59.5772 65.4154 59.1066C65.4189 58.6361 65.0121 58.253 64.5089 58.253Z" fill="white"/>
<path d="M43.5664 66.1422C44.2641 66.1422 44.8298 65.6096 44.8298 64.9525C44.8298 64.2955 44.2641 63.7628 43.5664 63.7628C42.8686 63.7628 42.303 64.2955 42.303 64.9525C42.303 65.6096 42.8686 66.1422 43.5664 66.1422Z" fill="#386EE6"/>
<path d="M43.5663 66.4781C42.6741 66.4781 41.946 65.7925 41.946 64.9523C41.946 64.1121 42.6741 63.4265 43.5663 63.4265C44.4586 63.4265 45.1866 64.1121 45.1866 64.9523C45.1866 65.7925 44.4586 66.4781 43.5663 66.4781ZM43.5663 64.0953C43.0667 64.0953 42.6598 64.4784 42.6598 64.9489C42.6598 65.4194 43.0667 65.8026 43.5663 65.8026C44.066 65.8026 44.4729 65.4194 44.4729 64.9489C44.4729 64.4818 44.066 64.0953 43.5663 64.0953Z" fill="white"/>
<path d="M23.8837 65.6819C23.8837 66.3406 23.3163 66.8716 22.6203 66.8716C21.9208 66.8716 21.3569 66.3372 21.3569 65.6819C21.3569 65.0232 21.9244 64.4922 22.6203 64.4922C23.3198 64.4922 23.8837 65.0265 23.8837 65.6819Z" fill="#386EE6"/>
<path d="M22.6203 67.211C21.7281 67.211 21 66.5254 21 65.6852C21 64.845 21.7281 64.1594 22.6203 64.1594C23.5125 64.1594 24.2406 64.845 24.2406 65.6852C24.2406 66.5254 23.5161 67.211 22.6203 67.211ZM22.6203 64.8282C22.1206 64.8282 21.7138 65.2113 21.7138 65.6818C21.7138 66.1523 22.1206 66.5355 22.6203 66.5355C23.1199 66.5355 23.5268 66.1523 23.5268 65.6818C23.5268 65.2113 23.1199 64.8282 22.6203 64.8282Z" fill="white"/>
<path d="M22.6203 61.9268C23.3181 61.9268 23.8837 61.3941 23.8837 60.7371C23.8837 60.08 23.3181 59.5474 22.6203 59.5474C21.9226 59.5474 21.3569 60.08 21.3569 60.7371C21.3569 61.3941 21.9226 61.9268 22.6203 61.9268Z" fill="#386EE6"/>
<path d="M22.6203 62.2627C21.7281 62.2627 21 61.5771 21 60.737C21 59.8968 21.7281 59.2112 22.6203 59.2112C23.5125 59.2112 24.2406 59.8968 24.2406 60.737C24.2406 61.5771 23.5161 62.2627 22.6203 62.2627ZM22.6203 59.8833C22.1206 59.8833 21.7138 60.2665 21.7138 60.737C21.7138 61.2075 22.1206 61.5906 22.6203 61.5906C23.1199 61.5906 23.5268 61.2075 23.5268 60.737C23.5268 60.2665 23.1199 59.8833 22.6203 59.8833Z" fill="white"/>
<path d="M44.8298 59.1099C44.8298 59.7686 44.2623 60.2996 43.5664 60.2996C42.8669 60.2996 42.303 59.7652 42.303 59.1099C42.303 58.4512 42.8704 57.9202 43.5664 57.9202C44.2623 57.9168 44.8298 58.4512 44.8298 59.1099Z" fill="#386EE6"/>
<path d="M43.5663 60.6358C42.6741 60.6358 41.946 59.9502 41.946 59.11C41.946 58.2698 42.6741 57.5842 43.5663 57.5842C44.4586 57.5842 45.1866 58.2698 45.1866 59.11C45.1866 59.9502 44.4586 60.6358 43.5663 60.6358ZM43.5663 58.253C43.0667 58.253 42.6598 58.6361 42.6598 59.1066C42.6598 59.5772 43.0667 59.9603 43.5663 59.9603C44.066 59.9603 44.4729 59.5772 44.4729 59.1066C44.4729 58.6361 44.066 58.253 43.5663 58.253Z" fill="white"/>
<path d="M64.5089 54.0711C65.2066 54.0711 65.7723 53.5384 65.7723 52.8814C65.7723 52.2243 65.2066 51.6917 64.5089 51.6917C63.8111 51.6917 63.2455 52.2243 63.2455 52.8814C63.2455 53.5384 63.8111 54.0711 64.5089 54.0711Z" fill="#386EE6"/>
<path d="M64.5089 54.407C63.6166 54.407 62.8885 53.7214 62.8885 52.8812C62.8885 52.0411 63.6166 51.3555 64.5089 51.3555C65.4011 51.3555 66.1291 52.0411 66.1291 52.8812C66.1291 53.7214 65.4047 54.407 64.5089 54.407ZM64.5089 52.0276C64.0092 52.0276 63.6023 52.4107 63.6023 52.8812C63.6023 53.3518 64.0092 53.7349 64.5089 53.7349C65.0085 53.7349 65.4154 53.3518 65.4154 52.8812C65.4189 52.4107 65.0121 52.0276 64.5089 52.0276Z" fill="white"/>
<path d="M86.8684 39.6133C86.8684 40.272 86.3009 40.803 85.605 40.803C84.9054 40.803 84.3416 40.2686 84.3416 39.6133C84.3416 38.9546 84.909 38.4236 85.605 38.4236C86.3009 38.4236 86.8684 38.9579 86.8684 39.6133Z" fill="#386EE6"/>
<path d="M85.6049 41.1424C84.7127 41.1424 83.9846 40.4568 83.9846 39.6166C83.9846 38.7764 84.7127 38.0908 85.6049 38.0908C86.4972 38.0908 87.2252 38.7764 87.2252 39.6166C87.2252 40.4568 86.4972 41.1424 85.6049 41.1424ZM85.6049 38.7596C85.1053 38.7596 84.6984 39.1427 84.6984 39.6132C84.6984 40.0837 85.1053 40.4669 85.6049 40.4669C86.1046 40.4669 86.5114 40.0837 86.5114 39.6132C86.5114 39.1427 86.1046 38.7596 85.6049 38.7596Z" fill="white"/>
<path d="M106.38 8.41798C107.077 8.41798 107.643 7.88534 107.643 7.22828C107.643 6.57122 107.077 6.03857 106.38 6.03857C105.682 6.03857 105.116 6.57122 105.116 7.22828C105.116 7.88534 105.682 8.41798 106.38 8.41798Z" fill="#386EE6"/>
<path d="M106.38 8.7542C105.487 8.7542 104.759 8.0686 104.759 7.22842C104.759 6.38823 105.487 5.70264 106.38 5.70264C107.272 5.70264 108 6.38823 108 7.22842C108 8.0686 107.272 8.7542 106.38 8.7542ZM106.38 6.37479C105.88 6.37479 105.473 6.75791 105.473 7.22842C105.473 7.69892 105.88 8.08205 106.38 8.08205C106.879 8.08205 107.286 7.69892 107.286 7.22842C107.286 6.75791 106.879 6.37479 106.38 6.37479Z" fill="white"/>
<path d="M114 80.5551H106.641V78.6846H106.281H105.925H105.565V80.5551H85.9061V78.6846H85.5463H85.1901H84.8303V80.5551H64.8543V78.6846H64.4946H64.1384H63.7786V80.5551H43.9487V78.6846H43.5889H43.2327H42.8729V80.5551H23.043V78.6846H22.6832H22.327H21.9708V80.5551H11.8617V65.9937H13.7317V65.6338V65.2775V64.9177H11.8617V50.3598H13.7317V49.9999V49.6436V49.2838H11.8617V34.7259H13.7317V34.366V34.0097V33.6499H11.8617V19.092H13.7317V18.7321V18.3758V18.0196H11.8617V3.27994H13.7317V2.92009V2.56381V2.20752H8.92297V2.56381V2.92009V3.27994H10.7931V18.0196H8.92297V18.3758V18.7321V19.092H10.7931V33.6499H8.92297V34.0097V34.366V34.7259H10.7931V49.2838H8.92297V49.6436V49.9999V50.3598H10.7931V64.9177H8.92297V65.2775V65.6338V65.9937H10.7931V80.548H8.92297V81.624H10.7931H21.9708V83.4945H22.327H22.6832H23.043V81.624H42.8729V83.4945H43.2327H43.5889H43.9487V81.624H63.7786V83.4945H64.1384H64.4946H64.8543V81.624H84.8303V83.4945H85.1901H85.5463H85.9061V81.624H105.565V83.4945H105.925H106.281H106.641V81.624H114V80.5551Z" fill="#386EE6"/>
</svg>
