<svg width="107" height="85" viewBox="0 0 107 85" fill="none" xmlns="http://www.w3.org/2000/svg">
<path d="M107 75.538H100.093V73.7823H99.7549H99.4205H99.0829V75.538H80.631V73.7823H80.2933H79.959H79.6213V75.538H60.8719V73.7823H60.5343H60.1999H59.8622V75.538H41.2499V73.7823H40.9122H40.5779H40.2402V75.538H21.6279V73.7823H21.2902H20.9559H20.6216V75.538H11.1332V61.8707H12.8884V61.5329V61.1985V60.8607H11.1332V47.1967H12.8884V46.859V46.5246V46.1868H11.1332V32.5228H12.8884V32.1851V31.8507V31.5129H11.1332V17.8489H12.8884V17.5112V17.1767V16.8423H11.1332V3.00779H12.8884V2.67004V2.33563V2.00122H8.37494V2.33563V2.67004V3.00779H10.1302V16.8423H8.37494V17.1767V17.5112V17.8489H10.1302V31.5129H8.37494V31.8507V32.1851V32.5228H10.1302V46.1868H8.37494V46.5246V46.859V47.1967H10.1302V60.8607H8.37494V61.1985V61.5329V61.8707H10.1302V75.5313H8.37494V76.5412H10.1302H20.6216V78.2969H20.9559H21.2902H21.6279V76.5412H40.2402V78.2969H40.5779H40.9122H41.2499V76.5412H59.8622V78.2969H60.1999H60.5343H60.8719V76.5412H79.6213V78.2969H79.959H80.2933H80.631V76.5412H99.0829V78.2969H99.4205H99.7549H100.093V76.5412H107V75.538Z" fill="#386EE6"/>
<path d="M0.304196 2.65259L0.551601 0.274902H2.69467V0.7899H1.03638L0.899307 2.02389C0.989577 1.95366 1.09322 1.89681 1.20355 1.85334C1.31388 1.80986 1.44093 1.78646 1.58469 1.78311C1.9792 1.77977 2.29013 1.9035 2.51413 2.15431C2.73813 2.40512 2.85181 2.75291 2.85181 3.191C2.85181 3.61905 2.73813 3.96349 2.50744 4.22434C2.27676 4.48518 1.94242 4.6156 1.5011 4.6156C1.14003 4.6156 0.835784 4.51528 0.595065 4.31797C0.354345 4.12067 0.237329 3.82973 0.247359 3.44515L0.254046 3.42843H0.775604C0.775604 3.66252 0.842471 3.8431 0.976203 3.97018C1.10994 4.09726 1.28379 4.16414 1.49776 4.16414C1.74182 4.16414 1.93239 4.07719 2.06947 3.90664C2.20655 3.73609 2.27341 3.49866 2.27341 3.19768C2.27341 2.92681 2.20655 2.70609 2.06947 2.53554C1.93239 2.36499 1.74517 2.28139 1.5011 2.28139C1.27376 2.28139 1.10994 2.31483 1.00629 2.38506C0.90265 2.45528 0.829097 2.5623 0.782291 2.70275L0.304196 2.65259Z" fill="white"/>
<path d="M6.23187 3.04468C6.23187 3.52958 6.10817 3.9108 5.8641 4.19505C5.62003 4.4793 5.28904 4.61975 4.87112 4.61975C4.45654 4.61975 4.12554 4.4793 3.87813 4.19505C3.63072 3.9108 3.50702 3.52958 3.50702 3.04468V1.7873C3.50702 1.30575 3.63072 0.924525 3.87479 0.640276C4.11886 0.356028 4.4532 0.215576 4.86443 0.215576C5.27901 0.215576 5.61 0.356028 5.86076 0.640276C6.11151 0.924525 6.23187 1.30575 6.23187 1.7873V3.04468ZM5.65347 1.66691C5.65347 1.35926 5.58326 1.11514 5.44618 0.937901C5.3091 0.760664 5.11518 0.670373 4.86443 0.670373C4.61702 0.670373 4.4231 0.760664 4.28937 0.937901C4.15563 1.11514 4.08542 1.35926 4.08542 1.66691V3.16173C4.08542 3.46938 4.15563 3.7135 4.29271 3.89408C4.42979 4.07466 4.62371 4.16495 4.87112 4.16495C5.12187 4.16495 5.31579 4.07466 5.44952 3.89743C5.58326 3.71685 5.65347 3.47273 5.65347 3.16507V1.66691Z" fill="white"/>
<path d="M2.41389 18.1419H3.00565V18.5932H2.41389V19.5795H1.83549V18.5932H0V18.2656L1.80206 15.3H2.41389V18.1419ZM0.618516 18.1419H1.83549V16.1359L1.81877 16.1325L1.76194 16.2796L0.618516 18.1419Z" fill="white"/>
<path d="M6.23193 18.0732C6.23193 18.5581 6.10823 18.9393 5.86417 19.2236C5.62011 19.5079 5.28912 19.6483 4.87121 19.6483C4.45664 19.6483 4.12565 19.5079 3.87825 19.2236C3.63084 18.9393 3.50714 18.5581 3.50714 18.0732V16.8158C3.50714 16.3342 3.63084 15.953 3.8749 15.6687C4.11897 15.3845 4.44995 15.244 4.86452 15.244C5.27909 15.244 5.61008 15.3845 5.86083 15.6687C6.11158 15.953 6.23193 16.3342 6.23193 16.8158V18.0732ZM5.65354 16.6954C5.65354 16.3877 5.58333 16.1436 5.44626 15.9664C5.30918 15.7891 5.11527 15.6988 4.86452 15.6988C4.61712 15.6988 4.42321 15.7891 4.28947 15.9664C4.15574 16.1436 4.08553 16.3877 4.08553 16.6954V18.1902C4.08553 18.4979 4.15574 18.742 4.29282 18.9226C4.42989 19.1032 4.6238 19.1935 4.87121 19.1935C5.12196 19.1935 5.31587 19.1032 5.4496 18.926C5.58333 18.7454 5.65354 18.5013 5.65354 18.1936V16.6954Z" fill="white"/>
<path d="M1.49125 31.7934C1.74868 31.7934 1.93256 31.7299 2.03955 31.5995C2.14654 31.4725 2.20003 31.2919 2.20003 31.0613C2.20003 30.8473 2.14319 30.6701 2.02618 30.5397C1.90916 30.406 1.73531 30.3424 1.50796 30.3424C1.28396 30.3424 1.10008 30.4126 0.952969 30.5497C0.805862 30.6868 0.735652 30.8607 0.735652 31.0679H0.180659L0.170629 31.0479C0.160599 30.7269 0.280959 30.4528 0.535053 30.2254C0.789146 29.9981 1.11011 29.8844 1.50462 29.8844C1.90247 29.8844 2.2134 29.9847 2.43741 30.1853C2.66141 30.3859 2.77508 30.6801 2.77508 31.0713C2.77508 31.2719 2.72159 31.4524 2.61795 31.6162C2.5143 31.7801 2.3672 31.9105 2.17997 32.0007C2.39394 32.0877 2.56111 32.218 2.67144 32.3919C2.78177 32.5658 2.84195 32.7797 2.84195 33.0271C2.84195 33.4183 2.71825 33.7259 2.47084 33.9499C2.22343 34.1739 1.90247 34.2842 1.50462 34.2842C1.1402 34.2842 0.819236 34.1772 0.541739 33.9633C0.264243 33.7493 0.130509 33.4651 0.140539 33.1141L0.147226 33.0973H0.698876C0.698876 33.3046 0.772429 33.4785 0.922879 33.6222C1.07333 33.766 1.26724 33.8362 1.50462 33.8362C1.73865 33.8362 1.92588 33.7627 2.05961 33.6156C2.19334 33.4684 2.26355 33.2779 2.26355 33.0438C2.26355 32.7764 2.20003 32.5758 2.07633 32.442C1.95262 32.3083 1.75537 32.2414 1.49125 32.2414H1.01315V31.7934H1.49125Z" fill="white"/>
<path d="M6.23193 32.7168C6.23193 33.2017 6.10823 33.583 5.86417 33.8672C5.62011 34.1515 5.28912 34.2919 4.87121 34.2919C4.45664 34.2919 4.12565 34.1515 3.87825 33.8672C3.63084 33.583 3.50714 33.2017 3.50714 32.7168V31.4594C3.50714 30.9779 3.63084 30.5967 3.8749 30.3124C4.11897 30.0281 4.44995 29.8877 4.86452 29.8877C5.27909 29.8877 5.61008 30.0281 5.86083 30.3124C6.11158 30.5967 6.23193 30.9779 6.23193 31.4594V32.7168ZM5.65354 31.3391C5.65354 31.0314 5.58333 30.7873 5.44626 30.61C5.30918 30.4328 5.11527 30.3425 4.86452 30.3425C4.61712 30.3425 4.42321 30.4328 4.28947 30.61C4.15574 30.7873 4.08553 31.0314 4.08553 31.3391V32.8339C4.08553 33.1415 4.15574 33.3857 4.29282 33.5663C4.42989 33.7468 4.6238 33.8371 4.87121 33.8371C5.12196 33.8371 5.31587 33.7468 5.4496 33.5696C5.58333 33.389 5.65354 33.1449 5.65354 32.8372V31.3391Z" fill="white"/>
<path d="M2.88515 48.9548H0.230547V48.5569L1.57457 46.9555C1.81194 46.6646 1.97577 46.4339 2.05935 46.2634C2.14293 46.0929 2.1864 45.9191 2.1864 45.7452C2.1864 45.5479 2.12956 45.3841 2.01254 45.2571C1.89553 45.13 1.73839 45.0665 1.53445 45.0665C1.28035 45.0665 1.08978 45.1434 0.95605 45.2972C0.822316 45.451 0.758793 45.6449 0.758793 45.8756H0.200457L0.19377 45.8589C0.18374 45.5112 0.300757 45.2136 0.54482 44.9729C0.788883 44.7322 1.11653 44.6118 1.53445 44.6118C1.91559 44.6118 2.21649 44.7188 2.43715 44.9294C2.65781 45.1401 2.76479 45.4142 2.76479 45.7486C2.76479 45.9726 2.70127 46.1932 2.57757 46.4105C2.45386 46.6278 2.26329 46.8953 2.0092 47.223L0.929303 48.4867L0.93599 48.5001H2.88515V48.9548Z" fill="white"/>
<path d="M6.23196 47.4437C6.23196 47.9285 6.10825 48.3096 5.86419 48.5938C5.62013 48.878 5.28914 49.0184 4.87122 49.0184C4.45665 49.0184 4.12566 48.878 3.87825 48.5938C3.63084 48.3096 3.50714 47.9285 3.50714 47.4437V46.1866C3.50714 45.7052 3.63084 45.324 3.87491 45.0398C4.11897 44.7557 4.44996 44.6152 4.86453 44.6152C5.27911 44.6152 5.6101 44.7557 5.86085 45.0398C6.1116 45.324 6.23196 45.7052 6.23196 46.1866V47.4437ZM5.65356 46.0662C5.65356 45.7587 5.58335 45.5146 5.44627 45.3374C5.3092 45.1602 5.11528 45.0699 4.86453 45.0699C4.61713 45.0699 4.42321 45.1602 4.28948 45.3374C4.15575 45.5146 4.08554 45.7587 4.08554 46.0662V47.5607C4.08554 47.8683 4.15575 48.1124 4.29282 48.2929C4.4299 48.4734 4.62381 48.5637 4.87122 48.5637C5.12197 48.5637 5.31588 48.4734 5.44962 48.2962C5.58335 48.1157 5.65356 47.8716 5.65356 47.564V46.0662Z" fill="white"/>
<path d="M1.87567 63.5518H1.29393V59.8073L0.361145 59.8173V59.3693L1.87567 59.2122V63.5518Z" fill="white"/>
<path d="M6.23196 62.0406C6.23196 62.5254 6.10825 62.9065 5.86419 63.1907C5.62013 63.4749 5.28914 63.6153 4.87122 63.6153C4.45665 63.6153 4.12566 63.4749 3.87825 63.1907C3.63084 62.9065 3.50714 62.5254 3.50714 62.0406V60.7835C3.50714 60.3021 3.63084 59.9209 3.87491 59.6368C4.11897 59.3526 4.44996 59.2122 4.86453 59.2122C5.27911 59.2122 5.6101 59.3526 5.86085 59.6368C6.1116 59.9209 6.23196 60.3021 6.23196 60.7835V62.0406ZM5.65356 60.6632C5.65356 60.3556 5.58335 60.1115 5.44627 59.9343C5.3092 59.7571 5.11528 59.6669 4.86453 59.6669C4.61713 59.6669 4.42321 59.7571 4.28948 59.9343C4.15575 60.1115 4.08554 60.3556 4.08554 60.6632V62.1576C4.08554 62.4652 4.15575 62.7093 4.29282 62.8898C4.4299 63.0704 4.62381 63.1606 4.87122 63.1606C5.12197 63.1606 5.31588 63.0704 5.44962 62.8932C5.58335 62.7126 5.65356 62.4686 5.65356 62.161V60.6632Z" fill="white"/>
<path d="M2.84509 76.7854C2.84509 77.2703 2.72139 77.6515 2.47733 77.9358C2.23327 78.22 1.90228 78.3605 1.48437 78.3605C1.0698 78.3605 0.738811 78.22 0.491407 77.9358C0.244003 77.6515 0.1203 77.2703 0.1203 76.7854V75.528C0.1203 75.0465 0.244003 74.6652 0.488064 74.381C0.732125 74.0968 1.06311 73.9563 1.47768 73.9563C1.89225 73.9563 2.22324 74.0968 2.47399 74.381C2.72473 74.6652 2.84509 75.0465 2.84509 75.528V76.7854ZM2.2667 75.4076C2.2667 75.1 2.19649 74.8559 2.05942 74.6786C1.92234 74.5014 1.72843 74.4111 1.47768 74.4111C1.23028 74.4111 1.03637 74.5014 0.902633 74.6786C0.768901 74.8559 0.698692 75.1 0.698692 75.4076V76.9025C0.698692 77.2101 0.768901 77.4542 0.905977 77.6348C1.04305 77.8154 1.23696 77.9057 1.48437 77.9057C1.73512 77.9057 1.92903 77.8154 2.06276 77.6382C2.19649 77.4576 2.2667 77.2135 2.2667 76.9058V75.4076Z" fill="white"/>
<path d="M6.23193 76.7854C6.23193 77.2703 6.10823 77.6515 5.86417 77.9358C5.62011 78.22 5.28912 78.3605 4.87121 78.3605C4.45664 78.3605 4.12565 78.22 3.87825 77.9358C3.63084 77.6515 3.50714 77.2703 3.50714 76.7854V75.528C3.50714 75.0465 3.63084 74.6652 3.8749 74.381C4.11897 74.0968 4.44995 73.9563 4.86452 73.9563C5.27909 73.9563 5.61008 74.0968 5.86083 74.381C6.11158 74.6652 6.23193 75.0465 6.23193 75.528V76.7854ZM5.65354 75.4076C5.65354 75.1 5.58333 74.8559 5.44626 74.6786C5.30918 74.5014 5.11527 74.4111 4.86452 74.4111C4.61712 74.4111 4.42321 74.5014 4.28947 74.6786C4.15574 74.8559 4.08553 75.1 4.08553 75.4076V76.9025C4.08553 77.2101 4.15574 77.4542 4.29282 77.6348C4.42989 77.8154 4.6238 77.9057 4.87121 77.9057C5.12196 77.9057 5.31587 77.8154 5.4496 77.6382C5.58333 77.4576 5.65354 77.2135 5.65354 76.9058V75.4076Z" fill="white"/>
<path d="M20.6351 83.3164C20.6351 83.8013 20.5114 84.1825 20.2674 84.4668C20.0233 84.751 19.6923 84.8915 19.2744 84.8915C18.8598 84.8915 18.5289 84.751 18.2814 84.4668C18.034 84.1825 17.9103 83.8013 17.9103 83.3164V82.059C17.9103 81.5775 18.034 81.1963 18.2781 80.912C18.5222 80.6278 18.8532 80.4873 19.2677 80.4873C19.6823 80.4873 20.0133 80.6278 20.264 80.912C20.5148 81.1963 20.6351 81.5775 20.6351 82.059V83.3164ZM20.0534 81.9386C20.0534 81.631 19.9832 81.3869 19.8461 81.2096C19.709 81.0324 19.5151 80.9421 19.2644 80.9421C19.017 80.9421 18.8231 81.0324 18.6893 81.2096C18.5556 81.3869 18.4854 81.631 18.4854 81.9386V83.4335C18.4854 83.7411 18.5556 83.9852 18.6927 84.1658C18.8297 84.3464 19.0237 84.4367 19.2711 84.4367C19.5218 84.4367 19.7157 84.3464 19.8495 84.1692C19.9832 83.9886 20.0534 83.7445 20.0534 83.4368V81.9386Z" fill="white"/>
<path d="M23.0524 84.827H22.4706V81.0824L21.5378 81.0925V80.6444L23.0524 80.4873V84.827Z" fill="white"/>
<path d="M40.5312 83.3159C40.5312 83.8007 40.4075 84.1818 40.1634 84.466C39.9194 84.7502 39.5884 84.8906 39.1705 84.8906C38.7559 84.8906 38.4249 84.7502 38.1775 84.466C37.9301 84.1818 37.8064 83.8007 37.8064 83.3159V82.0588C37.8064 81.5774 37.9301 81.1962 38.1742 80.912C38.4182 80.6278 38.7492 80.4874 39.1638 80.4874C39.5784 80.4874 39.9094 80.6278 40.1601 80.912C40.4109 81.1962 40.5312 81.5774 40.5312 82.0588V83.3159ZM39.9528 81.9384C39.9528 81.6308 39.8826 81.3868 39.7455 81.2096C39.6085 81.0324 39.4145 80.9421 39.1638 80.9421C38.9164 80.9421 38.7225 81.0324 38.5887 81.2096C38.455 81.3868 38.3848 81.6308 38.3848 81.9384V83.4329C38.3848 83.7405 38.455 83.9846 38.5921 84.1651C38.7292 84.3456 38.9231 84.4359 39.1705 84.4359C39.4212 84.4359 39.6151 84.3456 39.7489 84.1684C39.8826 83.9879 39.9528 83.7438 39.9528 83.4362V81.9384Z" fill="white"/>
<path d="M43.958 84.827H41.3001V84.4291L42.6441 82.8277C42.8815 82.5368 43.0453 82.3061 43.1289 82.1356C43.2125 81.9651 43.2559 81.7913 43.2559 81.6174C43.2559 81.4201 43.1991 81.2563 43.0821 81.1293C42.965 81.0022 42.8079 80.9387 42.604 80.9387C42.3499 80.9387 42.1593 81.0156 42.0256 81.1694C41.8918 81.3232 41.8283 81.5171 41.8283 81.7478H41.27L41.2633 81.7311C41.2533 81.3834 41.3703 81.0858 41.6143 80.8451C41.8584 80.6044 42.186 80.484 42.604 80.484C42.9851 80.484 43.286 80.591 43.5067 80.8016C43.7273 81.0123 43.8343 81.2864 43.8343 81.6207C43.8343 81.8447 43.7708 82.0654 43.6471 82.2827C43.5234 82.5 43.3328 82.7675 43.0787 83.0951L41.9988 84.3589L42.0055 84.3723H43.9547V84.827H43.958Z" fill="white"/>
<path d="M59.9059 83.3164C59.9059 83.8013 59.7822 84.1825 59.5381 84.4668C59.294 84.751 58.9631 84.8915 58.5451 84.8915C58.1306 84.8915 57.7996 84.751 57.5521 84.4668C57.3047 84.1825 57.181 83.8013 57.181 83.3164V82.059C57.181 81.5775 57.3047 81.1963 57.5488 80.912C57.7929 80.6278 58.1239 80.4873 58.5384 80.4873C58.953 80.4873 59.284 80.6278 59.5348 80.912C59.7855 81.1963 59.9059 81.5775 59.9059 82.059V83.3164ZM59.3275 81.9386C59.3275 81.631 59.2573 81.3869 59.1202 81.2096C58.9831 81.0324 58.7892 80.9421 58.5384 80.9421C58.291 80.9421 58.0971 81.0324 57.9634 81.2096C57.8296 81.3869 57.7594 81.631 57.7594 81.9386V83.4335C57.7594 83.7411 57.8296 83.9852 57.9667 84.1658C58.1038 84.3464 58.2977 84.4367 58.5451 84.4367C58.7959 84.4367 58.9898 84.3464 59.1235 84.1692C59.2573 83.9886 59.3275 83.7445 59.3275 83.4368V81.9386Z" fill="white"/>
<path d="M61.9419 82.393C62.1994 82.393 62.3833 82.3295 62.4902 82.1991C62.5972 82.072 62.6507 81.8915 62.6507 81.6608C62.6507 81.4468 62.5939 81.2696 62.4769 81.1393C62.3599 81.0055 62.186 80.942 61.9587 80.942C61.7347 80.942 61.5508 81.0122 61.4037 81.1493C61.2566 81.2864 61.1863 81.4602 61.1863 81.6675H60.6347L60.6247 81.6508C60.6146 81.3298 60.735 81.0557 60.9891 80.8283C61.2432 80.601 61.5641 80.4873 61.9587 80.4873C62.3565 80.4873 62.6674 80.5876 62.8914 80.7882C63.1155 80.9888 63.2291 81.283 63.2291 81.6742C63.2291 81.8748 63.1756 82.0553 63.072 82.2192C62.9683 82.383 62.8212 82.5134 62.634 82.6036C62.848 82.6906 63.0151 82.8209 63.1255 82.9948C63.2358 83.1687 63.296 83.3826 63.296 83.63C63.296 84.0212 63.1723 84.3288 62.9249 84.5528C62.6775 84.7768 62.3565 84.8871 61.9587 84.8871C61.5942 84.8871 61.2733 84.7801 60.9958 84.5662C60.7183 84.3522 60.5846 84.068 60.5946 83.717L60.6013 83.7002H61.1529C61.1529 83.9075 61.2265 84.0814 61.3769 84.2252C61.5274 84.3689 61.7213 84.4391 61.9587 84.4391C62.1927 84.4391 62.3799 84.3656 62.5136 84.2185C62.6474 84.0714 62.7176 83.8808 62.7176 83.6468C62.7176 83.3793 62.6541 83.1787 62.5304 83.045C62.4067 82.9112 62.2094 82.8444 61.9453 82.8444H61.4705V82.3963H61.9419V82.393Z" fill="white"/>
<path d="M79.7953 83.3164C79.7953 83.8013 79.6716 84.1825 79.4276 84.4668C79.1835 84.751 78.8525 84.8915 78.4346 84.8915C78.0201 84.8915 77.6891 84.751 77.4417 84.4668C77.1943 84.1825 77.0706 83.8013 77.0706 83.3164V82.059C77.0706 81.5775 77.1943 81.1963 77.4383 80.912C77.6824 80.6278 78.0134 80.4873 78.4279 80.4873C78.8425 80.4873 79.1735 80.6278 79.4242 80.912C79.675 81.1963 79.7953 81.5775 79.7953 82.059V83.3164ZM79.217 81.9386C79.217 81.631 79.1468 81.3869 79.0097 81.2096C78.8726 81.0324 78.6787 80.9421 78.4279 80.9421C78.1805 80.9421 77.9866 81.0324 77.8529 81.2096C77.7192 81.3869 77.6489 81.631 77.6489 81.9386V83.4335C77.6489 83.7411 77.7192 83.9852 77.8562 84.1658C77.9933 84.3464 78.1872 84.4367 78.4346 84.4367C78.6854 84.4367 78.8793 84.3464 79.013 84.1692C79.1467 83.9886 79.217 83.7445 79.217 83.4368V81.9386Z" fill="white"/>
<path d="M82.7541 83.386H83.3459V83.8374H82.7541V84.8236H82.1791V83.8374H80.3436V83.5097L82.1456 80.5442H82.7575V83.386H82.7541ZM80.9587 83.386H82.1757V81.38L82.159 81.3767L82.1022 81.5238L80.9587 83.386Z" fill="white"/>
<path d="M99.3436 83.3164C99.3436 83.8013 99.2199 84.1825 98.9759 84.4668C98.7318 84.751 98.4008 84.8915 97.9829 84.8915C97.5683 84.8915 97.2374 84.751 96.9899 84.4668C96.7425 84.1825 96.6188 83.8013 96.6188 83.3164V82.059C96.6188 81.5775 96.7425 81.1963 96.9866 80.912C97.2307 80.6278 97.5616 80.4873 97.9762 80.4873C98.3908 80.4873 98.7218 80.6278 98.9725 80.912C99.2233 81.1963 99.3436 81.5775 99.3436 82.059V83.3164ZM98.7652 81.9386C98.7652 81.631 98.695 81.3869 98.558 81.2096C98.4209 81.0324 98.227 80.9421 97.9762 80.9421C97.7288 80.9421 97.5349 81.0324 97.4012 81.2096C97.2674 81.3869 97.1972 81.631 97.1972 81.9386V83.4335C97.1972 83.7411 97.2674 83.9852 97.4045 84.1658C97.5416 84.3464 97.7355 84.4367 97.9829 84.4367C98.2337 84.4367 98.4276 84.3464 98.5613 84.1692C98.695 83.9886 98.7652 83.7445 98.7652 83.4368V81.9386Z" fill="white"/>
<path d="M100.19 82.9246L100.437 80.5475H102.58V81.0624H100.925L100.788 82.2927C100.882 82.2225 100.982 82.169 101.092 82.1222C101.203 82.0787 101.33 82.0553 101.473 82.052C101.868 82.0486 102.179 82.1723 102.403 82.4231C102.627 82.6738 102.741 83.0215 102.741 83.4595C102.741 83.8875 102.627 84.2318 102.396 84.4926C102.165 84.7534 101.831 84.8838 101.39 84.8838C101.029 84.8838 100.725 84.7835 100.484 84.5862C100.243 84.389 100.126 84.0981 100.136 83.7136L100.143 83.6969H100.664C100.664 83.9309 100.731 84.1115 100.865 84.2385C100.999 84.3656 101.173 84.4324 101.386 84.4324C101.631 84.4324 101.821 84.3455 101.958 84.175C102.095 84.0045 102.162 83.7671 102.162 83.4662C102.162 83.1954 102.095 82.9747 101.958 82.8042C101.821 82.6337 101.634 82.5501 101.39 82.5501C101.162 82.5501 100.999 82.5836 100.895 82.6538C100.791 82.724 100.718 82.8276 100.668 82.9714L100.19 82.9246Z" fill="white"/>
<path d="M80.0097 65.5948L59.6581 36.4642L40.3801 21.6969L19.5653 51.3332L19.2841 51.1398L40.3046 21.2082L59.9256 36.2503L79.9171 64.8685L100.553 10.361L100.876 10.4831L80.0097 65.5948Z" fill="#386EE6"/>
<path d="M20.9993 51.4688C20.8689 52.3273 20.0628 52.9211 19.1915 52.7955C18.3237 52.6666 17.7234 51.8692 17.8503 51.0073C17.9807 50.1488 18.7868 49.555 19.658 49.6806C20.5259 49.8061 21.1262 50.6069 20.9993 51.4688Z" fill="white"/>
<path d="M41.9373 21.6833C41.807 22.5417 41.0009 23.1356 40.1296 23.01C39.2583 22.8845 38.6615 22.0837 38.7884 21.2218C38.9187 20.3633 39.7248 19.7695 40.5961 19.895C41.464 20.024 42.0643 20.8248 41.9373 21.6833Z" fill="white"/>
<path d="M61.3596 36.5761C61.2292 37.4346 60.4231 38.0284 59.5518 37.9028C58.684 37.7739 58.0837 36.9765 58.2106 36.1146C58.3409 35.2561 59.147 34.6623 60.0183 34.7879C60.8862 34.9168 61.4865 35.7176 61.3596 36.5761Z" fill="white"/>
<path d="M81.5396 65.4623C81.4093 66.3208 80.6032 66.9146 79.7319 66.789C78.864 66.6601 78.2637 65.8627 78.3907 65.0008C78.5176 64.1389 79.3271 63.5485 80.1984 63.6741C81.0697 63.7996 81.6665 64.6038 81.5396 65.4623Z" fill="white"/>
<path d="M102.289 10.6527C102.159 11.5112 101.353 12.105 100.481 11.9795C99.6136 11.8506 99.0133 11.0531 99.1402 10.1913C99.2706 9.33279 100.077 8.73898 100.948 8.86453C101.819 8.99347 102.42 9.79427 102.289 10.6527Z" fill="white"/>
</svg>
