<svg width="245" height="192" viewBox="0 0 245 192" fill="none" xmlns="http://www.w3.org/2000/svg">
<path d="M64.7167 94.827L36.9373 140.548L31.6208 147.991H243.214V23.587L217.208 62.9285L198.885 35.2831L168.151 90.5738L143.918 71.4347L116.729 125.662L93.0872 94.827L72.4004 109.713L64.7167 94.827Z" fill="white"/>
<path d="M31.6208 147.991L64.7167 94.827L72.4004 109.713L93.0872 94.827L116.729 125.662L143.918 71.4347L168.151 90.5738L198.885 35.2831L217.208 62.9285L243.214 23.587" stroke="#386EE6" stroke-width="2"/>
<path d="M1.47552 5.71587L2.03606 0.330078H6.89161V1.49662H3.13443L2.82386 4.29177C3.02838 4.1327 3.26321 4.00393 3.51318 3.90545C3.76315 3.80698 4.051 3.75395 4.37672 3.74638C5.27057 3.7388 5.97504 4.01908 6.48256 4.5872C6.99008 5.15532 7.24763 5.94311 7.24763 6.93543C7.24763 7.90502 6.99008 8.68524 6.46741 9.27609C5.94474 9.86693 5.18724 10.1624 4.18735 10.1624C3.36925 10.1624 2.67993 9.93511 2.13454 9.48819C1.58914 9.04127 1.32402 8.38225 1.34674 7.51113L1.36189 7.47325H2.54359C2.54359 8.0035 2.69508 8.41255 2.99808 8.70039C3.30108 8.98824 3.69498 9.13974 4.17977 9.13974C4.73275 9.13974 5.16452 8.94279 5.47509 8.55647C5.78566 8.17015 5.93716 7.63233 5.93716 6.95058C5.93716 6.33701 5.78566 5.83706 5.47509 5.45074C5.16452 5.06442 4.74032 4.87505 4.18735 4.87505C3.67225 4.87505 3.30108 4.9508 3.06626 5.10987C2.83143 5.26894 2.66478 5.51134 2.55874 5.82949L1.47552 5.71587Z" fill="white"/>
<path d="M14.9057 6.60317C14.9057 7.70154 14.6254 8.56508 14.0725 9.20895C13.5195 9.85282 12.7696 10.171 11.8227 10.171C10.8834 10.171 10.1335 9.85282 9.57294 9.20895C9.01239 8.56508 8.73212 7.70154 8.73212 6.60317V3.75499C8.73212 2.6642 9.01239 1.80065 9.56536 1.15678C10.1183 0.512911 10.8758 0.194763 11.8075 0.194763C12.7468 0.194763 13.4968 0.512911 14.0649 1.15678C14.633 1.80065 14.9057 2.6642 14.9057 3.75499V6.60317ZM13.5952 3.48229C13.5952 2.7854 13.4362 2.23242 13.1256 1.83095C12.815 1.42948 12.3757 1.22496 11.8075 1.22496C11.247 1.22496 10.8077 1.42948 10.5047 1.83095C10.2017 2.23242 10.0426 2.7854 10.0426 3.48229V6.86829C10.0426 7.56519 10.2017 8.11816 10.5122 8.5272C10.8228 8.93625 11.2621 9.14078 11.8227 9.14078C12.3908 9.14078 12.8302 8.93625 13.1332 8.53478C13.4362 8.12573 13.5952 7.57276 13.5952 6.87587V3.48229Z" fill="white"/>
<path d="M6.25476 40.8032H7.59552V41.8258H6.25476V44.0604H4.94429V41.8258H0.785645V41.0835L4.86854 34.3645H6.25476V40.8032ZM2.18701 40.8032H4.94429V36.2582L4.90642 36.2507L4.77764 36.584L2.18701 40.8032Z" fill="white"/>
<path d="M14.9053 40.645C14.9053 41.7433 14.6251 42.6069 14.0721 43.2508C13.5191 43.8946 12.7692 44.2128 11.8223 44.2128C10.883 44.2128 10.1331 43.8946 9.57257 43.2508C9.01202 42.6069 8.73175 41.7433 8.73175 40.645V37.7968C8.73175 36.706 9.01202 35.8425 9.56499 35.1986C10.118 34.5547 10.8679 34.2366 11.8072 34.2366C12.7465 34.2366 13.4964 34.5547 14.0645 35.1986C14.6326 35.8425 14.9053 36.706 14.9053 37.7968V40.645ZM13.5949 37.5241C13.5949 36.8272 13.4358 36.2742 13.1252 35.8728C12.8146 35.4713 12.3753 35.2668 11.8072 35.2668C11.2466 35.2668 10.8073 35.4713 10.5043 35.8728C10.2013 36.2742 10.0422 36.8272 10.0422 37.5241V40.9101C10.0422 41.607 10.2013 42.16 10.5119 42.569C10.8224 42.9781 11.2618 43.1826 11.8223 43.1826C12.3904 43.1826 12.8298 42.9781 13.1328 42.5766C13.4358 42.1675 13.5949 41.6146 13.5949 40.9177V37.5241Z" fill="white"/>
<path d="M4.16382 71.725C4.74709 71.725 5.16372 71.581 5.40611 71.2856C5.64851 70.9978 5.76971 70.5887 5.76971 70.066C5.76971 69.5812 5.64094 69.1798 5.37581 68.8843C5.11069 68.5813 4.71679 68.4374 4.2017 68.4374C3.69418 68.4374 3.27755 68.5965 2.94426 68.9071C2.61096 69.2176 2.45189 69.6115 2.45189 70.0812H1.19444L1.17172 70.0357C1.14899 69.3085 1.42169 68.6874 1.99739 68.1723C2.57308 67.6572 3.30028 67.3997 4.19412 67.3997C5.09554 67.3997 5.80001 67.6269 6.30753 68.0814C6.81505 68.5359 7.0726 69.2025 7.0726 70.0888C7.0726 70.5433 6.9514 70.9523 6.71658 71.3235C6.48176 71.6947 6.14846 71.9901 5.72426 72.1946C6.20906 72.3915 6.58781 72.687 6.83778 73.0809C7.08775 73.4748 7.2241 73.9596 7.2241 74.5201C7.2241 75.4064 6.94383 76.1033 6.38328 76.6108C5.82274 77.1183 5.09554 77.3683 4.19412 77.3683C3.36845 77.3683 2.64126 77.1259 2.01254 76.6411C1.38382 76.1563 1.08082 75.5124 1.10355 74.7171L1.11869 74.6792H2.36856C2.36856 75.1488 2.53521 75.5427 2.87608 75.8684C3.21695 76.1942 3.6563 76.3532 4.19412 76.3532C4.72437 76.3532 5.14857 76.1866 5.45156 75.8533C5.75456 75.52 5.91364 75.0882 5.91364 74.558C5.91364 73.952 5.76971 73.4975 5.48944 73.1945C5.20917 72.8915 4.76224 72.74 4.16382 72.74H3.08061V71.725H4.16382Z" fill="white"/>
<path d="M14.9048 73.8156C14.9048 74.914 14.6246 75.7775 14.0716 76.4214C13.5186 77.0653 12.7687 77.3834 11.8218 77.3834C10.8825 77.3834 10.1326 77.0653 9.57208 76.4214C9.01154 75.7775 8.73126 74.914 8.73126 73.8156V70.9674C8.73126 69.8767 9.01154 69.0131 9.56451 68.3692C10.1175 67.7254 10.8674 67.4072 11.8067 67.4072C12.746 67.4072 13.4959 67.7254 14.064 68.3692C14.6321 69.0131 14.9048 69.8767 14.9048 70.9674V73.8156ZM13.5944 70.6948C13.5944 69.9979 13.4353 69.4449 13.1247 69.0434C12.8142 68.6419 12.3748 68.4374 11.8067 68.4374C11.2461 68.4374 10.8068 68.6419 10.5038 69.0434C10.2008 69.4449 10.0417 69.9979 10.0417 70.6948V74.0808C10.0417 74.7776 10.2008 75.3306 10.5114 75.7397C10.8219 76.1487 11.2613 76.3532 11.8218 76.3532C12.39 76.3532 12.8293 76.1487 13.1323 75.7472C13.4353 75.3382 13.5944 74.7852 13.5944 74.0883V70.6948Z" fill="white"/>
<path d="M7.32299 110.6H1.30849V109.698L4.35361 106.07C4.89144 105.411 5.26261 104.888 5.45198 104.502C5.64136 104.115 5.73983 103.722 5.73983 103.328C5.73983 102.881 5.61106 102.51 5.34593 102.222C5.08081 101.934 4.72479 101.79 4.26272 101.79C3.68702 101.79 3.25525 101.964 2.95225 102.313C2.64925 102.661 2.50533 103.1 2.50533 103.623H1.24031L1.22516 103.585C1.20244 102.797 1.46756 102.123 2.02053 101.578C2.5735 101.032 3.31585 100.76 4.26272 100.76C5.12626 100.76 5.808 101.002 6.30795 101.479C6.8079 101.957 7.0503 102.578 7.0503 103.335C7.0503 103.843 6.90637 104.343 6.6261 104.835C6.34583 105.327 5.91405 105.933 5.33836 106.676L2.89165 109.539L2.9068 109.569H7.32299V110.6Z" fill="white"/>
<path d="M14.9058 107.176C14.9058 108.274 14.6255 109.138 14.0726 109.782C13.5196 110.425 12.7697 110.744 11.8228 110.744C10.8835 110.744 10.1336 110.425 9.57306 109.782C9.01251 109.138 8.73224 108.274 8.73224 107.176V104.328C8.73224 103.237 9.01251 102.373 9.56548 101.729C10.1185 101.085 10.8684 100.767 11.8077 100.767C12.747 100.767 13.4969 101.085 14.065 101.729C14.6331 102.373 14.9058 103.237 14.9058 104.328V107.176ZM13.5954 104.055C13.5954 103.358 13.4363 102.805 13.1257 102.404C12.8151 102.002 12.3758 101.798 11.8077 101.798C11.2471 101.798 10.8078 102.002 10.5048 102.404C10.2018 102.805 10.0427 103.358 10.0427 104.055V107.441C10.0427 108.138 10.2018 108.691 10.5124 109.1C10.8229 109.509 11.2623 109.713 11.8228 109.713C12.3909 109.713 12.8303 109.509 13.1333 109.107C13.4363 108.698 13.5954 108.145 13.5954 107.448V104.055Z" fill="white"/>
<path d="M5.03533 143.664H3.71729V135.18L1.60388 135.203V134.188L5.03533 133.832V143.664Z" fill="white"/>
<path d="M14.9052 140.24C14.9052 141.339 14.6249 142.202 14.072 142.846C13.519 143.49 12.7691 143.808 11.8222 143.808C10.8829 143.808 10.133 143.49 9.57245 142.846C9.0119 142.202 8.73163 141.339 8.73163 140.24V137.392C8.73163 136.301 9.0119 135.438 9.56487 134.794C10.1178 134.15 10.8678 133.832 11.8071 133.832C12.7464 133.832 13.4963 134.15 14.0644 134.794C14.6325 135.438 14.9052 136.301 14.9052 137.392V140.24ZM13.5947 137.119C13.5947 136.423 13.4357 135.87 13.1251 135.468C12.8145 135.067 12.3752 134.862 11.8071 134.862C11.2465 134.862 10.8072 135.067 10.5042 135.468C10.2012 135.87 10.0421 136.423 10.0421 137.119V140.505C10.0421 141.202 10.2012 141.755 10.5117 142.164C10.8223 142.573 11.2617 142.778 11.8222 142.778C12.3903 142.778 12.8297 142.573 13.1327 142.172C13.4357 141.763 13.5947 141.21 13.5947 140.513V137.119Z" fill="white"/>
<path d="M7.2323 173.638C7.2323 174.737 6.95202 175.6 6.39905 176.244C5.84608 176.888 5.09616 177.206 4.14929 177.206C3.21 177.206 2.46008 176.888 1.89953 176.244C1.33899 175.6 1.05872 174.737 1.05872 173.638V170.79C1.05872 169.699 1.33899 168.836 1.89196 168.192C2.44493 167.548 3.19485 167.23 4.13414 167.23C5.07344 167.23 5.82336 167.548 6.39148 168.192C6.9596 168.836 7.2323 169.699 7.2323 170.79V173.638ZM5.92183 170.517C5.92183 169.82 5.76276 169.268 5.45218 168.866C5.14161 168.465 4.70227 168.26 4.13414 168.26C3.5736 168.26 3.13425 168.465 2.83125 168.866C2.52826 169.268 2.36918 169.82 2.36918 170.517V173.903C2.36918 174.6 2.52826 175.153 2.83883 175.562C3.1494 175.971 3.58875 176.176 4.14929 176.176C4.71742 176.176 5.15676 175.971 5.45976 175.57C5.76276 175.161 5.92183 174.608 5.92183 173.911V170.517Z" fill="white"/>
<path d="M14.9058 173.638C14.9058 174.737 14.6255 175.6 14.0725 176.244C13.5195 176.888 12.7696 177.206 11.8228 177.206C10.8835 177.206 10.1335 176.888 9.573 176.244C9.01245 175.6 8.73218 174.737 8.73218 173.638V170.79C8.73218 169.699 9.01245 168.836 9.56542 168.192C10.1184 167.548 10.8683 167.23 11.8076 167.23C12.7469 167.23 13.4968 167.548 14.0649 168.192C14.6331 168.836 14.9058 169.699 14.9058 170.79V173.638ZM13.5953 170.517C13.5953 169.82 13.4362 169.268 13.1256 168.866C12.8151 168.465 12.3757 168.26 11.8076 168.26C11.2471 168.26 10.8077 168.465 10.5047 168.866C10.2017 169.268 10.0426 169.82 10.0426 170.517V173.903C10.0426 174.6 10.2017 175.153 10.5123 175.562C10.8229 175.971 11.2622 176.176 11.8228 176.176C12.3909 176.176 12.8302 175.971 13.1332 175.57C13.4362 175.161 13.5953 174.608 13.5953 173.911V170.517Z" fill="white"/>
<path d="M47.5385 188.433C47.5385 189.531 47.2582 190.395 46.7052 191.039C46.1522 191.683 45.4023 192.001 44.4554 192.001C43.5162 192.001 42.7662 191.683 42.2057 191.039C41.6451 190.395 41.3649 189.531 41.3649 188.433V185.585C41.3649 184.494 41.6451 183.631 42.1981 182.987C42.7511 182.343 43.501 182.025 44.4403 182.025C45.3796 182.025 46.1295 182.343 46.6976 182.987C47.2658 183.631 47.5385 184.494 47.5385 185.585V188.433ZM46.2204 185.312C46.2204 184.615 46.0613 184.062 45.7508 183.661C45.4402 183.259 45.0008 183.055 44.4327 183.055C43.8722 183.055 43.4328 183.259 43.1298 183.661C42.8268 184.062 42.6678 184.615 42.6678 185.312V188.698C42.6678 189.395 42.8268 189.948 43.1374 190.357C43.448 190.766 43.8873 190.971 44.4479 190.971C45.016 190.971 45.4553 190.766 45.7583 190.365C46.0613 189.956 46.2204 189.403 46.2204 188.706V185.312Z" fill="white"/>
<path d="M53.0148 191.856H51.6968V183.372L49.5834 183.395V182.38L53.0148 182.024V191.856Z" fill="white"/>
<path d="M92.6169 188.432C92.6169 189.53 92.3366 190.394 91.7836 191.038C91.2307 191.682 90.4807 192 89.5339 192C88.5946 192 87.8447 191.682 87.2841 191.038C86.7236 190.394 86.4433 189.53 86.4433 188.432V185.584C86.4433 184.493 86.7236 183.63 87.2765 182.986C87.8295 182.342 88.5794 182.024 89.5187 182.024C90.458 182.024 91.2079 182.342 91.7761 182.986C92.3442 183.63 92.6169 184.493 92.6169 185.584V188.432ZM91.3064 185.311C91.3064 184.614 91.1473 184.061 90.8368 183.66C90.5262 183.258 90.0868 183.054 89.5187 183.054C88.9582 183.054 88.5188 183.258 88.2158 183.66C87.9128 184.061 87.7538 184.614 87.7538 185.311V188.697C87.7538 189.394 87.9128 189.947 88.2234 190.356C88.534 190.765 88.9733 190.97 89.5339 190.97C90.102 190.97 90.5413 190.765 90.8443 190.364C91.1473 189.955 91.3064 189.402 91.3064 188.705V185.311Z" fill="white"/>
<path d="M100.381 191.856H94.3588V190.955L97.4039 187.326C97.9417 186.667 98.3129 186.145 98.5023 185.758C98.6916 185.372 98.7901 184.978 98.7901 184.584C98.7901 184.137 98.6614 183.766 98.3962 183.478C98.1311 183.19 97.7751 183.046 97.313 183.046C96.7373 183.046 96.3055 183.221 96.0025 183.569C95.6995 183.918 95.5556 184.357 95.5556 184.88H94.2906L94.2755 184.842C94.2527 184.054 94.5179 183.38 95.0708 182.834C95.6238 182.289 96.3661 182.016 97.313 182.016C98.1766 182.016 98.8583 182.259 99.3582 182.736C99.8582 183.213 100.101 183.834 100.101 184.592C100.101 185.099 99.9567 185.599 99.6764 186.092C99.3961 186.584 98.9644 187.19 98.3887 187.932L95.9419 190.796L95.9571 190.826H100.373V191.856H100.381Z" fill="white"/>
<path d="M136.514 188.433C136.514 189.531 136.233 190.395 135.68 191.039C135.127 191.683 134.378 192.001 133.431 192.001C132.491 192.001 131.741 191.683 131.181 191.039C130.62 190.395 130.34 189.531 130.34 188.433V185.585C130.34 184.494 130.62 183.631 131.173 182.987C131.726 182.343 132.476 182.025 133.416 182.025C134.355 182.025 135.105 182.343 135.673 182.987C136.241 183.631 136.514 184.494 136.514 185.585V188.433ZM135.203 185.312C135.203 184.615 135.044 184.062 134.734 183.661C134.423 183.259 133.984 183.055 133.416 183.055C132.855 183.055 132.416 183.259 132.113 183.661C131.81 184.062 131.651 184.615 131.651 185.312V188.698C131.651 189.395 131.81 189.948 132.12 190.357C132.431 190.766 132.87 190.971 133.431 190.971C133.999 190.971 134.438 190.766 134.741 190.365C135.044 189.956 135.203 189.403 135.203 188.706V185.312Z" fill="white"/>
<path d="M141.127 186.341C141.71 186.341 142.127 186.197 142.369 185.902C142.611 185.614 142.733 185.205 142.733 184.682C142.733 184.198 142.604 183.796 142.339 183.501C142.074 183.198 141.68 183.054 141.165 183.054C140.657 183.054 140.24 183.213 139.907 183.524C139.574 183.834 139.415 184.228 139.415 184.698H138.165L138.142 184.66C138.119 183.933 138.392 183.311 138.968 182.796C139.544 182.281 140.271 182.024 141.165 182.024C142.066 182.024 142.77 182.251 143.278 182.705C143.786 183.16 144.043 183.827 144.043 184.713C144.043 185.167 143.922 185.576 143.687 185.948C143.452 186.319 143.119 186.614 142.695 186.819C143.18 187.016 143.558 187.311 143.808 187.705C144.058 188.099 144.195 188.584 144.195 189.144C144.195 190.03 143.914 190.727 143.354 191.235C142.793 191.742 142.066 191.992 141.165 191.992C140.339 191.992 139.612 191.75 138.983 191.265C138.354 190.78 138.051 190.136 138.074 189.341L138.089 189.303H139.339C139.339 189.773 139.506 190.167 139.847 190.492C140.187 190.818 140.627 190.977 141.165 190.977C141.695 190.977 142.119 190.811 142.422 190.477C142.725 190.144 142.884 189.712 142.884 189.182C142.884 188.576 142.74 188.122 142.46 187.819C142.18 187.516 141.733 187.364 141.134 187.364H140.059V186.349H141.127V186.341Z" fill="white"/>
<path d="M181.577 188.432C181.577 189.531 181.296 190.394 180.743 191.038C180.19 191.682 179.44 192 178.494 192C177.554 192 176.804 191.682 176.244 191.038C175.683 190.394 175.403 189.531 175.403 188.432V185.584C175.403 184.493 175.683 183.63 176.236 182.986C176.789 182.342 177.539 182.024 178.478 182.024C179.418 182.024 180.168 182.342 180.736 182.986C181.304 183.63 181.577 184.493 181.577 185.584V188.432ZM180.266 185.311C180.266 184.614 180.107 184.061 179.796 183.66C179.486 183.259 179.047 183.054 178.478 183.054C177.918 183.054 177.478 183.259 177.175 183.66C176.872 184.061 176.713 184.614 176.713 185.311V188.697C176.713 189.394 176.872 189.947 177.183 190.356C177.494 190.765 177.933 190.97 178.494 190.97C179.062 190.97 179.501 190.765 179.804 190.364C180.107 189.955 180.266 189.402 180.266 188.705V185.311Z" fill="white"/>
<path d="M188.28 188.591H189.621V189.614H188.28V191.848H186.977V189.614H182.818V188.871L186.901 182.152H188.287V188.591H188.28ZM184.212 188.591H186.969V184.046L186.932 184.038L186.803 184.372L184.212 188.591Z" fill="white"/>
<path d="M225.867 188.432C225.867 189.531 225.587 190.394 225.034 191.038C224.481 191.682 223.731 192 222.784 192C221.845 192 221.095 191.682 220.535 191.038C219.974 190.394 219.694 189.531 219.694 188.432V185.584C219.694 184.493 219.974 183.63 220.527 182.986C221.08 182.342 221.83 182.024 222.769 182.024C223.709 182.024 224.458 182.342 225.027 182.986C225.595 183.63 225.867 184.493 225.867 185.584V188.432ZM224.557 185.311C224.557 184.614 224.398 184.061 224.087 183.66C223.777 183.259 223.337 183.054 222.769 183.054C222.209 183.054 221.769 183.259 221.466 183.66C221.163 184.061 221.004 184.614 221.004 185.311V188.697C221.004 189.394 221.163 189.947 221.474 190.356C221.785 190.765 222.224 190.97 222.784 190.97C223.353 190.97 223.792 190.765 224.095 190.364C224.398 189.955 224.557 189.402 224.557 188.705V185.311Z" fill="white"/>
<path d="M227.784 187.546L228.345 182.16H233.2V183.327H229.451L229.14 186.114C229.352 185.955 229.579 185.834 229.829 185.728C230.079 185.629 230.367 185.576 230.693 185.569C231.587 185.561 232.291 185.841 232.799 186.41C233.306 186.978 233.564 187.765 233.564 188.758C233.564 189.727 233.306 190.508 232.784 191.098C232.261 191.689 231.503 191.985 230.504 191.985C229.685 191.985 228.996 191.757 228.451 191.311C227.905 190.864 227.64 190.205 227.663 189.334L227.678 189.296H228.86C228.86 189.826 229.011 190.235 229.314 190.523C229.617 190.811 230.011 190.962 230.496 190.962C231.049 190.962 231.481 190.765 231.791 190.379C232.102 189.993 232.253 189.455 232.253 188.773C232.253 188.159 232.102 187.659 231.791 187.273C231.481 186.887 231.057 186.697 230.504 186.697C229.988 186.697 229.617 186.773 229.382 186.932C229.148 187.091 228.981 187.326 228.867 187.652L227.784 187.546Z" fill="white"/>
<path d="M243.214 170.813H227.564V166.836H226.799H226.042H225.277V170.813H183.47V166.836H182.705H181.948H181.183V170.813H138.702V166.836H137.937H137.18H136.415V170.813H94.2451V166.836H93.4801H92.7226H91.9575V170.813H49.7878V166.836H49.0227H48.2652H47.5077V170.813H26.01V139.854H29.9869V139.089V138.332V137.566H26.01V106.615H29.9869V105.85V105.093V104.328H26.01V73.3764H29.9869V72.6113V71.8538V71.0887H26.01V40.1375H29.9869V39.3724V38.6149V37.8574H26.01V6.51987H29.9869V5.7548V4.9973V4.23981H19.7607V4.9973V5.7548V6.51987H23.7375V37.8574H19.7607V38.6149V39.3724V40.1375H23.7375V71.0887H19.7607V71.8538V72.6113V73.3764H23.7375V104.328H19.7607V105.093V105.85V106.615H23.7375V137.566H19.7607V138.332V139.089V139.854H23.7375V170.798H19.7607V173.085H23.7375H47.5077V177.062H48.2652H49.0227H49.7878V173.085H91.9575V177.062H92.7226H93.4801H94.2451V173.085H136.415V177.062H137.18H137.937H138.702V173.085H181.183V177.062H181.948H182.705H183.47V173.085H225.277V177.062H226.042H226.799H227.564V173.085H243.214V170.813Z" fill="#386EE6"/>
<circle cx="143.266" cy="72.4981" r="4.25313" fill="#34DF96"/>
<circle cx="168.784" cy="89.5106" r="4.25313" fill="#EB5757"/>
<path d="M24.1779 89.5106H243.214" stroke="#EB5757" stroke-width="0.5"/>
<path d="M24.1779 72.498H243.214" stroke="#34DF96" stroke-width="0.5"/>
</svg>
