<svg width="24" height="24" viewBox="0 0 24 24" fill="none" xmlns="http://www.w3.org/2000/svg">
<path d="M12 0C5.4 0 0 5.4 0 12C0 18.6 5.4 24 12 24C18.6 24 24 18.6 24 12C24 5.4 18.6 0 12 0ZM8.8 17.9H6V9.3H8.9V17.9H8.8ZM7.4 8.1C6.4 8.1 5.8 7.4 5.8 6.6C5.8 5.8 6.4 5.1 7.4 5.1C8.4 5.1 9 5.7 9 6.6C9 7.4 8.4 8.1 7.4 8.1ZM19.1 17.9H16.2V13.3C16.2 12.1 15.8 11.4 14.7 11.4C13.9 11.4 13.4 11.9 13.2 12.4C13.1 12.6 13.1 12.8 13.1 13.1V17.9H10.2C10.2 17.9 10.2 10.1 10.2 9.3H13.1V10.5C13.5 9.9 14.2 9.1 15.7 9.1C17.6 9.1 19 10.3 19 13V17.9H19.1Z" fill="#9E9E9E"/>
</svg>
