<svg width="37" height="49" viewBox="0 0 37 49" fill="none" xmlns="http://www.w3.org/2000/svg">
<path d="M25.4097 43.4138C26.4399 43.4138 27.2842 43.2956 27.9424 43.0591C28.6149 42.8088 29.1515 42.4819 29.5522 42.0785C29.9528 41.6752 30.2318 41.2162 30.3892 40.7015C30.5466 40.173 30.6253 39.6306 30.6253 39.0742C30.6253 38.4622 30.5323 37.9128 30.3463 37.426C30.1603 36.9392 29.8598 36.5288 29.4448 36.195C29.0299 35.8473 28.4861 35.583 27.8136 35.4022C27.1554 35.2214 26.3398 35.131 25.3667 35.131H19.8935V43.4138H25.4097ZM19.8935 22.6963V30.8748H24.1218C25.0233 30.8748 25.8246 30.8053 26.5258 30.6662C27.2269 30.5132 27.8136 30.2767 28.2858 29.9568C28.758 29.6369 29.1157 29.2197 29.359 28.705C29.6165 28.1765 29.7453 27.5436 29.7453 26.8064C29.7453 26.0554 29.638 25.4155 29.4234 24.887C29.223 24.3585 28.9082 23.9342 28.479 23.6143C28.0497 23.2944 27.5059 23.0649 26.8477 22.9258C26.1895 22.7728 25.4097 22.6963 24.5082 22.6963H19.8935ZM24.5082 17.9395C26.5973 17.9395 28.3788 18.1342 29.8526 18.5236C31.3408 18.8992 32.5499 19.4416 33.48 20.151C34.4244 20.8464 35.1112 21.6949 35.5405 22.6963C35.9698 23.6978 36.1844 24.8175 36.1844 26.0554C36.1844 26.7508 36.0771 27.4184 35.8625 28.0583C35.6621 28.6981 35.3402 29.3031 34.8966 29.8734C34.4673 30.4297 33.9093 30.9374 33.2224 31.3964C32.5356 31.8554 31.72 32.2449 30.7756 32.5648C32.8933 33.0516 34.4602 33.8444 35.4761 34.9432C36.4921 36.042 37 37.4677 37 39.2202C37 40.4999 36.7425 41.6891 36.2274 42.7879C35.7265 43.8867 34.9896 44.8395 34.0166 45.6462C33.0436 46.4529 31.8416 47.0858 30.4107 47.5448C28.9941 47.9899 27.3629 48.2124 25.517 48.2124H13.4544V17.9395H24.5082Z" fill="#4996EC"/>
<path fill-rule="evenodd" clip-rule="evenodd" d="M27.3733 14.7529C27.3198 12.7302 26.9432 10.8571 26.2435 9.13366C25.4999 7.26764 24.4406 5.66119 23.0656 4.31429C21.7047 2.95336 20.0632 1.89408 18.141 1.13645C16.2189 0.378815 14.0863 0 11.7433 0H0V30.5367H10.8312V25.5911H6.35568V4.94565H11.7433C13.1744 4.94565 14.4511 5.18416 15.5735 5.66119C16.71 6.13821 17.671 6.81868 18.4567 7.70258C19.2424 8.58648 19.8457 9.66681 20.2666 10.9436C20.6428 12.0845 20.8508 13.3542 20.8908 14.7529H27.3733Z" fill="white"/>
</svg>
