<svg width="23" height="30" viewBox="0 0 23 30" fill="none" xmlns="http://www.w3.org/2000/svg">
<path d="M15.7952 26.987C16.4356 26.987 16.9604 26.9135 17.3696 26.7665C17.7876 26.6109 18.1212 26.4077 18.3702 26.157C18.6193 25.9063 18.7927 25.6209 18.8906 25.301C18.9884 24.9725 19.0374 24.6353 19.0374 24.2894C19.0374 23.909 18.9795 23.5675 18.8639 23.2649C18.7483 22.9622 18.5615 22.7072 18.3035 22.4997C18.0456 22.2835 17.7076 22.1192 17.2895 22.0068C16.8804 21.8944 16.3733 21.8382 15.7685 21.8382H12.3662V26.987H15.7952ZM12.3662 14.1086V19.1925H14.9946C15.555 19.1925 16.0531 19.1493 16.489 19.0628C16.9248 18.9677 17.2895 18.8207 17.583 18.6219C17.8766 18.423 18.0989 18.1636 18.2502 17.8437C18.4103 17.5152 18.4903 17.1218 18.4903 16.6635C18.4903 16.1966 18.4236 15.7989 18.2902 15.4704C18.1657 15.1418 17.97 14.8781 17.7031 14.6792C17.4363 14.4804 17.0983 14.3377 16.6891 14.2513C16.28 14.1561 15.7952 14.1086 15.2348 14.1086H12.3662ZM15.2348 11.1516C16.5335 11.1516 17.6409 11.2727 18.557 11.5147C19.4821 11.7482 20.2337 12.0854 20.8119 12.5263C21.3989 12.9587 21.8259 13.4861 22.0927 14.1086C22.3596 14.7311 22.493 15.4271 22.493 16.1966C22.493 16.6289 22.4263 17.044 22.2929 17.4417C22.1683 17.8394 21.9682 18.2155 21.6925 18.57C21.4256 18.9158 21.0787 19.2314 20.6518 19.5168C20.2248 19.8021 19.7178 20.0442 19.1308 20.243C20.4472 20.5456 21.4212 21.0385 22.0527 21.7215C22.6842 22.4046 23 23.2908 23 24.3802C23 25.1757 22.8399 25.9149 22.5197 26.5979C22.2084 27.281 21.7503 27.8733 21.1454 28.3747C20.5406 28.8762 19.7934 29.2696 18.9039 29.5549C18.0233 29.8316 17.0093 29.9699 15.8619 29.9699H8.36353V11.1516H15.2348Z" fill="#4996EC"/>
<path fill-rule="evenodd" clip-rule="evenodd" d="M17.0159 9.17067C16.9826 7.91334 16.7485 6.74901 16.3135 5.67768C15.8513 4.51773 15.1928 3.51912 14.3381 2.68185C13.4921 1.83587 12.4717 1.1774 11.2769 0.70644C10.082 0.23548 8.75638 0 7.29989 0H1.52588e-05V18.9823H6.73296V15.908H3.95084V3.07432H7.29989C8.18948 3.07432 8.98314 3.22259 9.68085 3.51912C10.3873 3.81565 10.9847 4.23864 11.4731 4.78809C11.9615 5.33754 12.3365 6.0091 12.5982 6.80275C12.832 7.51197 12.9613 8.30127 12.9862 9.17067H17.0159Z" fill="white"/>
</svg>
