<svg width="289" height="121" viewBox="0 0 289 121" fill="none" xmlns="http://www.w3.org/2000/svg">
<path d="M75.0732 47.5742V113.189C75.0732 117.488 78.566 120.981 82.8648 120.981H192.255C196.554 120.981 200.047 117.488 200.047 113.189V47.5742H75.0732Z" fill="#959595"/>
<path d="M197.245 42.0281L141.59 1.34252C139.191 -0.403887 135.929 -0.403887 133.53 1.34252L77.8751 42.0281C76.1095 43.3139 75.0732 45.3673 75.0732 47.536V47.5743H200.047V47.536C200.047 45.3673 199.011 43.3139 197.245 42.0281Z" fill="#959595"/>
<path d="M181.393 9.78662H93.4009C92.0575 9.78662 90.9636 10.8805 90.9636 12.2239V86.8972C90.9636 88.2406 92.0575 89.3345 93.4009 89.3345H181.393C182.736 89.3345 183.83 88.2406 183.83 86.8972V12.2239C183.83 10.8805 182.736 9.78662 181.393 9.78662Z" fill="#386EE6"/>
<path d="M169.859 24.2188H104.954V27.9227H169.859V24.2188Z" fill="white"/>
<path d="M169.859 46.73H104.954V50.4339H169.859V46.73Z" fill="white"/>
<path d="M169.859 57.9761H104.954V61.68H169.859V57.9761Z" fill="white"/>
<path d="M169.859 35.4844H104.954V39.1883H169.859V35.4844Z" fill="white"/>
<path d="M82.8649 121H192.39C196.612 121 200.047 117.565 200.047 113.343V47.5742L82.8649 121Z" fill="white"/>
<path d="M75.0732 47.5742V113.324C75.0732 117.546 78.5084 120.981 82.7305 120.981H192.255L75.0732 47.5742Z" fill="white"/>
<path d="M281.268 5H235.518C231.437 5 228 8.40741 228 12.4537V43.5463C228 47.5926 231.437 51 235.518 51H281.482C285.563 51 289 47.5926 289 43.5463V12.4537C288.785 8.40741 285.349 5 281.268 5ZM285.349 43.5463C285.349 45.6759 283.63 47.5926 281.268 47.5926H235.518C233.37 47.5926 231.437 45.8889 231.437 43.5463V12.4537C231.437 10.3241 233.155 8.40741 235.518 8.40741H281.482C283.63 8.40741 285.563 10.1111 285.563 12.4537L285.349 43.5463Z" fill="white"/>
<path d="M40.169 14H5.66901C2.59155 14 0 16.5926 0 19.6713V43.3287C0 46.4074 2.59155 49 5.66901 49H40.331C43.4085 49 46 46.4074 46 43.3287V19.6713C45.838 16.5926 43.2465 14 40.169 14ZM43.2465 43.3287C43.2465 44.9491 41.9507 46.4074 40.169 46.4074H5.66901C4.0493 46.4074 2.59155 45.1111 2.59155 43.3287V19.6713C2.59155 18.0509 3.88732 16.5926 5.66901 16.5926H40.331C41.9507 16.5926 43.4085 17.8889 43.4085 19.6713L43.2465 43.3287Z" fill="white"/>
<path d="M60.338 81H44.588C43.1831 81 42 82.1852 42 83.5926V94.4074C42 95.8148 43.1831 97 44.588 97H60.412C61.8169 97 63 95.8148 63 94.4074V83.5926C62.9261 82.1852 61.743 81 60.338 81ZM61.743 94.4074C61.743 95.1481 61.1514 95.8148 60.338 95.8148H44.588C43.8486 95.8148 43.1831 95.2222 43.1831 94.4074V83.5926C43.1831 82.8519 43.7746 82.1852 44.588 82.1852H60.412C61.1514 82.1852 61.8169 82.7778 61.8169 83.5926L61.743 94.4074Z" fill="white"/>
<path d="M266.451 27.5796L281.391 14.0787C282.041 13.4255 282.257 12.3367 281.608 11.6834C280.958 11.0301 279.876 10.8124 279.226 11.4657L258.656 30.1926L254.542 26.4908L254.325 26.273L237.869 11.4657C237.219 10.8124 236.137 10.8124 235.487 11.6834C234.838 12.5544 234.838 13.4255 235.487 14.0787L250.644 27.7973L235.487 41.9514C234.838 42.6047 234.838 43.6935 235.487 44.3467C235.92 44.7822 236.353 45 236.786 45C237.219 45 237.652 44.7822 237.869 44.5645L253.243 30.1926L257.357 33.8945C257.79 34.1122 258.006 34.33 258.439 34.33C258.872 34.33 259.305 34.1122 259.522 33.8945L263.852 29.9749L279.009 44.5645C279.442 44.7822 279.876 45 280.092 45C280.525 45 280.958 44.7822 281.391 44.5645C282.041 43.9112 282.041 42.8224 281.391 42.1692L266.451 27.5796Z" fill="#386EE6"/>
<path d="M29.09 31.1909L40.5337 21.2638C41.0313 20.7834 41.1971 19.9829 40.6996 19.5025C40.202 19.0222 39.3728 18.8621 38.8752 19.3424L23.1193 33.1122L19.9681 30.3903L19.8023 30.2302L7.19753 19.3424C6.69998 18.8621 5.87072 18.8621 5.37317 19.5025C4.87561 20.143 4.87561 20.7834 5.37317 21.2638L16.9828 31.351L5.37317 41.7584C4.87561 42.2387 4.87561 43.0393 5.37317 43.5197C5.70487 43.8399 6.03657 44 6.36828 44C6.69998 44 7.03168 43.8399 7.19753 43.6798L18.973 33.1122L22.1242 35.8342C22.4559 35.9943 22.6217 36.1544 22.9534 36.1544C23.2852 36.1544 23.6169 35.9943 23.7827 35.8342L27.0997 32.9521L38.7094 43.6798C39.0411 43.8399 39.3728 44 39.5386 44C39.8703 44 40.202 43.8399 40.5337 43.6798C41.0313 43.1994 41.0313 42.3989 40.5337 41.9185L29.09 31.1909Z" fill="#386EE6"/>
<path d="M55.3758 88.8516L60.7798 84.0866C61.0148 83.856 61.0931 83.4718 60.8581 83.2412C60.6232 83.0106 60.2316 82.9338 59.9966 83.1643L52.5563 89.7739L51.0683 88.4673L50.99 88.3905L45.0377 83.1643C44.8028 82.9338 44.4112 82.9338 44.1762 83.2412C43.9413 83.5486 43.9413 83.856 44.1762 84.0866L49.6585 88.9285L44.1762 93.924C43.9413 94.1546 43.9413 94.5389 44.1762 94.7694C44.3329 94.9231 44.4895 95 44.6461 95C44.8028 95 44.9594 94.9231 45.0377 94.8463L50.5984 89.7739L52.0864 91.0804C52.2431 91.1573 52.3214 91.2341 52.478 91.2341C52.6347 91.2341 52.7913 91.1573 52.8696 91.0804L54.436 89.697L59.9183 94.8463C60.0749 94.9231 60.2316 95 60.3099 95C60.4665 95 60.6232 94.9231 60.7798 94.8463C61.0148 94.6157 61.0148 94.2315 60.7798 94.0009L55.3758 88.8516Z" fill="#386EE6"/>
</svg>
