<svg width="289" height="121" viewBox="0 0 289 121" fill="none" xmlns="http://www.w3.org/2000/svg">
<path d="M144.564 119C176.837 119 203 92.8371 203 60.5636C203 28.2902 176.837 2.12744 144.564 2.12744C112.29 2.12744 86.1274 28.2902 86.1274 60.5636C86.1274 92.8371 112.29 119 144.564 119Z" stroke="white" stroke-width="4" stroke-miterlimit="10"/>
<path d="M116 59.7234L137.37 81L176 41" stroke="#386EE6" stroke-width="4" stroke-miterlimit="10" stroke-linecap="round" stroke-linejoin="round"/>
<path d="M281.268 15H235.518C231.437 15 228 18.4074 228 22.4537V53.5463C228 57.5926 231.437 61 235.518 61H281.482C285.563 61 289 57.5926 289 53.5463V22.4537C288.785 18.4074 285.349 15 281.268 15ZM285.349 53.5463C285.349 55.6759 283.63 57.5926 281.268 57.5926H235.518C233.37 57.5926 231.437 55.8889 231.437 53.5463V22.4537C231.437 20.3241 233.155 18.4074 235.518 18.4074H281.482C283.63 18.4074 285.563 20.1111 285.563 22.4537L285.349 53.5463Z" fill="white"/>
<path d="M266.451 37.5796L281.391 24.0787C282.041 23.4255 282.257 22.3367 281.608 21.6834C280.958 21.0301 279.876 20.8124 279.226 21.4657L258.656 40.1926L254.542 36.4908L254.325 36.273L237.869 21.4657C237.219 20.8124 236.137 20.8124 235.487 21.6834C234.838 22.5544 234.838 23.4255 235.487 24.0787L250.644 37.7973L235.487 51.9514C234.838 52.6047 234.838 53.6935 235.487 54.3467C235.92 54.7822 236.353 55 236.786 55C237.219 55 237.652 54.7822 237.869 54.5645L253.243 40.1926L257.357 43.8945C257.79 44.1122 258.006 44.33 258.439 44.33C258.872 44.33 259.305 44.1122 259.522 43.8945L263.852 39.9749L279.009 54.5645C279.442 54.7822 279.876 55 280.092 55C280.525 55 280.958 54.7822 281.391 54.5645C282.041 53.9112 282.041 52.8224 281.391 52.1692L266.451 37.5796Z" fill="#386EE6"/>
<path d="M40.169 24H5.66901C2.59155 24 0 26.5926 0 29.6713V53.3287C0 56.4074 2.59155 59 5.66901 59H40.331C43.4085 59 46 56.4074 46 53.3287V29.6713C45.838 26.5926 43.2465 24 40.169 24ZM43.2465 53.3287C43.2465 54.9491 41.9507 56.4074 40.169 56.4074H5.66901C4.0493 56.4074 2.59155 55.1111 2.59155 53.3287V29.6713C2.59155 28.0509 3.88732 26.5926 5.66901 26.5926H40.331C41.9507 26.5926 43.4085 27.8889 43.4085 29.6713L43.2465 53.3287Z" fill="white"/>
<path d="M29.09 41.1909L40.5337 31.2638C41.0313 30.7834 41.1971 29.9829 40.6996 29.5025C40.202 29.0222 39.3728 28.8621 38.8752 29.3424L23.1193 43.1122L19.9681 40.3903L19.8023 40.2302L7.19753 29.3424C6.69998 28.8621 5.87072 28.8621 5.37317 29.5025C4.87561 30.143 4.87561 30.7834 5.37317 31.2638L16.9828 41.351L5.37317 51.7584C4.87561 52.2387 4.87561 53.0393 5.37317 53.5197C5.70487 53.8399 6.03657 54 6.36828 54C6.69998 54 7.03168 53.8399 7.19753 53.6798L18.973 43.1122L22.1242 45.8342C22.4559 45.9943 22.6217 46.1544 22.9534 46.1544C23.2852 46.1544 23.6169 45.9943 23.7827 45.8342L27.0997 42.9521L38.7094 53.6798C39.0411 53.8399 39.3728 54 39.5386 54C39.8703 54 40.202 53.8399 40.5337 53.6798C41.0313 53.1994 41.0313 52.3989 40.5337 51.9185L29.09 41.1909Z" fill="#386EE6"/>
<path d="M60.338 91H44.588C43.1831 91 42 92.1852 42 93.5926V104.407C42 105.815 43.1831 107 44.588 107H60.412C61.8169 107 63 105.815 63 104.407V93.5926C62.9261 92.1852 61.743 91 60.338 91ZM61.743 104.407C61.743 105.148 61.1514 105.815 60.338 105.815H44.588C43.8486 105.815 43.1831 105.222 43.1831 104.407V93.5926C43.1831 92.8519 43.7746 92.1852 44.588 92.1852H60.412C61.1514 92.1852 61.8169 92.7778 61.8169 93.5926L61.743 104.407Z" fill="white"/>
<path d="M55.3758 98.8516L60.7798 94.0866C61.0148 93.856 61.0931 93.4718 60.8581 93.2412C60.6232 93.0106 60.2316 92.9338 59.9966 93.1643L52.5563 99.7739L51.0683 98.4673L50.99 98.3905L45.0377 93.1643C44.8028 92.9338 44.4112 92.9338 44.1762 93.2412C43.9413 93.5486 43.9413 93.856 44.1762 94.0866L49.6585 98.9285L44.1762 103.924C43.9413 104.155 43.9413 104.539 44.1762 104.769C44.3329 104.923 44.4895 105 44.6461 105C44.8028 105 44.9594 104.923 45.0377 104.846L50.5984 99.7739L52.0864 101.08C52.2431 101.157 52.3214 101.234 52.478 101.234C52.6347 101.234 52.7913 101.157 52.8696 101.08L54.436 99.697L59.9183 104.846C60.0749 104.923 60.2316 105 60.3099 105C60.4665 105 60.6232 104.923 60.7798 104.846C61.0148 104.616 61.0148 104.231 60.7798 104.001L55.3758 98.8516Z" fill="#386EE6"/>
</svg>
