<svg width="305" height="164" viewBox="0 0 305 164" fill="none" xmlns="http://www.w3.org/2000/svg">
<path d="M92.7222 24H208.755C220.739 24 230 33.8449 230 45.3306V109.322C230 121.355 220.194 130.653 208.755 130.653H199.494V158L176.069 130.653H93.267C81.2824 130.653 72.0217 120.808 72.0217 109.322V45.3306C71.4769 33.298 81.2824 24 92.7222 24Z" stroke="white" stroke-width="4" stroke-miterlimit="10" stroke-linecap="round"/>
<path d="M260 19.8276C260 14.2759 262.369 9.51725 266.316 5.55173C270.263 2.37932 275.789 0 282.895 0C289.21 0 294.737 1.58622 298.684 4.75864C302.631 7.93105 305 12.6896 305 18.2414C305 24.5862 301.842 30.1379 295.526 34.1034C292.368 35.6896 290 37.2759 289.211 38.8621C288.421 40.4483 287.632 42.0345 287.632 44.4138V46.7931H275.789V44.4138C275.789 40.4483 275.79 38.069 277.368 35.6897C278.947 33.3103 280.526 30.931 284.474 29.3448C287.632 27.7586 289.21 26.1724 290.789 24.5862C291.579 23 292.368 21.4138 292.368 19.0345C292.368 16.6552 291.579 15.069 290 13.4828C288.421 11.8966 286.053 11.1035 283.684 11.1035C281.316 11.1035 278.947 11.8966 277.368 13.4828C275.79 15.069 275 16.6552 275 19.8276H260ZM275 66.6207C273.421 65.0345 272.632 63.4483 272.632 61.069C272.632 58.6897 273.421 56.3103 275 55.5172C276.579 53.931 278.158 53.1379 281.316 53.1379C283.684 53.1379 286.053 53.931 287.632 55.5172C289.21 57.1034 290 58.6897 290 61.069C290 63.4483 289.21 65.8276 287.632 66.6207C286.053 68.2069 284.474 69 281.316 69C278.947 69 276.579 68.2069 275 66.6207Z" fill="white"/>
<path d="M0 42.931C0 39.3103 1.52641 36.2069 4.07026 33.6207C6.61411 31.5517 10.1754 30 14.7543 30C18.8245 30 22.3859 31.0345 24.9297 33.1035C27.4736 35.1724 29 38.2759 29 41.8965C29 46.0345 26.9649 49.6552 22.8947 52.2414C20.8596 53.2759 19.3334 54.3104 18.8246 55.3448C18.3158 56.3793 17.807 57.4138 17.807 58.9655V60.5172H10.1754V58.9655C10.1754 56.3793 10.1755 54.8276 11.193 53.2759C12.2106 51.7241 13.2281 50.1724 15.7719 49.1379C17.807 48.1035 18.8245 47.069 19.842 46.0345C20.3508 45 20.8596 43.9655 20.8596 42.4138C20.8596 40.8621 20.3509 39.8276 19.3334 38.7931C18.3158 37.7586 16.7894 37.2414 15.2631 37.2414C13.7368 37.2414 12.2106 37.7586 11.193 38.7931C10.1755 39.8276 9.66662 40.8621 9.66662 42.931H0ZM9.66662 73.4483C8.64907 72.4138 8.14036 71.3793 8.14036 69.8276C8.14036 68.2759 8.64907 66.7241 9.66662 66.2069C10.6842 65.1724 11.7018 64.6552 13.7369 64.6552C15.2632 64.6552 16.7894 65.1724 17.807 66.2069C18.8245 67.2414 19.3334 68.2759 19.3334 69.8276C19.3334 71.3793 18.8245 72.931 17.807 73.4483C16.7894 74.4828 15.772 75 13.7369 75C12.2106 75 10.6842 74.4828 9.66662 73.4483Z" fill="white"/>
<path d="M36 125.609C36 123.759 36.7895 122.172 38.1053 120.851C39.4211 119.793 41.2631 119 43.6315 119C45.7368 119 47.5789 119.529 48.8947 120.586C50.2105 121.644 51 123.23 51 125.08C51 127.195 49.9473 129.046 47.8421 130.368C46.7894 130.897 46 131.425 45.7369 131.954C45.4737 132.483 45.2105 133.011 45.2105 133.805V134.598H41.2631V133.805C41.2631 132.483 41.2632 131.69 41.7895 130.897C42.3158 130.103 42.8421 129.31 44.1579 128.782C45.2105 128.253 45.7368 127.724 46.2631 127.195C46.5263 126.667 46.7895 126.138 46.7895 125.345C46.7895 124.552 46.5263 124.023 46 123.494C45.4737 122.966 44.6842 122.701 43.8947 122.701C43.1052 122.701 42.3158 122.966 41.7895 123.494C41.2632 124.023 41 124.552 41 125.609H36ZM41 141.207C40.4737 140.678 40.2105 140.149 40.2105 139.356C40.2105 138.563 40.4737 137.77 41 137.506C41.5263 136.977 42.0527 136.713 43.1053 136.713C43.8948 136.713 44.6842 136.977 45.2105 137.506C45.7368 138.034 46 138.563 46 139.356C46 140.149 45.7368 140.943 45.2105 141.207C44.6842 141.736 44.1579 142 43.1053 142C42.3158 142 41.5263 141.736 41 141.207Z" fill="white"/>
<path d="M134 63.5193C134 61.8625 135.343 60.5193 137 60.5193H154.194C155.851 60.5193 157.194 61.8625 157.194 63.5193V99.2746H169C170.657 99.2746 172 100.618 172 102.275V103C172 104.657 170.657 106 169 106H137C135.343 106 134 104.657 134 103V102.275C134 100.618 135.343 99.2746 137 99.2746H149.435V67.2868H137C135.343 67.2868 134 65.9436 134 64.2868V63.5193ZM148.428 48.5817C148.428 47.2927 148.806 46.2138 149.561 45.3451C150.344 44.4484 151.518 44 153.084 44C154.622 44 155.782 44.4484 156.565 45.3451C157.348 46.2138 157.74 47.2927 157.74 48.5817C157.74 49.8427 157.348 50.8936 156.565 51.7342C155.782 52.5749 154.622 52.9953 153.084 52.9953C151.518 52.9953 150.344 52.5749 149.561 51.7342C148.806 50.8936 148.428 49.8427 148.428 48.5817Z" fill="#386EE6"/>
</svg>
