<svg width="460" height="208" viewBox="0 0 460 208" fill="none" xmlns="http://www.w3.org/2000/svg">
<path fill-rule="evenodd" clip-rule="evenodd" d="M205.07 26.9566C188.022 35.6687 178 52.1222 178 72.5H180.563C180.563 53.5811 189.489 38.3316 205.07 29.8438V26.9566Z" fill="#386EE6"/>
<path fill-rule="evenodd" clip-rule="evenodd" d="M206.711 29.0234V26.0161C213.92 22.1704 222.094 20 230.756 20C239.214 20 247.206 22.0693 254.289 25.7468V28.7365C247.272 24.8557 239.261 22.6563 230.756 22.6563C222.043 22.6563 213.849 24.9642 206.711 29.0234Z" fill="white"/>
<path fill-rule="evenodd" clip-rule="evenodd" d="M255.93 29.8438C271.514 38.2012 280.481 53.4795 280.481 72.5H283C283 52.0317 272.952 35.5597 255.93 26.9893V29.8438Z" fill="#386EE6"/>
<path d="M205.015 38.8428L206.216 37.8965L230.188 68.3265L228.987 69.2728L205.015 38.8428Z" fill="#386EE6"/>
<path d="M232.961 70.0391C232.961 71.3982 231.859 72.5 230.5 72.5C229.141 72.5 228.039 71.3982 228.039 70.0391C228.039 68.6799 229.141 67.5781 230.5 67.5781C231.859 67.5781 232.961 68.6799 232.961 70.0391Z" fill="#386EE6"/>
<path d="M54.264 150.948L53.664 151.692C54 151.524 54.36 151.396 54.744 151.308C55.136 151.212 55.556 151.164 56.004 151.164C56.66 151.164 57.296 151.272 57.912 151.488C58.536 151.704 59.084 152.032 59.556 152.472C60.028 152.904 60.408 153.444 60.696 154.092C60.984 154.74 61.128 155.496 61.128 156.36C61.128 157.168 60.98 157.928 60.684 158.64C60.388 159.344 59.972 159.96 59.436 160.488C58.9 161.016 58.252 161.432 57.492 161.736C56.74 162.04 55.908 162.192 54.996 162.192C54.068 162.192 53.236 162.044 52.5 161.748C51.764 161.452 51.136 161.04 50.616 160.512C50.096 159.976 49.696 159.336 49.416 158.592C49.144 157.84 49.008 157.008 49.008 156.096C49.008 155.28 49.172 154.444 49.5 153.588C49.836 152.724 50.352 151.828 51.048 150.9L55.188 145.344C55.332 145.152 55.54 144.988 55.812 144.852C56.092 144.716 56.412 144.648 56.772 144.648H59.412L54.264 150.948ZM54.936 159.768C55.408 159.768 55.84 159.688 56.232 159.528C56.632 159.368 56.972 159.144 57.252 158.856C57.54 158.568 57.764 158.232 57.924 157.848C58.084 157.456 58.164 157.032 58.164 156.576C58.164 156.08 58.088 155.636 57.936 155.244C57.784 154.844 57.568 154.508 57.288 154.236C57.008 153.956 56.672 153.744 56.28 153.6C55.888 153.456 55.456 153.384 54.984 153.384C54.512 153.384 54.084 153.464 53.7 153.624C53.316 153.784 52.988 154.008 52.716 154.296C52.444 154.576 52.232 154.912 52.08 155.304C51.928 155.688 51.852 156.104 51.852 156.552C51.852 157.032 51.916 157.472 52.044 157.872C52.18 158.264 52.376 158.6 52.632 158.88C52.896 159.16 53.22 159.38 53.604 159.54C53.988 159.692 54.432 159.768 54.936 159.768ZM74.3419 159.78V162H64.7419V159.78H68.2579V149.664C68.2579 149.264 68.2699 148.852 68.2939 148.428L65.7979 150.516C65.6539 150.628 65.5099 150.7 65.3659 150.732C65.2299 150.756 65.0979 150.756 64.9699 150.732C64.8499 150.708 64.7419 150.668 64.6459 150.612C64.5499 150.548 64.4779 150.48 64.4299 150.408L63.4939 149.124L68.7859 144.624H71.2219V159.78H74.3419ZM84.7838 148.848C84.7838 149.504 84.6718 150.096 84.4478 150.624C84.2318 151.152 83.9398 151.604 83.5718 151.98C83.2038 152.348 82.7758 152.632 82.2878 152.832C81.7998 153.032 81.2918 153.132 80.7638 153.132C80.1878 153.132 79.6558 153.032 79.1678 152.832C78.6798 152.632 78.2558 152.348 77.8958 151.98C77.5438 151.604 77.2678 151.152 77.0678 150.624C76.8678 150.096 76.7678 149.504 76.7678 148.848C76.7678 148.176 76.8678 147.568 77.0678 147.024C77.2678 146.48 77.5438 146.02 77.8958 145.644C78.2558 145.268 78.6798 144.98 79.1678 144.78C79.6558 144.572 80.1878 144.468 80.7638 144.468C81.3398 144.468 81.8718 144.572 82.3598 144.78C82.8558 144.98 83.2838 145.268 83.6438 145.644C84.0038 146.02 84.2838 146.48 84.4838 147.024C84.6838 147.568 84.7838 148.176 84.7838 148.848ZM82.5038 148.848C82.5038 148.384 82.4558 147.996 82.3598 147.684C82.2718 147.372 82.1478 147.12 81.9878 146.928C81.8358 146.736 81.6518 146.6 81.4358 146.52C81.2278 146.432 81.0038 146.388 80.7638 146.388C80.5238 146.388 80.2998 146.432 80.0918 146.52C79.8838 146.6 79.7038 146.736 79.5518 146.928C79.4078 147.12 79.2918 147.372 79.2038 147.684C79.1158 147.996 79.0718 148.384 79.0718 148.848C79.0718 149.296 79.1158 149.672 79.2038 149.976C79.2918 150.272 79.4078 150.512 79.5518 150.696C79.7038 150.88 79.8838 151.012 80.0918 151.092C80.2998 151.172 80.5238 151.212 80.7638 151.212C81.0038 151.212 81.2278 151.172 81.4358 151.092C81.6518 151.012 81.8358 150.88 81.9878 150.696C82.1478 150.512 82.2718 150.272 82.3598 149.976C82.4558 149.672 82.5038 149.296 82.5038 148.848ZM90.5558 145.116C90.6598 144.996 90.7798 144.888 90.9158 144.792C91.0598 144.696 91.2598 144.648 91.5158 144.648H93.6758L80.7878 161.556C80.6838 161.684 80.5598 161.792 80.4158 161.88C80.2718 161.96 80.0958 162 79.8878 162H77.6798L90.5558 145.116ZM94.5878 157.92C94.5878 158.576 94.4758 159.168 94.2518 159.696C94.0358 160.224 93.7438 160.676 93.3758 161.052C93.0078 161.42 92.5798 161.708 92.0918 161.916C91.6038 162.116 91.0958 162.216 90.5678 162.216C89.9918 162.216 89.4598 162.116 88.9718 161.916C88.4838 161.708 88.0598 161.42 87.6998 161.052C87.3478 160.676 87.0718 160.224 86.8718 159.696C86.6718 159.168 86.5718 158.576 86.5718 157.92C86.5718 157.248 86.6718 156.64 86.8718 156.096C87.0718 155.552 87.3478 155.092 87.6998 154.716C88.0598 154.34 88.4838 154.052 88.9718 153.852C89.4598 153.644 89.9918 153.54 90.5678 153.54C91.1438 153.54 91.6758 153.644 92.1638 153.852C92.6598 154.052 93.0838 154.34 93.4358 154.716C93.7958 155.092 94.0758 155.552 94.2758 156.096C94.4838 156.64 94.5878 157.248 94.5878 157.92ZM92.2958 157.92C92.2958 157.456 92.2518 157.068 92.1638 156.756C92.0758 156.444 91.9518 156.192 91.7918 156C91.6398 155.808 91.4558 155.672 91.2398 155.592C91.0318 155.504 90.8078 155.46 90.5678 155.46C90.3278 155.46 90.1038 155.504 89.8958 155.592C89.6878 155.672 89.5078 155.808 89.3558 156C89.2038 156.192 89.0838 156.444 88.9958 156.756C88.9158 157.068 88.8758 157.456 88.8758 157.92C88.8758 158.368 88.9158 158.744 88.9958 159.048C89.0838 159.352 89.2038 159.596 89.3558 159.78C89.5078 159.964 89.6878 160.096 89.8958 160.176C90.1038 160.256 90.3278 160.296 90.5678 160.296C90.8078 160.296 91.0318 160.256 91.2398 160.176C91.4558 160.096 91.6398 159.964 91.7918 159.78C91.9518 159.596 92.0758 159.352 92.1638 159.048C92.2518 158.744 92.2958 158.368 92.2958 157.92Z" fill="#386EE6"/>
<path d="M373.788 149.484C373.908 148.652 374.14 147.924 374.484 147.3C374.828 146.668 375.256 146.144 375.768 145.728C376.288 145.304 376.88 144.988 377.544 144.78C378.216 144.564 378.936 144.456 379.704 144.456C380.504 144.456 381.224 144.572 381.864 144.804C382.512 145.028 383.064 145.344 383.52 145.752C383.976 146.152 384.324 146.624 384.564 147.168C384.812 147.712 384.936 148.3 384.936 148.932C384.936 149.484 384.872 149.972 384.744 150.396C384.624 150.812 384.448 151.176 384.216 151.488C383.984 151.8 383.696 152.064 383.352 152.28C383.008 152.496 382.62 152.676 382.188 152.82C383.228 153.148 384.004 153.648 384.516 154.32C385.028 154.992 385.284 155.836 385.284 156.852C385.284 157.716 385.124 158.48 384.804 159.144C384.484 159.808 384.052 160.368 383.508 160.824C382.964 161.272 382.332 161.612 381.612 161.844C380.9 162.076 380.144 162.192 379.344 162.192C378.472 162.192 377.712 162.092 377.064 161.892C376.416 161.692 375.852 161.396 375.372 161.004C374.892 160.612 374.484 160.132 374.148 159.564C373.812 158.996 373.524 158.34 373.284 157.596L374.592 157.056C374.936 156.912 375.256 156.876 375.552 156.948C375.856 157.012 376.076 157.172 376.212 157.428C376.356 157.708 376.512 157.984 376.68 158.256C376.856 158.528 377.064 158.772 377.304 158.988C377.544 159.196 377.824 159.368 378.144 159.504C378.472 159.632 378.86 159.696 379.308 159.696C379.812 159.696 380.252 159.616 380.628 159.456C381.004 159.288 381.316 159.072 381.564 158.808C381.82 158.544 382.008 158.252 382.128 157.932C382.256 157.604 382.32 157.276 382.32 156.948C382.32 156.532 382.276 156.156 382.188 155.82C382.1 155.476 381.916 155.184 381.636 154.944C381.356 154.704 380.952 154.516 380.424 154.38C379.904 154.244 379.204 154.176 378.324 154.176V152.064C379.052 152.056 379.656 151.988 380.136 151.86C380.616 151.732 380.996 151.556 381.276 151.332C381.564 151.1 381.764 150.824 381.876 150.504C381.988 150.184 382.044 149.832 382.044 149.448C382.044 148.632 381.816 148.012 381.36 147.588C380.904 147.164 380.296 146.952 379.536 146.952C379.184 146.952 378.86 147.004 378.564 147.108C378.268 147.204 378 147.344 377.76 147.528C377.528 147.704 377.332 147.912 377.172 148.152C377.012 148.392 376.892 148.656 376.812 148.944C376.676 149.312 376.496 149.556 376.272 149.676C376.056 149.796 375.748 149.824 375.348 149.76L373.788 149.484ZM390.374 149.856C390.374 150.824 390.622 151.564 391.118 152.076C391.622 152.58 392.334 152.832 393.254 152.832C393.734 152.832 394.162 152.756 394.538 152.604C394.914 152.452 395.23 152.244 395.486 151.98C395.742 151.716 395.934 151.404 396.062 151.044C396.198 150.684 396.266 150.296 396.266 149.88C396.266 149.408 396.194 148.988 396.05 148.62C395.906 148.244 395.702 147.928 395.438 147.672C395.174 147.416 394.858 147.22 394.49 147.084C394.13 146.948 393.734 146.88 393.302 146.88C392.854 146.88 392.45 146.956 392.09 147.108C391.73 147.252 391.422 147.456 391.166 147.72C390.91 147.984 390.714 148.3 390.578 148.668C390.442 149.028 390.374 149.424 390.374 149.856ZM394.31 155.268C394.446 155.1 394.574 154.936 394.694 154.776C394.814 154.616 394.93 154.456 395.042 154.296C394.642 154.552 394.202 154.748 393.722 154.884C393.242 155.012 392.738 155.076 392.21 155.076C391.61 155.076 391.022 154.972 390.446 154.764C389.87 154.556 389.358 154.244 388.91 153.828C388.462 153.404 388.098 152.884 387.818 152.268C387.546 151.644 387.41 150.916 387.41 150.084C387.41 149.308 387.554 148.58 387.842 147.9C388.13 147.22 388.534 146.624 389.054 146.112C389.574 145.6 390.198 145.196 390.926 144.9C391.654 144.604 392.458 144.456 393.338 144.456C394.226 144.456 395.022 144.596 395.726 144.876C396.438 145.156 397.042 145.548 397.538 146.052C398.042 146.556 398.426 147.16 398.69 147.864C398.962 148.568 399.098 149.34 399.098 150.18C399.098 150.716 399.05 151.224 398.954 151.704C398.866 152.184 398.738 152.648 398.57 153.096C398.402 153.536 398.198 153.968 397.958 154.392C397.718 154.816 397.45 155.236 397.154 155.652L393.182 161.316C393.046 161.508 392.842 161.672 392.57 161.808C392.298 161.936 391.99 162 391.646 162H388.922L394.31 155.268ZM409.276 148.848C409.276 149.504 409.164 150.096 408.94 150.624C408.724 151.152 408.432 151.604 408.064 151.98C407.696 152.348 407.268 152.632 406.78 152.832C406.292 153.032 405.784 153.132 405.256 153.132C404.68 153.132 404.148 153.032 403.66 152.832C403.172 152.632 402.748 152.348 402.388 151.98C402.036 151.604 401.76 151.152 401.56 150.624C401.36 150.096 401.26 149.504 401.26 148.848C401.26 148.176 401.36 147.568 401.56 147.024C401.76 146.48 402.036 146.02 402.388 145.644C402.748 145.268 403.172 144.98 403.66 144.78C404.148 144.572 404.68 144.468 405.256 144.468C405.832 144.468 406.364 144.572 406.852 144.78C407.348 144.98 407.776 145.268 408.136 145.644C408.496 146.02 408.776 146.48 408.976 147.024C409.176 147.568 409.276 148.176 409.276 148.848ZM406.996 148.848C406.996 148.384 406.948 147.996 406.852 147.684C406.764 147.372 406.64 147.12 406.48 146.928C406.328 146.736 406.144 146.6 405.928 146.52C405.72 146.432 405.496 146.388 405.256 146.388C405.016 146.388 404.792 146.432 404.584 146.52C404.376 146.6 404.196 146.736 404.044 146.928C403.9 147.12 403.784 147.372 403.696 147.684C403.608 147.996 403.564 148.384 403.564 148.848C403.564 149.296 403.608 149.672 403.696 149.976C403.784 150.272 403.9 150.512 404.044 150.696C404.196 150.88 404.376 151.012 404.584 151.092C404.792 151.172 405.016 151.212 405.256 151.212C405.496 151.212 405.72 151.172 405.928 151.092C406.144 151.012 406.328 150.88 406.48 150.696C406.64 150.512 406.764 150.272 406.852 149.976C406.948 149.672 406.996 149.296 406.996 148.848ZM415.048 145.116C415.152 144.996 415.272 144.888 415.408 144.792C415.552 144.696 415.752 144.648 416.008 144.648H418.168L405.28 161.556C405.176 161.684 405.052 161.792 404.908 161.88C404.764 161.96 404.588 162 404.38 162H402.172L415.048 145.116ZM419.08 157.92C419.08 158.576 418.968 159.168 418.744 159.696C418.528 160.224 418.236 160.676 417.868 161.052C417.5 161.42 417.072 161.708 416.584 161.916C416.096 162.116 415.588 162.216 415.06 162.216C414.484 162.216 413.952 162.116 413.464 161.916C412.976 161.708 412.552 161.42 412.192 161.052C411.84 160.676 411.564 160.224 411.364 159.696C411.164 159.168 411.064 158.576 411.064 157.92C411.064 157.248 411.164 156.64 411.364 156.096C411.564 155.552 411.84 155.092 412.192 154.716C412.552 154.34 412.976 154.052 413.464 153.852C413.952 153.644 414.484 153.54 415.06 153.54C415.636 153.54 416.168 153.644 416.656 153.852C417.152 154.052 417.576 154.34 417.928 154.716C418.288 155.092 418.568 155.552 418.768 156.096C418.976 156.64 419.08 157.248 419.08 157.92ZM416.788 157.92C416.788 157.456 416.744 157.068 416.656 156.756C416.568 156.444 416.444 156.192 416.284 156C416.132 155.808 415.948 155.672 415.732 155.592C415.524 155.504 415.3 155.46 415.06 155.46C414.82 155.46 414.596 155.504 414.388 155.592C414.18 155.672 414 155.808 413.848 156C413.696 156.192 413.576 156.444 413.488 156.756C413.408 157.068 413.368 157.456 413.368 157.92C413.368 158.368 413.408 158.744 413.488 159.048C413.576 159.352 413.696 159.596 413.848 159.78C414 159.964 414.18 160.096 414.388 160.176C414.596 160.256 414.82 160.296 415.06 160.296C415.3 160.296 415.524 160.256 415.732 160.176C415.948 160.096 416.132 159.964 416.284 159.78C416.444 159.596 416.568 159.352 416.656 159.048C416.744 158.744 416.788 158.368 416.788 157.92Z" fill="white"/>
<path d="M53.04 175.89V177H48.805V169.77H50.15V175.89H53.04ZM60.6414 173.385C60.6414 173.915 60.5531 174.407 60.3764 174.86C60.2031 175.31 59.9564 175.7 59.6364 176.03C59.3164 176.36 58.9314 176.618 58.4814 176.805C58.0314 176.988 57.5314 177.08 56.9814 177.08C56.4347 177.08 55.9364 176.988 55.4864 176.805C55.0364 176.618 54.6497 176.36 54.3264 176.03C54.0064 175.7 53.7581 175.31 53.5814 174.86C53.4047 174.407 53.3164 173.915 53.3164 173.385C53.3164 172.855 53.4047 172.365 53.5814 171.915C53.7581 171.462 54.0064 171.07 54.3264 170.74C54.6497 170.41 55.0364 170.153 55.4864 169.97C55.9364 169.783 56.4347 169.69 56.9814 169.69C57.3481 169.69 57.6931 169.733 58.0164 169.82C58.3397 169.903 58.6364 170.023 58.9064 170.18C59.1764 170.333 59.4181 170.522 59.6314 170.745C59.8481 170.965 60.0314 171.212 60.1814 171.485C60.3314 171.758 60.4447 172.055 60.5214 172.375C60.6014 172.695 60.6414 173.032 60.6414 173.385ZM59.2664 173.385C59.2664 172.988 59.2131 172.633 59.1064 172.32C58.9997 172.003 58.8481 171.735 58.6514 171.515C58.4547 171.295 58.2147 171.127 57.9314 171.01C57.6514 170.893 57.3347 170.835 56.9814 170.835C56.6281 170.835 56.3097 170.893 56.0264 171.01C55.7464 171.127 55.5064 171.295 55.3064 171.515C55.1097 171.735 54.9581 172.003 54.8514 172.32C54.7447 172.633 54.6914 172.988 54.6914 173.385C54.6914 173.782 54.7447 174.138 54.8514 174.455C54.9581 174.768 55.1097 175.035 55.3064 175.255C55.5064 175.472 55.7464 175.638 56.0264 175.755C56.3097 175.872 56.6281 175.93 56.9814 175.93C57.3347 175.93 57.6514 175.872 57.9314 175.755C58.2147 175.638 58.4547 175.472 58.6514 175.255C58.8481 175.035 58.9997 174.768 59.1064 174.455C59.2131 174.138 59.2664 173.782 59.2664 173.385ZM67.9176 169.77V177H67.2276C67.1209 177 67.0309 176.983 66.9576 176.95C66.8876 176.913 66.8192 176.853 66.7526 176.77L62.9776 171.95C62.9976 172.17 63.0076 172.373 63.0076 172.56V177H61.8226V169.77H62.5276C62.5842 169.77 62.6326 169.773 62.6726 169.78C62.7159 169.783 62.7526 169.793 62.7826 169.81C62.8159 169.823 62.8476 169.845 62.8776 169.875C62.9076 169.902 62.9409 169.938 62.9776 169.985L66.7676 174.825C66.7576 174.708 66.7492 174.593 66.7426 174.48C66.7359 174.367 66.7326 174.262 66.7326 174.165V169.77H67.9176ZM75.4877 173.375V176.3C75.121 176.57 74.7293 176.768 74.3127 176.895C73.8993 177.018 73.456 177.08 72.9827 177.08C72.3927 177.08 71.8577 176.988 71.3777 176.805C70.901 176.622 70.4927 176.367 70.1527 176.04C69.816 175.713 69.556 175.323 69.3727 174.87C69.1893 174.417 69.0977 173.922 69.0977 173.385C69.0977 172.842 69.186 172.343 69.3627 171.89C69.5393 171.437 69.7893 171.047 70.1127 170.72C70.4393 170.393 70.8343 170.14 71.2977 169.96C71.761 169.78 72.281 169.69 72.8577 169.69C73.151 169.69 73.4243 169.713 73.6777 169.76C73.9343 169.807 74.171 169.872 74.3877 169.955C74.6077 170.035 74.8077 170.133 74.9877 170.25C75.1677 170.367 75.3327 170.495 75.4827 170.635L75.0977 171.245C75.0377 171.342 74.9593 171.402 74.8627 171.425C74.766 171.445 74.661 171.42 74.5477 171.35C74.4377 171.287 74.3277 171.223 74.2177 171.16C74.1077 171.097 73.9843 171.042 73.8477 170.995C73.7143 170.948 73.5627 170.91 73.3927 170.88C73.226 170.85 73.0327 170.835 72.8127 170.835C72.456 170.835 72.1327 170.895 71.8427 171.015C71.556 171.135 71.311 171.307 71.1077 171.53C70.9043 171.753 70.7477 172.022 70.6377 172.335C70.5277 172.648 70.4727 172.998 70.4727 173.385C70.4727 173.798 70.531 174.168 70.6477 174.495C70.7677 174.818 70.9343 175.093 71.1477 175.32C71.3643 175.543 71.6243 175.715 71.9277 175.835C72.231 175.952 72.5693 176.01 72.9427 176.01C73.2093 176.01 73.4477 175.982 73.6577 175.925C73.8677 175.868 74.0727 175.792 74.2727 175.695V174.385H73.3627C73.276 174.385 73.2077 174.362 73.1577 174.315C73.111 174.265 73.0877 174.205 73.0877 174.135V173.375H75.4877Z" fill="#787878"/>
<path d="M390.149 171.085C390.109 171.155 390.066 171.207 390.019 171.24C389.976 171.27 389.921 171.285 389.854 171.285C389.784 171.285 389.707 171.26 389.624 171.21C389.544 171.157 389.447 171.098 389.334 171.035C389.221 170.972 389.087 170.915 388.934 170.865C388.784 170.812 388.606 170.785 388.399 170.785C388.212 170.785 388.049 170.808 387.909 170.855C387.769 170.898 387.651 170.96 387.554 171.04C387.461 171.12 387.391 171.217 387.344 171.33C387.297 171.44 387.274 171.562 387.274 171.695C387.274 171.865 387.321 172.007 387.414 172.12C387.511 172.233 387.637 172.33 387.794 172.41C387.951 172.49 388.129 172.562 388.329 172.625C388.529 172.688 388.734 172.757 388.944 172.83C389.154 172.9 389.359 172.983 389.559 173.08C389.759 173.173 389.937 173.293 390.094 173.44C390.251 173.583 390.376 173.76 390.469 173.97C390.566 174.18 390.614 174.435 390.614 174.735C390.614 175.062 390.557 175.368 390.444 175.655C390.334 175.938 390.171 176.187 389.954 176.4C389.741 176.61 389.479 176.777 389.169 176.9C388.859 177.02 388.504 177.08 388.104 177.08C387.874 177.08 387.647 177.057 387.424 177.01C387.201 176.967 386.986 176.903 386.779 176.82C386.576 176.737 386.384 176.637 386.204 176.52C386.024 176.403 385.864 176.273 385.724 176.13L386.119 175.485C386.152 175.438 386.196 175.4 386.249 175.37C386.302 175.337 386.359 175.32 386.419 175.32C386.502 175.32 386.592 175.355 386.689 175.425C386.786 175.492 386.901 175.567 387.034 175.65C387.167 175.733 387.322 175.81 387.499 175.88C387.679 175.947 387.894 175.98 388.144 175.98C388.527 175.98 388.824 175.89 389.034 175.71C389.244 175.527 389.349 175.265 389.349 174.925C389.349 174.735 389.301 174.58 389.204 174.46C389.111 174.34 388.986 174.24 388.829 174.16C388.672 174.077 388.494 174.007 388.294 173.95C388.094 173.893 387.891 173.832 387.684 173.765C387.477 173.698 387.274 173.618 387.074 173.525C386.874 173.432 386.696 173.31 386.539 173.16C386.382 173.01 386.256 172.823 386.159 172.6C386.066 172.373 386.019 172.095 386.019 171.765C386.019 171.502 386.071 171.245 386.174 170.995C386.281 170.745 386.434 170.523 386.634 170.33C386.834 170.137 387.081 169.982 387.374 169.865C387.667 169.748 388.004 169.69 388.384 169.69C388.811 169.69 389.204 169.757 389.564 169.89C389.924 170.023 390.231 170.21 390.484 170.45L390.149 171.085ZM397.882 169.77V177H396.532V173.84H393.137V177H391.787V169.77H393.137V172.88H396.532V169.77H397.882ZM406.388 173.385C406.388 173.915 406.299 174.407 406.123 174.86C405.949 175.31 405.703 175.7 405.383 176.03C405.063 176.36 404.678 176.618 404.228 176.805C403.778 176.988 403.278 177.08 402.728 177.08C402.181 177.08 401.683 176.988 401.233 176.805C400.783 176.618 400.396 176.36 400.073 176.03C399.753 175.7 399.504 175.31 399.328 174.86C399.151 174.407 399.063 173.915 399.063 173.385C399.063 172.855 399.151 172.365 399.328 171.915C399.504 171.462 399.753 171.07 400.073 170.74C400.396 170.41 400.783 170.153 401.233 169.97C401.683 169.783 402.181 169.69 402.728 169.69C403.094 169.69 403.439 169.733 403.763 169.82C404.086 169.903 404.383 170.023 404.653 170.18C404.923 170.333 405.164 170.522 405.378 170.745C405.594 170.965 405.778 171.212 405.928 171.485C406.078 171.758 406.191 172.055 406.268 172.375C406.348 172.695 406.388 173.032 406.388 173.385ZM405.013 173.385C405.013 172.988 404.959 172.633 404.853 172.32C404.746 172.003 404.594 171.735 404.398 171.515C404.201 171.295 403.961 171.127 403.678 171.01C403.398 170.893 403.081 170.835 402.728 170.835C402.374 170.835 402.056 170.893 401.773 171.01C401.493 171.127 401.253 171.295 401.053 171.515C400.856 171.735 400.704 172.003 400.598 172.32C400.491 172.633 400.438 172.988 400.438 173.385C400.438 173.782 400.491 174.138 400.598 174.455C400.704 174.768 400.856 175.035 401.053 175.255C401.253 175.472 401.493 175.638 401.773 175.755C402.056 175.872 402.374 175.93 402.728 175.93C403.081 175.93 403.398 175.872 403.678 175.755C403.961 175.638 404.201 175.472 404.398 175.255C404.594 175.035 404.746 174.768 404.853 174.455C404.959 174.138 405.013 173.782 405.013 173.385ZM409.754 173.21C410.007 173.21 410.227 173.178 410.414 173.115C410.604 173.052 410.759 172.965 410.879 172.855C411.002 172.742 411.094 172.608 411.154 172.455C411.214 172.302 411.244 172.133 411.244 171.95C411.244 171.583 411.122 171.302 410.879 171.105C410.639 170.908 410.27 170.81 409.774 170.81H408.914V173.21H409.754ZM413.214 177H411.999C411.769 177 411.602 176.91 411.499 176.73L409.979 174.415C409.922 174.328 409.859 174.267 409.789 174.23C409.722 174.193 409.622 174.175 409.489 174.175H408.914V177H407.569V169.77H409.774C410.264 169.77 410.684 169.822 411.034 169.925C411.387 170.025 411.675 170.167 411.899 170.35C412.125 170.533 412.292 170.753 412.399 171.01C412.505 171.263 412.559 171.543 412.559 171.85C412.559 172.093 412.522 172.323 412.449 172.54C412.379 172.757 412.275 172.953 412.139 173.13C412.005 173.307 411.839 173.462 411.639 173.595C411.442 173.728 411.217 173.833 410.964 173.91C411.05 173.96 411.13 174.02 411.204 174.09C411.277 174.157 411.344 174.237 411.404 174.33L413.214 177ZM418.859 170.875H416.679V177H415.334V170.875H413.154V169.77H418.859V170.875Z" fill="#787878"/>
<rect x="48" y="188" width="371" height="10" rx="5" fill="white"/>
<rect x="48" y="188" width="230" height="10" rx="5" fill="#386EE6"/>
<path d="M325.998 45.6511L325.656 46.0703C325.848 45.9757 326.053 45.9035 326.272 45.854C326.496 45.7999 326.735 45.7728 326.991 45.7728C327.365 45.7728 327.728 45.8337 328.079 45.9554C328.435 46.0771 328.748 46.2619 329.017 46.5098C329.286 46.7532 329.503 47.0575 329.667 47.4226C329.831 47.7877 329.914 48.2137 329.914 48.7005C329.914 49.1557 329.829 49.584 329.66 49.9851C329.491 50.3818 329.254 50.7289 328.948 51.0264C328.643 51.3239 328.273 51.5583 327.84 51.7295C327.411 51.9008 326.936 51.9865 326.416 51.9865C325.886 51.9865 325.412 51.9031 324.992 51.7363C324.572 51.5695 324.214 51.3374 323.917 51.0399C323.621 50.7379 323.392 50.3773 323.233 49.9581C323.078 49.5344 323 49.0656 323 48.5517C323 48.092 323.094 47.6209 323.281 47.1386C323.472 46.6518 323.767 46.1469 324.164 45.6241L326.525 42.4936C326.607 42.3854 326.726 42.293 326.881 42.2164C327.041 42.1397 327.223 42.1014 327.429 42.1014H328.935L325.998 45.6511ZM326.382 50.6207C326.651 50.6207 326.897 50.5756 327.121 50.4855C327.349 50.3953 327.543 50.2691 327.703 50.1068C327.867 49.9446 327.995 49.7552 328.086 49.5389C328.177 49.318 328.223 49.0791 328.223 48.8222C328.223 48.5427 328.179 48.2925 328.093 48.0717C328.006 47.8463 327.883 47.657 327.723 47.5037C327.563 47.346 327.372 47.2265 327.148 47.1454C326.925 47.0642 326.678 47.0237 326.409 47.0237C326.14 47.0237 325.895 47.0687 325.676 47.1589C325.457 47.249 325.27 47.3753 325.115 47.5375C324.96 47.6953 324.839 47.8846 324.752 48.1055C324.666 48.3218 324.622 48.5562 324.622 48.8087C324.622 49.0791 324.659 49.327 324.732 49.5524C324.809 49.7733 324.921 49.9626 325.067 50.1204C325.218 50.2781 325.403 50.4021 325.622 50.4922C325.841 50.5779 326.094 50.6207 326.382 50.6207Z" fill="#386EE6"/>
<path d="M337.451 50.6275V51.8783H331.975V50.6275H333.981V44.9277C333.981 44.7023 333.988 44.4701 334.001 44.2312L332.577 45.4077C332.495 45.4708 332.413 45.5114 332.331 45.5294C332.253 45.5429 332.178 45.5429 332.105 45.5294C332.037 45.5159 331.975 45.4934 331.92 45.4618C331.866 45.4257 331.824 45.3874 331.797 45.3469L331.263 44.6234L334.282 42.0879H335.671V50.6275H337.451Z" fill="#386EE6"/>
<path d="M343.408 44.4679C343.408 44.8375 343.344 45.1711 343.216 45.4686C343.093 45.7661 342.926 46.0207 342.716 46.2326C342.506 46.4399 342.262 46.6 341.984 46.7126C341.705 46.8253 341.416 46.8817 341.114 46.8817C340.786 46.8817 340.482 46.8253 340.204 46.7126C339.926 46.6 339.684 46.4399 339.478 46.2326C339.278 46.0207 339.12 45.7661 339.006 45.4686C338.892 45.1711 338.835 44.8375 338.835 44.4679C338.835 44.0892 338.892 43.7467 339.006 43.4402C339.12 43.1336 339.278 42.8745 339.478 42.6626C339.684 42.4508 339.926 42.2885 340.204 42.1758C340.482 42.0586 340.786 42 341.114 42C341.443 42 341.746 42.0586 342.025 42.1758C342.308 42.2885 342.552 42.4508 342.757 42.6626C342.963 42.8745 343.122 43.1336 343.236 43.4402C343.35 43.7467 343.408 44.0892 343.408 44.4679ZM342.107 44.4679C342.107 44.2064 342.08 43.9878 342.025 43.812C341.975 43.6362 341.904 43.4943 341.813 43.3861C341.726 43.2779 341.621 43.2013 341.498 43.1562C341.379 43.1066 341.251 43.0818 341.114 43.0818C340.977 43.0818 340.85 43.1066 340.731 43.1562C340.612 43.2013 340.51 43.2779 340.423 43.3861C340.341 43.4943 340.275 43.6362 340.225 43.812C340.174 43.9878 340.149 44.2064 340.149 44.4679C340.149 44.7203 340.174 44.9322 340.225 45.1034C340.275 45.2702 340.341 45.4055 340.423 45.5091C340.51 45.6128 340.612 45.6872 340.731 45.7323C340.85 45.7773 340.977 45.7999 341.114 45.7999C341.251 45.7999 341.379 45.7773 341.498 45.7323C341.621 45.6872 341.726 45.6128 341.813 45.5091C341.904 45.4055 341.975 45.2702 342.025 45.1034C342.08 44.9322 342.107 44.7203 342.107 44.4679ZM346.7 42.3651C346.759 42.2975 346.828 42.2366 346.905 42.1826C346.988 42.1285 347.102 42.1014 347.248 42.1014H348.48L341.128 51.6281C341.069 51.7002 340.998 51.7611 340.916 51.8107C340.834 51.8558 340.733 51.8783 340.615 51.8783H339.355L346.7 42.3651ZM349 49.5794C349 49.9491 348.936 50.2826 348.808 50.5801C348.685 50.8776 348.519 51.1323 348.309 51.3442C348.099 51.5515 347.855 51.7138 347.576 51.831C347.298 51.9437 347.008 52 346.707 52C346.378 52 346.075 51.9437 345.796 51.831C345.518 51.7138 345.276 51.5515 345.071 51.3442C344.87 51.1323 344.713 50.8776 344.599 50.5801C344.484 50.2826 344.427 49.9491 344.427 49.5794C344.427 49.2008 344.484 48.8582 344.599 48.5517C344.713 48.2452 344.87 47.986 345.071 47.7742C345.276 47.5623 345.518 47.4 345.796 47.2874C346.075 47.1702 346.378 47.1116 346.707 47.1116C347.035 47.1116 347.339 47.1702 347.617 47.2874C347.9 47.4 348.142 47.5623 348.343 47.7742C348.548 47.986 348.708 48.2452 348.822 48.5517C348.941 48.8582 349 49.2008 349 49.5794ZM347.693 49.5794C347.693 49.318 347.667 49.0994 347.617 48.9236C347.567 48.7478 347.496 48.6058 347.405 48.4976C347.318 48.3895 347.213 48.3128 347.09 48.2677C346.972 48.2182 346.844 48.1934 346.707 48.1934C346.57 48.1934 346.442 48.2182 346.324 48.2677C346.205 48.3128 346.102 48.3895 346.016 48.4976C345.929 48.6058 345.86 48.7478 345.81 48.9236C345.765 49.0994 345.742 49.318 345.742 49.5794C345.742 49.8319 345.765 50.0437 345.81 50.215C345.86 50.3863 345.929 50.5238 346.016 50.6275C346.102 50.7311 346.205 50.8055 346.324 50.8506C346.442 50.8957 346.57 50.9182 346.707 50.9182C346.844 50.9182 346.972 50.8957 347.09 50.8506C347.213 50.8055 347.318 50.7311 347.405 50.6275C347.496 50.5238 347.567 50.3863 347.617 50.215C347.667 50.0437 347.693 49.8319 347.693 49.5794Z" fill="#386EE6"/>
<path d="M417.297 44.8311C417.368 44.3626 417.505 43.9527 417.707 43.6014C417.91 43.2455 418.163 42.9505 418.465 42.7162C418.771 42.4775 419.12 42.2995 419.512 42.1824C419.908 42.0608 420.332 42 420.785 42C421.257 42 421.681 42.0653 422.059 42.1959C422.441 42.3221 422.766 42.5 423.035 42.7297C423.304 42.955 423.509 43.2207 423.65 43.527C423.797 43.8333 423.87 44.1644 423.87 44.5203C423.87 44.8311 423.832 45.1059 423.757 45.3446C423.686 45.5788 423.582 45.7838 423.445 45.9595C423.308 46.1351 423.139 46.2838 422.936 46.4054C422.733 46.527 422.504 46.6284 422.25 46.7095C422.863 46.8941 423.32 47.1757 423.622 47.5541C423.924 47.9324 424.075 48.4077 424.075 48.9797C424.075 49.4662 423.981 49.8964 423.792 50.2703C423.603 50.6441 423.349 50.9595 423.028 51.2162C422.707 51.4685 422.334 51.6599 421.91 51.7905C421.49 51.9212 421.044 51.9865 420.573 51.9865C420.059 51.9865 419.611 51.9302 419.229 51.8176C418.847 51.705 418.514 51.5383 418.231 51.3176C417.948 51.0968 417.707 50.8266 417.509 50.5068C417.311 50.1869 417.141 49.8176 417 49.3986L417.771 49.0946C417.974 49.0135 418.163 48.9932 418.337 49.0338C418.516 49.0698 418.646 49.1599 418.726 49.3041C418.811 49.4617 418.903 49.6171 419.002 49.7703C419.106 49.9234 419.229 50.0608 419.37 50.1824C419.512 50.2996 419.677 50.3964 419.865 50.473C420.059 50.545 420.287 50.5811 420.552 50.5811C420.849 50.5811 421.108 50.536 421.33 50.4459C421.552 50.3514 421.735 50.2297 421.882 50.0811C422.033 49.9324 422.143 49.768 422.214 49.5878C422.29 49.4032 422.327 49.2185 422.327 49.0338C422.327 48.7996 422.301 48.5878 422.25 48.3986C422.198 48.205 422.089 48.0405 421.924 47.9054C421.759 47.7703 421.521 47.6644 421.21 47.5878C420.903 47.5113 420.49 47.473 419.971 47.473V46.2838C420.401 46.2793 420.757 46.241 421.04 46.1689C421.323 46.0968 421.547 45.9977 421.712 45.8716C421.882 45.741 422 45.5856 422.066 45.4054C422.132 45.2252 422.165 45.027 422.165 44.8108C422.165 44.3514 422.03 44.0023 421.761 43.7635C421.493 43.5248 421.134 43.4054 420.686 43.4054C420.478 43.4054 420.287 43.4347 420.113 43.4932C419.938 43.5473 419.78 43.6261 419.639 43.7297C419.502 43.8288 419.387 43.9459 419.292 44.0811C419.198 44.2162 419.127 44.3649 419.08 44.527C419 44.7342 418.894 44.8716 418.762 44.9392C418.634 45.0068 418.453 45.0225 418.217 44.9865L417.297 44.8311Z" fill="white"/>
<path d="M427.076 45.0405C427.076 45.5856 427.222 46.0023 427.514 46.2905C427.812 46.5743 428.231 46.7162 428.774 46.7162C429.057 46.7162 429.309 46.6734 429.531 46.5878C429.752 46.5023 429.939 46.3851 430.09 46.2365C430.241 46.0878 430.354 45.9122 430.429 45.7095C430.509 45.5068 430.55 45.2883 430.55 45.0541C430.55 44.7883 430.507 44.5518 430.422 44.3446C430.337 44.1329 430.217 43.955 430.061 43.8108C429.906 43.6667 429.719 43.5563 429.502 43.4797C429.29 43.4032 429.057 43.3649 428.802 43.3649C428.538 43.3649 428.3 43.4077 428.087 43.4932C427.875 43.5743 427.694 43.6892 427.543 43.8378C427.392 43.9865 427.276 44.1644 427.196 44.3716C427.116 44.5743 427.076 44.7973 427.076 45.0405ZM429.396 48.0878C429.476 47.9932 429.552 47.9009 429.623 47.8108C429.693 47.7207 429.762 47.6306 429.828 47.5405C429.592 47.6847 429.333 47.795 429.05 47.8716C428.767 47.9437 428.47 47.9797 428.158 47.9797C427.804 47.9797 427.458 47.9212 427.118 47.8041C426.779 47.6869 426.477 47.5113 426.213 47.277C425.948 47.0383 425.734 46.7455 425.569 46.3986C425.408 46.0473 425.328 45.6374 425.328 45.1689C425.328 44.732 425.413 44.3221 425.583 43.9392C425.753 43.5563 425.991 43.2207 426.298 42.9324C426.604 42.6441 426.972 42.4167 427.401 42.25C427.83 42.0833 428.304 42 428.823 42C429.347 42 429.816 42.0788 430.231 42.2365C430.651 42.3941 431.007 42.6149 431.299 42.8986C431.597 43.1824 431.823 43.5225 431.979 43.9189C432.139 44.3153 432.219 44.75 432.219 45.223C432.219 45.5248 432.191 45.8108 432.134 46.0811C432.082 46.3514 432.007 46.6126 431.908 46.8649C431.809 47.1126 431.689 47.3559 431.547 47.5946C431.406 47.8333 431.248 48.0698 431.073 48.3041L428.731 51.4932C428.651 51.6014 428.531 51.6937 428.37 51.7703C428.21 51.8423 428.029 51.8784 427.826 51.8784H426.22L429.396 48.0878Z" fill="white"/>
<path d="M438.22 44.473C438.22 44.8423 438.154 45.1757 438.022 45.473C437.894 45.7703 437.722 46.0248 437.505 46.2365C437.288 46.4437 437.036 46.6036 436.748 46.7162C436.461 46.8288 436.161 46.8851 435.85 46.8851C435.51 46.8851 435.196 46.8288 434.909 46.7162C434.621 46.6036 434.371 46.4437 434.159 46.2365C433.951 46.0248 433.789 45.7703 433.671 45.473C433.553 45.1757 433.494 44.8423 433.494 44.473C433.494 44.0946 433.553 43.7523 433.671 43.4459C433.789 43.1396 433.951 42.8806 434.159 42.6689C434.371 42.4572 434.621 42.295 434.909 42.1824C435.196 42.0653 435.51 42.0068 435.85 42.0068C436.189 42.0068 436.503 42.0653 436.791 42.1824C437.083 42.295 437.335 42.4572 437.548 42.6689C437.76 42.8806 437.925 43.1396 438.043 43.4459C438.161 43.7523 438.22 44.0946 438.22 44.473ZM436.876 44.473C436.876 44.2117 436.847 43.9932 436.791 43.8176C436.739 43.6419 436.666 43.5 436.571 43.3919C436.482 43.2838 436.373 43.2072 436.246 43.1622C436.123 43.1126 435.991 43.0878 435.85 43.0878C435.708 43.0878 435.576 43.1126 435.454 43.1622C435.331 43.2072 435.225 43.2838 435.135 43.3919C435.05 43.5 434.982 43.6419 434.93 43.8176C434.878 43.9932 434.852 44.2117 434.852 44.473C434.852 44.7252 434.878 44.9369 434.93 45.1081C434.982 45.2748 435.05 45.4099 435.135 45.5135C435.225 45.6171 435.331 45.6914 435.454 45.7365C435.576 45.7815 435.708 45.8041 435.85 45.8041C435.991 45.8041 436.123 45.7815 436.246 45.7365C436.373 45.6914 436.482 45.6171 436.571 45.5135C436.666 45.4099 436.739 45.2748 436.791 45.1081C436.847 44.9369 436.876 44.7252 436.876 44.473ZM441.623 42.3716C441.684 42.3041 441.755 42.2432 441.835 42.1892C441.92 42.1351 442.038 42.1081 442.189 42.1081H443.462L435.864 51.6284C435.803 51.7005 435.729 51.7613 435.645 51.8108C435.56 51.8559 435.456 51.8784 435.333 51.8784H434.031L441.623 42.3716ZM444 49.5811C444 49.9505 443.934 50.2838 443.802 50.5811C443.675 50.8784 443.502 51.1329 443.285 51.3446C443.068 51.5518 442.816 51.714 442.528 51.8311C442.241 51.9437 441.941 52 441.63 52C441.29 52 440.977 51.9437 440.689 51.8311C440.401 51.714 440.151 51.5518 439.939 51.3446C439.731 51.1329 439.569 50.8784 439.451 50.5811C439.333 50.2838 439.274 49.9505 439.274 49.5811C439.274 49.2027 439.333 48.8604 439.451 48.5541C439.569 48.2477 439.731 47.9887 439.939 47.777C440.151 47.5653 440.401 47.4032 440.689 47.2905C440.977 47.1734 441.29 47.1149 441.63 47.1149C441.97 47.1149 442.283 47.1734 442.571 47.2905C442.863 47.4032 443.113 47.5653 443.321 47.777C443.533 47.9887 443.698 48.2477 443.816 48.5541C443.939 48.8604 444 49.2027 444 49.5811ZM442.649 49.5811C442.649 49.3198 442.623 49.1014 442.571 48.9257C442.519 48.75 442.446 48.6081 442.352 48.5C442.262 48.3919 442.153 48.3153 442.026 48.2703C441.903 48.2207 441.771 48.1959 441.63 48.1959C441.488 48.1959 441.356 48.2207 441.234 48.2703C441.111 48.3153 441.005 48.3919 440.915 48.5C440.826 48.6081 440.755 48.75 440.703 48.9257C440.656 49.1014 440.632 49.3198 440.632 49.5811C440.632 49.8333 440.656 50.045 440.703 50.2162C440.755 50.3874 440.826 50.5248 440.915 50.6284C441.005 50.732 441.111 50.8063 441.234 50.8514C441.356 50.8964 441.488 50.9189 441.63 50.9189C441.771 50.9189 441.903 50.8964 442.026 50.8514C442.153 50.8063 442.262 50.732 442.352 50.6284C442.446 50.5248 442.519 50.3874 442.571 50.2162C442.623 50.045 442.649 49.8333 442.649 49.5811Z" fill="white"/>
<path d="M322 70C322 68.3431 323.31 67 324.927 67H441.073C442.69 67 444 68.3431 444 70C444 71.6569 442.69 73 441.073 73H324.927C323.31 73 322 71.6569 322 70Z" fill="white"/>
<path d="M322 70C322 68.3431 323.317 67 324.941 67H395.059C396.683 67 398 68.3431 398 70C398 71.6569 396.683 73 395.059 73H324.941C323.317 73 322 71.6569 322 70Z" fill="#386EE6"/>
<path d="M19.9982 45.6511L19.6559 46.0703C19.8476 45.9757 20.0529 45.9035 20.272 45.854C20.4956 45.7999 20.7352 45.7728 20.9907 45.7728C21.3649 45.7728 21.7277 45.8337 22.0791 45.9554C22.435 46.0771 22.7476 46.2619 23.0169 46.5098C23.2861 46.7532 23.5029 47.0575 23.6672 47.4226C23.8315 47.7877 23.9136 48.2137 23.9136 48.7005C23.9136 49.1557 23.8292 49.584 23.6603 49.9851C23.4915 50.3818 23.2542 50.7289 22.9484 51.0264C22.6427 51.3239 22.273 51.5583 21.8395 51.7295C21.4106 51.9008 20.936 51.9865 20.4157 51.9865C19.8864 51.9865 19.4118 51.9031 18.9919 51.7363C18.5721 51.5695 18.2139 51.3374 17.9172 51.0399C17.6206 50.7379 17.3925 50.3773 17.2327 49.9581C17.0776 49.5344 17 49.0656 17 48.5517C17 48.092 17.0936 47.6209 17.2807 47.1386C17.4723 46.6518 17.7667 46.1469 18.1637 45.6241L20.5252 42.4936C20.6074 42.3854 20.726 42.293 20.8812 42.2164C21.0409 42.1397 21.2235 42.1014 21.4288 42.1014H22.9347L19.9982 45.6511ZM20.3815 50.6207C20.6507 50.6207 20.8972 50.5756 21.1208 50.4855C21.3489 50.3953 21.5429 50.2691 21.7026 50.1068C21.8669 49.9446 21.9947 49.7552 22.0859 49.5389C22.1772 49.318 22.2228 49.0791 22.2228 48.8222C22.2228 48.5427 22.1795 48.2925 22.0928 48.0717C22.0061 47.8463 21.8829 47.657 21.7231 47.5037C21.5634 47.346 21.3718 47.2265 21.1482 47.1454C20.9245 47.0642 20.6781 47.0237 20.4089 47.0237C20.1396 47.0237 19.8955 47.0687 19.6765 47.1589C19.4574 47.249 19.2703 47.3753 19.1151 47.5375C18.96 47.6953 18.8391 47.8846 18.7524 48.1055C18.6657 48.3218 18.6223 48.5562 18.6223 48.8087C18.6223 49.0791 18.6588 49.327 18.7318 49.5524C18.8094 49.7733 18.9212 49.9626 19.0672 50.1204C19.2178 50.2781 19.4026 50.4021 19.6217 50.4922C19.8407 50.5779 20.094 50.6207 20.3815 50.6207Z" fill="#386EE6"/>
<path d="M31.4512 50.6275V51.8783H25.9751V50.6275H27.9807V44.9277C27.9807 44.7023 27.9875 44.4701 28.0012 44.2312L26.5774 45.4077C26.4953 45.4708 26.4131 45.5114 26.331 45.5294C26.2534 45.5429 26.1781 45.5429 26.1051 45.5294C26.0367 45.5159 25.9751 45.4934 25.9203 45.4618C25.8655 45.4257 25.8245 45.3874 25.7971 45.3469L25.2632 44.6234L28.2819 42.0879H29.6714V50.6275H31.4512Z" fill="#386EE6"/>
<path d="M37.4075 44.4679C37.4075 44.8375 37.3436 45.1711 37.2159 45.4686C37.0926 45.7661 36.9261 46.0207 36.7162 46.2326C36.5062 46.4399 36.2621 46.6 35.9837 46.7126C35.7054 46.8253 35.4156 46.8817 35.1144 46.8817C34.7858 46.8817 34.4824 46.8253 34.204 46.7126C33.9256 46.6 33.6838 46.4399 33.4784 46.2326C33.2776 46.0207 33.1202 45.7661 33.0061 45.4686C32.892 45.1711 32.835 44.8375 32.835 44.4679C32.835 44.0892 32.892 43.7467 33.0061 43.4402C33.1202 43.1336 33.2776 42.8745 33.4784 42.6626C33.6838 42.4508 33.9256 42.2885 34.204 42.1758C34.4824 42.0586 34.7858 42 35.1144 42C35.443 42 35.7464 42.0586 36.0248 42.1758C36.3077 42.2885 36.5519 42.4508 36.7572 42.6626C36.9626 42.8745 37.1223 43.1336 37.2364 43.4402C37.3505 43.7467 37.4075 44.0892 37.4075 44.4679ZM36.1069 44.4679C36.1069 44.2064 36.0796 43.9878 36.0248 43.812C35.9746 43.6362 35.9039 43.4943 35.8126 43.3861C35.7259 43.2779 35.6209 43.2013 35.4977 43.1562C35.3791 43.1066 35.2513 43.0818 35.1144 43.0818C34.9775 43.0818 34.8497 43.1066 34.7311 43.1562C34.6124 43.2013 34.5097 43.2779 34.423 43.3861C34.3409 43.4943 34.2747 43.6362 34.2245 43.812C34.1743 43.9878 34.1492 44.2064 34.1492 44.4679C34.1492 44.7203 34.1743 44.9322 34.2245 45.1034C34.2747 45.2702 34.3409 45.4055 34.423 45.5091C34.5097 45.6128 34.6124 45.6872 34.7311 45.7323C34.8497 45.7773 34.9775 45.7999 35.1144 45.7999C35.2513 45.7999 35.3791 45.7773 35.4977 45.7323C35.6209 45.6872 35.7259 45.6128 35.8126 45.5091C35.9039 45.4055 35.9746 45.2702 36.0248 45.1034C36.0796 44.9322 36.1069 44.7203 36.1069 44.4679ZM40.7 42.3651C40.7594 42.2975 40.8278 42.2366 40.9054 42.1826C40.9875 42.1285 41.1016 42.1014 41.2476 42.1014H42.4798L35.1281 51.6281C35.0688 51.7002 34.998 51.7611 34.9159 51.8107C34.8337 51.8558 34.7333 51.8783 34.6147 51.8783H33.3552L40.7 42.3651ZM43 49.5794C43 49.9491 42.9361 50.2826 42.8083 50.5801C42.6851 50.8776 42.5186 51.1323 42.3086 51.3442C42.0987 51.5515 41.8546 51.7138 41.5762 51.831C41.2978 51.9437 41.0081 52 40.7069 52C40.3783 52 40.0748 51.9437 39.7965 51.831C39.5181 51.7138 39.2762 51.5515 39.0709 51.3442C38.8701 51.1323 38.7127 50.8776 38.5986 50.5801C38.4845 50.2826 38.4274 49.9491 38.4274 49.5794C38.4274 49.2008 38.4845 48.8582 38.5986 48.5517C38.7127 48.2452 38.8701 47.986 39.0709 47.7742C39.2762 47.5623 39.5181 47.4 39.7965 47.2874C40.0748 47.1702 40.3783 47.1116 40.7069 47.1116C41.0354 47.1116 41.3389 47.1702 41.6173 47.2874C41.9002 47.4 42.1421 47.5623 42.3429 47.7742C42.5482 47.986 42.7079 48.2452 42.822 48.5517C42.9407 48.8582 43 49.2008 43 49.5794ZM41.6926 49.5794C41.6926 49.318 41.6675 49.0994 41.6173 48.9236C41.5671 48.7478 41.4963 48.6058 41.4051 48.4976C41.3184 48.3895 41.2134 48.3128 41.0902 48.2677C40.9716 48.2182 40.8438 48.1934 40.7069 48.1934C40.57 48.1934 40.4422 48.2182 40.3235 48.2677C40.2049 48.3128 40.1022 48.3895 40.0155 48.4976C39.9288 48.6058 39.8604 48.7478 39.8102 48.9236C39.7645 49.0994 39.7417 49.318 39.7417 49.5794C39.7417 49.8319 39.7645 50.0437 39.8102 50.215C39.8604 50.3863 39.9288 50.5238 40.0155 50.6275C40.1022 50.7311 40.2049 50.8055 40.3235 50.8506C40.4422 50.8957 40.57 50.9182 40.7069 50.9182C40.8438 50.9182 40.9716 50.8957 41.0902 50.8506C41.2134 50.8055 41.3184 50.7311 41.4051 50.6275C41.4963 50.5238 41.5671 50.3863 41.6173 50.215C41.6675 50.0437 41.6926 49.8319 41.6926 49.5794Z" fill="#386EE6"/>
<path d="M16 70C16 68.3431 17.3103 67 18.9265 67H135.073C136.69 67 138 68.3431 138 70C138 71.6569 136.69 73 135.073 73H18.9265C17.3103 73 16 71.6569 16 70Z" fill="white"/>
<path d="M16 70C16 68.3431 17.0632 67 18.3748 67H112.625C113.937 67 115 68.3431 115 70C115 71.6569 113.937 73 112.625 73H18.3748C17.0632 73 16 71.6569 16 70Z" fill="#89AAFF"/>
<path d="M16 70C16 68.3431 17.3166 67 18.9407 67H89.0593C90.6834 67 92 68.3431 92 70C92 71.6569 90.6834 73 89.0593 73H18.9407C17.3166 73 16 71.6569 16 70Z" fill="#386EE6"/>
<rect x="0.5" y="127.5" width="459" height="80" rx="4.5" stroke="white"/>
<rect x="0.5" y="0.5" width="459" height="116" rx="4.5" stroke="white"/>
<path d="M154 7.5V106.5" stroke="white"/>
<path d="M306 7.5V106.5" stroke="white"/>
<path d="M210.371 95.2324H206.791V99H205.666V90.4688H210.951V91.3945H206.791V94.3125H210.371V95.2324ZM214.631 99.1172C213.771 99.1172 213.072 98.8359 212.533 98.2734C211.994 97.707 211.725 96.9512 211.725 96.0059V95.8066C211.725 95.1777 211.844 94.6172 212.082 94.125C212.324 93.6289 212.66 93.2422 213.09 92.9648C213.523 92.6836 213.992 92.543 214.496 92.543C215.32 92.543 215.961 92.8145 216.418 93.3574C216.875 93.9004 217.104 94.6777 217.104 95.6895V96.1406H212.809C212.824 96.7656 213.006 97.2715 213.354 97.6582C213.705 98.041 214.15 98.2324 214.689 98.2324C215.072 98.2324 215.396 98.1543 215.662 97.998C215.928 97.8418 216.16 97.6348 216.359 97.377L217.021 97.8926C216.49 98.709 215.693 99.1172 214.631 99.1172ZM214.496 93.4336C214.059 93.4336 213.691 93.5938 213.395 93.9141C213.098 94.2305 212.914 94.6758 212.844 95.25H216.02V95.168C215.988 94.6172 215.84 94.1914 215.574 93.8906C215.309 93.5859 214.949 93.4336 214.496 93.4336ZM222.277 99C222.215 98.875 222.164 98.6523 222.125 98.332C221.621 98.8555 221.02 99.1172 220.32 99.1172C219.695 99.1172 219.182 98.9414 218.779 98.5898C218.381 98.2344 218.182 97.7852 218.182 97.2422C218.182 96.582 218.432 96.0703 218.932 95.707C219.436 95.3398 220.143 95.1562 221.053 95.1562H222.107V94.6582C222.107 94.2793 221.994 93.9785 221.768 93.7559C221.541 93.5293 221.207 93.416 220.766 93.416C220.379 93.416 220.055 93.5137 219.793 93.709C219.531 93.9043 219.4 94.1406 219.4 94.418H218.311C218.311 94.1016 218.422 93.7969 218.645 93.5039C218.871 93.207 219.176 92.9727 219.559 92.8008C219.945 92.6289 220.369 92.543 220.83 92.543C221.561 92.543 222.133 92.7266 222.547 93.0938C222.961 93.457 223.176 93.959 223.191 94.5996V97.5176C223.191 98.0996 223.266 98.5625 223.414 98.9062V99H222.277ZM220.479 98.1738C220.818 98.1738 221.141 98.0859 221.445 97.9102C221.75 97.7344 221.971 97.5059 222.107 97.2246V95.9238H221.258C219.93 95.9238 219.266 96.3125 219.266 97.0898C219.266 97.4297 219.379 97.6953 219.605 97.8867C219.832 98.0781 220.123 98.1738 220.479 98.1738ZM227.955 93.6328C227.791 93.6055 227.613 93.5918 227.422 93.5918C226.711 93.5918 226.229 93.8945 225.975 94.5V99H224.891V92.6602H225.945L225.963 93.3926C226.318 92.8262 226.822 92.543 227.475 92.543C227.686 92.543 227.846 92.5703 227.955 92.625V93.6328ZM233.111 99H232.027V90H233.111V99ZM237.482 99.1172C236.623 99.1172 235.924 98.8359 235.385 98.2734C234.846 97.707 234.576 96.9512 234.576 96.0059V95.8066C234.576 95.1777 234.695 94.6172 234.934 94.125C235.176 93.6289 235.512 93.2422 235.941 92.9648C236.375 92.6836 236.844 92.543 237.348 92.543C238.172 92.543 238.812 92.8145 239.27 93.3574C239.727 93.9004 239.955 94.6777 239.955 95.6895V96.1406H235.66C235.676 96.7656 235.857 97.2715 236.205 97.6582C236.557 98.041 237.002 98.2324 237.541 98.2324C237.924 98.2324 238.248 98.1543 238.514 97.998C238.779 97.8418 239.012 97.6348 239.211 97.377L239.873 97.8926C239.342 98.709 238.545 99.1172 237.482 99.1172ZM237.348 93.4336C236.91 93.4336 236.543 93.5938 236.246 93.9141C235.949 94.2305 235.766 94.6758 235.695 95.25H238.871V95.168C238.84 94.6172 238.691 94.1914 238.426 93.8906C238.16 93.5859 237.801 93.4336 237.348 93.4336ZM243.225 97.5293L244.795 92.6602H245.902L243.629 99H242.803L240.506 92.6602H241.613L243.225 97.5293ZM249.494 99.1172C248.635 99.1172 247.936 98.8359 247.396 98.2734C246.857 97.707 246.588 96.9512 246.588 96.0059V95.8066C246.588 95.1777 246.707 94.6172 246.945 94.125C247.188 93.6289 247.523 93.2422 247.953 92.9648C248.387 92.6836 248.855 92.543 249.359 92.543C250.184 92.543 250.824 92.8145 251.281 93.3574C251.738 93.9004 251.967 94.6777 251.967 95.6895V96.1406H247.672C247.688 96.7656 247.869 97.2715 248.217 97.6582C248.568 98.041 249.014 98.2324 249.553 98.2324C249.936 98.2324 250.26 98.1543 250.525 97.998C250.791 97.8418 251.023 97.6348 251.223 97.377L251.885 97.8926C251.354 98.709 250.557 99.1172 249.494 99.1172ZM249.359 93.4336C248.922 93.4336 248.555 93.5938 248.258 93.9141C247.961 94.2305 247.777 94.6758 247.707 95.25H250.883V95.168C250.852 94.6172 250.703 94.1914 250.438 93.8906C250.172 93.5859 249.812 93.4336 249.359 93.4336ZM254.404 99H253.32V90H254.404V99Z" fill="#787878"/>
<path d="M34.877 99H33.7461L29.4512 92.4258V99H28.3203V90.4688H29.4512L33.7578 97.0723V90.4688H34.877V99ZM40.6191 98.373C40.1973 98.8691 39.5781 99.1172 38.7617 99.1172C38.0859 99.1172 37.5703 98.9219 37.2148 98.5312C36.8633 98.1367 36.6855 97.5547 36.6816 96.7852V92.6602H37.7656V96.7559C37.7656 97.7168 38.1562 98.1973 38.9375 98.1973C39.7656 98.1973 40.3164 97.8887 40.5898 97.2715V92.6602H41.6738V99H40.6426L40.6191 98.373ZM44.3457 92.6602L44.375 93.3633C44.8398 92.8164 45.4668 92.543 46.2559 92.543C47.1426 92.543 47.7461 92.8828 48.0664 93.5625C48.2773 93.2578 48.5508 93.0117 48.8867 92.8242C49.2266 92.6367 49.627 92.543 50.0879 92.543C51.4785 92.543 52.1855 93.2793 52.209 94.752V99H51.125V94.8164C51.125 94.3633 51.0215 94.0254 50.8145 93.8027C50.6074 93.5762 50.2598 93.4629 49.7715 93.4629C49.3691 93.4629 49.0352 93.584 48.7695 93.8262C48.5039 94.0645 48.3496 94.3867 48.3066 94.793V99H47.2168V94.8457C47.2168 93.9238 46.7656 93.4629 45.8633 93.4629C45.1523 93.4629 44.666 93.7656 44.4043 94.3711V99H43.3203V92.6602H44.3457ZM59.2168 95.9004C59.2168 96.8691 58.9941 97.6484 58.5488 98.2383C58.1035 98.8242 57.5059 99.1172 56.7559 99.1172C55.9551 99.1172 55.3359 98.834 54.8984 98.2676L54.8457 99H53.8496V90H54.9336V93.3574C55.3711 92.8145 55.9746 92.543 56.7441 92.543C57.5137 92.543 58.1172 92.834 58.5547 93.416C58.9961 93.998 59.2168 94.7949 59.2168 95.8066V95.9004ZM58.1328 95.7773C58.1328 95.0391 57.9902 94.4688 57.7051 94.0664C57.4199 93.6641 57.0098 93.4629 56.4746 93.4629C55.7598 93.4629 55.2461 93.7949 54.9336 94.459V97.2012C55.2656 97.8652 55.7832 98.1973 56.4863 98.1973C57.0059 98.1973 57.4102 97.9961 57.6992 97.5938C57.9883 97.1914 58.1328 96.5859 58.1328 95.7773ZM63.2188 99.1172C62.3594 99.1172 61.6602 98.8359 61.1211 98.2734C60.582 97.707 60.3125 96.9512 60.3125 96.0059V95.8066C60.3125 95.1777 60.4316 94.6172 60.6699 94.125C60.9121 93.6289 61.248 93.2422 61.6777 92.9648C62.1113 92.6836 62.5801 92.543 63.084 92.543C63.9082 92.543 64.5488 92.8145 65.0059 93.3574C65.4629 93.9004 65.6914 94.6777 65.6914 95.6895V96.1406H61.3965C61.4121 96.7656 61.5938 97.2715 61.9414 97.6582C62.293 98.041 62.7383 98.2324 63.2773 98.2324C63.6602 98.2324 63.9844 98.1543 64.25 97.998C64.5156 97.8418 64.748 97.6348 64.9473 97.377L65.6094 97.8926C65.0781 98.709 64.2812 99.1172 63.2188 99.1172ZM63.084 93.4336C62.6465 93.4336 62.2793 93.5938 61.9824 93.9141C61.6855 94.2305 61.502 94.6758 61.4316 95.25H64.6074V95.168C64.5762 94.6172 64.4277 94.1914 64.1621 93.8906C63.8965 93.5859 63.5371 93.4336 63.084 93.4336ZM70.0156 93.6328C69.8516 93.6055 69.6738 93.5918 69.4824 93.5918C68.7715 93.5918 68.2891 93.8945 68.0352 94.5V99H66.9512V92.6602H68.0059L68.0234 93.3926C68.3789 92.8262 68.8828 92.543 69.5352 92.543C69.7461 92.543 69.9062 92.5703 70.0156 92.625V93.6328ZM73.707 95.7715C73.707 95.1504 73.8281 94.5918 74.0703 94.0957C74.3164 93.5996 74.6562 93.2168 75.0898 92.9473C75.5273 92.6777 76.0254 92.543 76.584 92.543C77.4473 92.543 78.1445 92.8418 78.6758 93.4395C79.2109 94.0371 79.4785 94.832 79.4785 95.8242V95.9004C79.4785 96.5176 79.3594 97.0723 79.1211 97.5645C78.8867 98.0527 78.5488 98.4336 78.1074 98.707C77.6699 98.9805 77.166 99.1172 76.5957 99.1172C75.7363 99.1172 75.0391 98.8184 74.5039 98.2207C73.9727 97.623 73.707 96.832 73.707 95.8477V95.7715ZM74.7969 95.9004C74.7969 96.6035 74.959 97.168 75.2832 97.5938C75.6113 98.0195 76.0488 98.2324 76.5957 98.2324C77.1465 98.2324 77.584 98.0176 77.9082 97.5879C78.2324 97.1543 78.3945 96.5488 78.3945 95.7715C78.3945 95.0762 78.2285 94.5137 77.8965 94.084C77.5684 93.6504 77.1309 93.4336 76.584 93.4336C76.0488 93.4336 75.6172 93.6465 75.2891 94.0723C74.9609 94.498 74.7969 95.1074 74.7969 95.9004ZM81.3711 99V93.498H80.3691V92.6602H81.3711V92.0098C81.3711 91.3301 81.5527 90.8047 81.916 90.4336C82.2793 90.0625 82.793 89.877 83.457 89.877C83.707 89.877 83.9551 89.9102 84.2012 89.9766L84.1426 90.8555C83.959 90.8203 83.7637 90.8027 83.5566 90.8027C83.2051 90.8027 82.9336 90.9062 82.7422 91.1133C82.5508 91.3164 82.4551 91.6094 82.4551 91.9922V92.6602H83.8086V93.498H82.4551V99H81.3711ZM90.5293 98.2324C90.916 98.2324 91.2539 98.1152 91.543 97.8809C91.832 97.6465 91.9922 97.3535 92.0234 97.002H93.0488C93.0293 97.3652 92.9043 97.7109 92.6738 98.0391C92.4434 98.3672 92.1348 98.6289 91.748 98.8242C91.3652 99.0195 90.959 99.1172 90.5293 99.1172C89.666 99.1172 88.9785 98.8301 88.4668 98.2559C87.959 97.6777 87.7051 96.8887 87.7051 95.8887V95.707C87.7051 95.0898 87.8184 94.541 88.0449 94.0605C88.2715 93.5801 88.5957 93.207 89.0176 92.9414C89.4434 92.6758 89.9453 92.543 90.5234 92.543C91.2344 92.543 91.8242 92.7559 92.293 93.1816C92.7656 93.6074 93.0176 94.1602 93.0488 94.8398H92.0234C91.9922 94.4297 91.8359 94.0938 91.5547 93.832C91.2773 93.5664 90.9336 93.4336 90.5234 93.4336C89.9727 93.4336 89.5449 93.6328 89.2402 94.0312C88.9395 94.4258 88.7891 94.998 88.7891 95.748V95.9531C88.7891 96.6836 88.9395 97.2461 89.2402 97.6406C89.541 98.0352 89.9707 98.2324 90.5293 98.2324ZM93.9805 95.7715C93.9805 95.1504 94.1016 94.5918 94.3438 94.0957C94.5898 93.5996 94.9297 93.2168 95.3633 92.9473C95.8008 92.6777 96.2988 92.543 96.8574 92.543C97.7207 92.543 98.418 92.8418 98.9492 93.4395C99.4844 94.0371 99.752 94.832 99.752 95.8242V95.9004C99.752 96.5176 99.6328 97.0723 99.3945 97.5645C99.1602 98.0527 98.8223 98.4336 98.3809 98.707C97.9434 98.9805 97.4395 99.1172 96.8691 99.1172C96.0098 99.1172 95.3125 98.8184 94.7773 98.2207C94.2461 97.623 93.9805 96.832 93.9805 95.8477V95.7715ZM95.0703 95.9004C95.0703 96.6035 95.2324 97.168 95.5566 97.5938C95.8848 98.0195 96.3223 98.2324 96.8691 98.2324C97.4199 98.2324 97.8574 98.0176 98.1816 97.5879C98.5059 97.1543 98.668 96.5488 98.668 95.7715C98.668 95.0762 98.502 94.5137 98.1699 94.084C97.8418 93.6504 97.4043 93.4336 96.8574 93.4336C96.3223 93.4336 95.8906 93.6465 95.5625 94.0723C95.2344 94.498 95.0703 95.1074 95.0703 95.9004ZM100.824 95.7715C100.824 95.1504 100.945 94.5918 101.188 94.0957C101.434 93.5996 101.773 93.2168 102.207 92.9473C102.645 92.6777 103.143 92.543 103.701 92.543C104.564 92.543 105.262 92.8418 105.793 93.4395C106.328 94.0371 106.596 94.832 106.596 95.8242V95.9004C106.596 96.5176 106.477 97.0723 106.238 97.5645C106.004 98.0527 105.666 98.4336 105.225 98.707C104.787 98.9805 104.283 99.1172 103.713 99.1172C102.854 99.1172 102.156 98.8184 101.621 98.2207C101.09 97.623 100.824 96.832 100.824 95.8477V95.7715ZM101.914 95.9004C101.914 96.6035 102.076 97.168 102.4 97.5938C102.729 98.0195 103.166 98.2324 103.713 98.2324C104.264 98.2324 104.701 98.0176 105.025 97.5879C105.35 97.1543 105.512 96.5488 105.512 95.7715C105.512 95.0762 105.346 94.5137 105.014 94.084C104.686 93.6504 104.248 93.4336 103.701 93.4336C103.166 93.4336 102.734 93.6465 102.406 94.0723C102.078 94.498 101.914 95.1074 101.914 95.9004ZM109.133 99H108.049V90H109.133V99ZM113.504 99.1172C112.645 99.1172 111.945 98.8359 111.406 98.2734C110.867 97.707 110.598 96.9512 110.598 96.0059V95.8066C110.598 95.1777 110.717 94.6172 110.955 94.125C111.197 93.6289 111.533 93.2422 111.963 92.9648C112.396 92.6836 112.865 92.543 113.369 92.543C114.193 92.543 114.834 92.8145 115.291 93.3574C115.748 93.9004 115.977 94.6777 115.977 95.6895V96.1406H111.682C111.697 96.7656 111.879 97.2715 112.227 97.6582C112.578 98.041 113.023 98.2324 113.562 98.2324C113.945 98.2324 114.27 98.1543 114.535 97.998C114.801 97.8418 115.033 97.6348 115.232 97.377L115.895 97.8926C115.363 98.709 114.566 99.1172 113.504 99.1172ZM113.369 93.4336C112.932 93.4336 112.564 93.5938 112.268 93.9141C111.971 94.2305 111.787 94.6758 111.717 95.25H114.893V95.168C114.861 94.6172 114.713 94.1914 114.447 93.8906C114.182 93.5859 113.822 93.4336 113.369 93.4336ZM120.301 93.6328C120.137 93.6055 119.959 93.5918 119.768 93.5918C119.057 93.5918 118.574 93.8945 118.32 94.5V99H117.236V92.6602H118.291L118.309 93.3926C118.664 92.8262 119.168 92.543 119.82 92.543C120.031 92.543 120.191 92.5703 120.301 92.625V93.6328ZM124.994 97.3184C124.994 97.0254 124.883 96.7988 124.66 96.6387C124.441 96.4746 124.057 96.334 123.506 96.2168C122.959 96.0996 122.523 95.959 122.199 95.7949C121.879 95.6309 121.641 95.4355 121.484 95.209C121.332 94.9824 121.256 94.7129 121.256 94.4004C121.256 93.8809 121.475 93.4414 121.912 93.082C122.354 92.7227 122.916 92.543 123.6 92.543C124.318 92.543 124.9 92.7285 125.346 93.0996C125.795 93.4707 126.02 93.9453 126.02 94.5234H124.93C124.93 94.2266 124.803 93.9707 124.549 93.7559C124.299 93.541 123.982 93.4336 123.6 93.4336C123.205 93.4336 122.896 93.5195 122.674 93.6914C122.451 93.8633 122.34 94.0879 122.34 94.3652C122.34 94.627 122.443 94.8242 122.65 94.957C122.857 95.0898 123.23 95.2168 123.77 95.3379C124.312 95.459 124.752 95.6035 125.088 95.7715C125.424 95.9395 125.672 96.1426 125.832 96.3809C125.996 96.6152 126.078 96.9023 126.078 97.2422C126.078 97.8086 125.852 98.2637 125.398 98.6074C124.945 98.9473 124.357 99.1172 123.635 99.1172C123.127 99.1172 122.678 99.0273 122.287 98.8477C121.896 98.668 121.59 98.418 121.367 98.0977C121.148 97.7734 121.039 97.4238 121.039 97.0488H122.123C122.143 97.4121 122.287 97.7012 122.557 97.916C122.83 98.127 123.189 98.2324 123.635 98.2324C124.045 98.2324 124.373 98.1504 124.619 97.9863C124.869 97.8184 124.994 97.5957 124.994 97.3184Z" fill="#787878"/>
<path d="M350.17 99V90.4688H352.959C353.885 90.4688 354.58 90.6602 355.045 91.043C355.514 91.4258 355.748 91.9922 355.748 92.7422C355.748 93.1406 355.635 93.4941 355.408 93.8027C355.182 94.1074 354.873 94.3438 354.482 94.5117C354.943 94.6406 355.307 94.8867 355.572 95.25C355.842 95.6094 355.977 96.0391 355.977 96.5391C355.977 97.3047 355.729 97.9062 355.232 98.3438C354.736 98.7812 354.035 99 353.129 99H350.17ZM351.295 95.0098V98.0801H353.152C353.676 98.0801 354.088 97.9453 354.389 97.6758C354.693 97.4023 354.846 97.0273 354.846 96.5508C354.846 95.5234 354.287 95.0098 353.17 95.0098H351.295ZM351.295 94.1074H352.994C353.486 94.1074 353.879 93.9844 354.172 93.7383C354.469 93.4922 354.617 93.1582 354.617 92.7363C354.617 92.2676 354.48 91.9277 354.207 91.7168C353.934 91.502 353.518 91.3945 352.959 91.3945H351.295V94.1074ZM358.654 99H357.57V92.6602H358.654V99ZM357.482 90.9785C357.482 90.8027 357.535 90.6543 357.641 90.5332C357.75 90.4121 357.91 90.3516 358.121 90.3516C358.332 90.3516 358.492 90.4121 358.602 90.5332C358.711 90.6543 358.766 90.8027 358.766 90.9785C358.766 91.1543 358.711 91.3008 358.602 91.418C358.492 91.5352 358.332 91.5938 358.121 91.5938C357.91 91.5938 357.75 91.5352 357.641 91.418C357.535 91.3008 357.482 91.1543 357.482 90.9785ZM360.137 95.7773C360.137 94.7891 360.365 94.0039 360.822 93.4219C361.279 92.8359 361.885 92.543 362.639 92.543C363.412 92.543 364.016 92.8164 364.449 93.3633L364.502 92.6602H365.492V98.8477C365.492 99.668 365.248 100.314 364.76 100.787C364.275 101.26 363.623 101.496 362.803 101.496C362.346 101.496 361.898 101.398 361.461 101.203C361.023 101.008 360.689 100.74 360.459 100.4L361.021 99.75C361.486 100.324 362.055 100.611 362.727 100.611C363.254 100.611 363.664 100.463 363.957 100.166C364.254 99.8691 364.402 99.4512 364.402 98.9121V98.3672C363.969 98.8672 363.377 99.1172 362.627 99.1172C361.885 99.1172 361.283 98.8184 360.822 98.2207C360.365 97.623 360.137 96.8086 360.137 95.7773ZM361.227 95.9004C361.227 96.6152 361.373 97.1777 361.666 97.5879C361.959 97.9941 362.369 98.1973 362.896 98.1973C363.58 98.1973 364.082 97.8867 364.402 97.2656V94.3711C364.07 93.7656 363.572 93.4629 362.908 93.4629C362.381 93.4629 361.969 93.668 361.672 94.0781C361.375 94.4883 361.227 95.0957 361.227 95.9004ZM373.174 93.6328C373.01 93.6055 372.832 93.5918 372.641 93.5918C371.93 93.5918 371.447 93.8945 371.193 94.5V99H370.109V92.6602H371.164L371.182 93.3926C371.537 92.8262 372.041 92.543 372.693 92.543C372.904 92.543 373.064 92.5703 373.174 92.625V93.6328ZM376.689 99.1172C375.83 99.1172 375.131 98.8359 374.592 98.2734C374.053 97.707 373.783 96.9512 373.783 96.0059V95.8066C373.783 95.1777 373.902 94.6172 374.141 94.125C374.383 93.6289 374.719 93.2422 375.148 92.9648C375.582 92.6836 376.051 92.543 376.555 92.543C377.379 92.543 378.02 92.8145 378.477 93.3574C378.934 93.9004 379.162 94.6777 379.162 95.6895V96.1406H374.867C374.883 96.7656 375.064 97.2715 375.412 97.6582C375.764 98.041 376.209 98.2324 376.748 98.2324C377.131 98.2324 377.455 98.1543 377.721 97.998C377.986 97.8418 378.219 97.6348 378.418 97.377L379.08 97.8926C378.549 98.709 377.752 99.1172 376.689 99.1172ZM376.555 93.4336C376.117 93.4336 375.75 93.5938 375.453 93.9141C375.156 94.2305 374.973 94.6758 374.902 95.25H378.078V95.168C378.047 94.6172 377.898 94.1914 377.633 93.8906C377.367 93.5859 377.008 93.4336 376.555 93.4336ZM381.893 91.125V92.6602H383.076V93.498H381.893V97.4297C381.893 97.6836 381.945 97.875 382.051 98.0039C382.156 98.1289 382.336 98.1914 382.59 98.1914C382.715 98.1914 382.887 98.168 383.105 98.1211V99C382.82 99.0781 382.543 99.1172 382.273 99.1172C381.789 99.1172 381.424 98.9707 381.178 98.6777C380.932 98.3848 380.809 97.9688 380.809 97.4297V93.498H379.654V92.6602H380.809V91.125H381.893ZM386.979 99.1172C386.119 99.1172 385.42 98.8359 384.881 98.2734C384.342 97.707 384.072 96.9512 384.072 96.0059V95.8066C384.072 95.1777 384.191 94.6172 384.43 94.125C384.672 93.6289 385.008 93.2422 385.438 92.9648C385.871 92.6836 386.34 92.543 386.844 92.543C387.668 92.543 388.309 92.8145 388.766 93.3574C389.223 93.9004 389.451 94.6777 389.451 95.6895V96.1406H385.156C385.172 96.7656 385.354 97.2715 385.701 97.6582C386.053 98.041 386.498 98.2324 387.037 98.2324C387.42 98.2324 387.744 98.1543 388.01 97.998C388.275 97.8418 388.508 97.6348 388.707 97.377L389.369 97.8926C388.838 98.709 388.041 99.1172 386.979 99.1172ZM386.844 93.4336C386.406 93.4336 386.039 93.5938 385.742 93.9141C385.445 94.2305 385.262 94.6758 385.191 95.25H388.367V95.168C388.336 94.6172 388.188 94.1914 387.922 93.8906C387.656 93.5859 387.297 93.4336 386.844 93.4336ZM391.736 92.6602L391.771 93.457C392.256 92.8477 392.889 92.543 393.67 92.543C395.01 92.543 395.686 93.2988 395.697 94.8105V99H394.613V94.8047C394.609 94.3477 394.504 94.0098 394.297 93.791C394.094 93.5723 393.775 93.4629 393.342 93.4629C392.99 93.4629 392.682 93.5566 392.416 93.7441C392.15 93.9316 391.943 94.1777 391.795 94.4824V99H390.711V92.6602H391.736ZM398.803 91.125V92.6602H399.986V93.498H398.803V97.4297C398.803 97.6836 398.855 97.875 398.961 98.0039C399.066 98.1289 399.246 98.1914 399.5 98.1914C399.625 98.1914 399.797 98.168 400.016 98.1211V99C399.73 99.0781 399.453 99.1172 399.184 99.1172C398.699 99.1172 398.334 98.9707 398.088 98.6777C397.842 98.3848 397.719 97.9688 397.719 97.4297V93.498H396.564V92.6602H397.719V91.125H398.803ZM402.436 99H401.352V92.6602H402.436V99ZM401.264 90.9785C401.264 90.8027 401.316 90.6543 401.422 90.5332C401.531 90.4121 401.691 90.3516 401.902 90.3516C402.113 90.3516 402.273 90.4121 402.383 90.5332C402.492 90.6543 402.547 90.8027 402.547 90.9785C402.547 91.1543 402.492 91.3008 402.383 91.418C402.273 91.5352 402.113 91.5938 401.902 91.5938C401.691 91.5938 401.531 91.5352 401.422 91.418C401.316 91.3008 401.264 91.1543 401.264 90.9785ZM403.889 95.7715C403.889 95.1504 404.01 94.5918 404.252 94.0957C404.498 93.5996 404.838 93.2168 405.271 92.9473C405.709 92.6777 406.207 92.543 406.766 92.543C407.629 92.543 408.326 92.8418 408.857 93.4395C409.393 94.0371 409.66 94.832 409.66 95.8242V95.9004C409.66 96.5176 409.541 97.0723 409.303 97.5645C409.068 98.0527 408.73 98.4336 408.289 98.707C407.852 98.9805 407.348 99.1172 406.777 99.1172C405.918 99.1172 405.221 98.8184 404.686 98.2207C404.154 97.623 403.889 96.832 403.889 95.8477V95.7715ZM404.979 95.9004C404.979 96.6035 405.141 97.168 405.465 97.5938C405.793 98.0195 406.23 98.2324 406.777 98.2324C407.328 98.2324 407.766 98.0176 408.09 97.5879C408.414 97.1543 408.576 96.5488 408.576 95.7715C408.576 95.0762 408.41 94.5137 408.078 94.084C407.75 93.6504 407.312 93.4336 406.766 93.4336C406.23 93.4336 405.799 93.6465 405.471 94.0723C405.143 94.498 404.979 95.1074 404.979 95.9004ZM412.045 92.6602L412.08 93.457C412.564 92.8477 413.197 92.543 413.979 92.543C415.318 92.543 415.994 93.2988 416.006 94.8105V99H414.922V94.8047C414.918 94.3477 414.812 94.0098 414.605 93.791C414.402 93.5723 414.084 93.4629 413.65 93.4629C413.299 93.4629 412.99 93.5566 412.725 93.7441C412.459 93.9316 412.252 94.1777 412.104 94.4824V99H411.02V92.6602H412.045Z" fill="#787878"/>
<path d="M70.8825 50.505C71.0558 50.505 71.1923 50.5548 71.292 50.6545C71.396 50.7498 71.448 50.8777 71.448 51.038V52H65V51.467C65 51.3587 65.0217 51.246 65.065 51.129C65.1127 51.0077 65.1863 50.8993 65.286 50.804L68.1395 47.944C68.3778 47.7013 68.5902 47.4695 68.7765 47.2485C68.9672 47.0275 69.1253 46.8087 69.251 46.592C69.3767 46.3753 69.472 46.1565 69.537 45.9355C69.6063 45.7102 69.641 45.474 69.641 45.227C69.641 45.0017 69.6085 44.8045 69.5435 44.6355C69.4785 44.4622 69.3853 44.317 69.264 44.2C69.147 44.083 69.004 43.9963 68.835 43.94C68.6703 43.8793 68.484 43.849 68.276 43.849C68.0853 43.849 67.9077 43.8772 67.743 43.9335C67.5827 43.9855 67.4397 44.0613 67.314 44.161C67.1883 44.2563 67.0822 44.369 66.9955 44.499C66.9088 44.629 66.8438 44.772 66.8005 44.928C66.7268 45.1273 66.6315 45.2595 66.5145 45.3245C66.3975 45.3895 66.2285 45.4047 66.0075 45.37L65.1625 45.2205C65.2275 44.7698 65.3532 44.3755 65.5395 44.0375C65.7258 43.6952 65.9577 43.4113 66.235 43.186C66.5167 42.9563 66.8373 42.7852 67.197 42.6725C67.561 42.5555 67.951 42.497 68.367 42.497C68.8003 42.497 69.1968 42.562 69.5565 42.692C69.9162 42.8177 70.2238 42.9975 70.4795 43.2315C70.7352 43.4655 70.9345 43.7472 71.0775 44.0765C71.2205 44.4058 71.292 44.772 71.292 45.175C71.292 45.5217 71.24 45.8423 71.136 46.137C71.0363 46.4317 70.8998 46.7133 70.7265 46.982C70.5575 47.2507 70.3582 47.5107 70.1285 47.762C69.8988 48.0133 69.6583 48.269 69.407 48.529L67.288 50.6935C67.4917 50.6328 67.6932 50.5873 67.8925 50.557C68.0962 50.5223 68.289 50.505 68.471 50.505H70.8825Z" fill="#89AAFF"/>
<path d="M78.7745 50.7975V52H73.5745V50.7975H75.479V45.318C75.479 45.1013 75.4855 44.8782 75.4985 44.6485L74.1465 45.7795C74.0685 45.8402 73.9905 45.8792 73.9125 45.8965C73.8388 45.9095 73.7673 45.9095 73.698 45.8965C73.633 45.8835 73.5745 45.8618 73.5225 45.8315C73.4705 45.7968 73.4315 45.76 73.4055 45.721L72.8985 45.0255L75.765 42.588H77.0845V50.7975H78.7745Z" fill="#89AAFF"/>
<path d="M84.4305 44.876C84.4305 45.2313 84.3699 45.552 84.2485 45.838C84.1315 46.124 83.9734 46.3688 83.774 46.5725C83.5747 46.7718 83.3429 46.9257 83.0785 47.034C82.8142 47.1423 82.539 47.1965 82.253 47.1965C81.941 47.1965 81.6529 47.1423 81.3885 47.034C81.1242 46.9257 80.8945 46.7718 80.6995 46.5725C80.5089 46.3688 80.3594 46.124 80.251 45.838C80.1427 45.552 80.0885 45.2313 80.0885 44.876C80.0885 44.512 80.1427 44.1827 80.251 43.888C80.3594 43.5933 80.5089 43.3442 80.6995 43.1405C80.8945 42.9368 81.1242 42.7808 81.3885 42.6725C81.6529 42.5598 81.941 42.5035 82.253 42.5035C82.565 42.5035 82.8532 42.5598 83.1175 42.6725C83.3862 42.7808 83.618 42.9368 83.813 43.1405C84.008 43.3442 84.1597 43.5933 84.268 43.888C84.3764 44.1827 84.4305 44.512 84.4305 44.876ZM83.1955 44.876C83.1955 44.6247 83.1695 44.4145 83.1175 44.2455C83.0699 44.0765 83.0027 43.94 82.916 43.836C82.8337 43.732 82.734 43.6583 82.617 43.615C82.5044 43.5673 82.383 43.5435 82.253 43.5435C82.123 43.5435 82.0017 43.5673 81.889 43.615C81.7764 43.6583 81.6789 43.732 81.5965 43.836C81.5185 43.94 81.4557 44.0765 81.408 44.2455C81.3604 44.4145 81.3365 44.6247 81.3365 44.876C81.3365 45.1187 81.3604 45.3223 81.408 45.487C81.4557 45.6473 81.5185 45.7773 81.5965 45.877C81.6789 45.9767 81.7764 46.0482 81.889 46.0915C82.0017 46.1348 82.123 46.1565 82.253 46.1565C82.383 46.1565 82.5044 46.1348 82.617 46.0915C82.734 46.0482 82.8337 45.9767 82.916 45.877C83.0027 45.7773 83.0699 45.6473 83.1175 45.487C83.1695 45.3223 83.1955 45.1187 83.1955 44.876ZM87.557 42.8545C87.6134 42.7895 87.6784 42.731 87.752 42.679C87.83 42.627 87.9384 42.601 88.077 42.601H89.247L82.266 51.7595C82.2097 51.8288 82.1425 51.8873 82.0645 51.935C81.9865 51.9783 81.8912 52 81.7785 52H80.5825L87.557 42.8545ZM89.741 49.79C89.741 50.1453 89.6804 50.466 89.559 50.752C89.442 51.038 89.2839 51.2828 89.0845 51.4865C88.8852 51.6858 88.6534 51.8418 88.389 51.9545C88.1247 52.0628 87.8495 52.117 87.5635 52.117C87.2515 52.117 86.9634 52.0628 86.699 51.9545C86.4347 51.8418 86.205 51.6858 86.01 51.4865C85.8194 51.2828 85.6699 51.038 85.5615 50.752C85.4532 50.466 85.399 50.1453 85.399 49.79C85.399 49.426 85.4532 49.0967 85.5615 48.802C85.6699 48.5073 85.8194 48.2582 86.01 48.0545C86.205 47.8508 86.4347 47.6948 86.699 47.5865C86.9634 47.4738 87.2515 47.4175 87.5635 47.4175C87.8755 47.4175 88.1637 47.4738 88.428 47.5865C88.6967 47.6948 88.9264 47.8508 89.117 48.0545C89.312 48.2582 89.4637 48.5073 89.572 48.802C89.6847 49.0967 89.741 49.426 89.741 49.79ZM88.4995 49.79C88.4995 49.5387 88.4757 49.3285 88.428 49.1595C88.3804 48.9905 88.3132 48.854 88.2265 48.75C88.1442 48.646 88.0445 48.5723 87.9275 48.529C87.8149 48.4813 87.6935 48.4575 87.5635 48.4575C87.4335 48.4575 87.3122 48.4813 87.1995 48.529C87.0869 48.5723 86.9894 48.646 86.907 48.75C86.8247 48.854 86.7597 48.9905 86.712 49.1595C86.6687 49.3285 86.647 49.5387 86.647 49.79C86.647 50.0327 86.6687 50.2363 86.712 50.401C86.7597 50.5657 86.8247 50.6978 86.907 50.7975C86.9894 50.8972 87.0869 50.9687 87.1995 51.012C87.3122 51.0553 87.4335 51.077 87.5635 51.077C87.6935 51.077 87.8149 51.0553 87.9275 51.012C88.0445 50.9687 88.1442 50.8972 88.2265 50.7975C88.3132 50.6978 88.3804 50.5657 88.428 50.401C88.4757 50.2363 88.4995 50.0327 88.4995 49.79Z" fill="#89AAFF"/>
<path d="M119.728 50.7975V52H114.528V50.7975H116.432V45.318C116.432 45.1013 116.439 44.8782 116.452 44.6485L115.1 45.7795C115.022 45.8402 114.944 45.8792 114.866 45.8965C114.792 45.9095 114.72 45.9095 114.651 45.8965C114.586 45.8835 114.528 45.8618 114.476 45.8315C114.424 45.7968 114.385 45.76 114.359 45.721L113.852 45.0255L116.718 42.588H118.038V50.7975H119.728Z" fill="white"/>
<path d="M122.686 45.422C122.686 45.9463 122.82 46.3472 123.089 46.6245C123.362 46.8975 123.748 47.034 124.246 47.034C124.506 47.034 124.738 46.9928 124.942 46.9105C125.145 46.8282 125.316 46.7155 125.455 46.5725C125.594 46.4295 125.698 46.2605 125.767 46.0655C125.841 45.8705 125.878 45.6603 125.878 45.435C125.878 45.1793 125.839 44.9518 125.761 44.7525C125.683 44.5488 125.572 44.3777 125.429 44.239C125.286 44.1003 125.115 43.9942 124.916 43.9205C124.721 43.8468 124.506 43.81 124.272 43.81C124.029 43.81 123.811 43.8512 123.616 43.9335C123.421 44.0115 123.254 44.122 123.115 44.265C122.976 44.408 122.87 44.5792 122.797 44.7785C122.723 44.9735 122.686 45.188 122.686 45.422ZM124.818 48.3535C124.892 48.2625 124.961 48.1737 125.026 48.087C125.091 48.0003 125.154 47.9137 125.215 47.827C124.998 47.9657 124.76 48.0718 124.5 48.1455C124.24 48.2148 123.967 48.2495 123.681 48.2495C123.356 48.2495 123.037 48.1932 122.725 48.0805C122.413 47.9678 122.136 47.7988 121.893 47.5735C121.65 47.3438 121.453 47.0622 121.302 46.7285C121.154 46.3905 121.081 45.9962 121.081 45.5455C121.081 45.1252 121.159 44.7308 121.315 44.3625C121.471 43.9942 121.689 43.6713 121.971 43.394C122.253 43.1167 122.591 42.8978 122.985 42.7375C123.379 42.5772 123.815 42.497 124.292 42.497C124.773 42.497 125.204 42.5728 125.585 42.7245C125.971 42.8762 126.298 43.0885 126.567 43.3615C126.84 43.6345 127.048 43.9617 127.191 44.343C127.338 44.7243 127.412 45.1425 127.412 45.5975C127.412 45.8878 127.386 46.163 127.334 46.423C127.286 46.683 127.217 46.9343 127.126 47.177C127.035 47.4153 126.924 47.6493 126.794 47.879C126.664 48.1087 126.519 48.3362 126.359 48.5615L124.207 51.6295C124.133 51.7335 124.023 51.8223 123.876 51.896C123.728 51.9653 123.561 52 123.375 52H121.9L124.818 48.3535Z" fill="white"/>
<path d="M132.925 44.876C132.925 45.2313 132.864 45.552 132.743 45.838C132.626 46.124 132.467 46.3688 132.268 46.5725C132.069 46.7718 131.837 46.9257 131.573 47.034C131.308 47.1423 131.033 47.1965 130.747 47.1965C130.435 47.1965 130.147 47.1423 129.883 47.034C129.618 46.9257 129.389 46.7718 129.194 46.5725C129.003 46.3688 128.853 46.124 128.745 45.838C128.637 45.552 128.583 45.2313 128.583 44.876C128.583 44.512 128.637 44.1827 128.745 43.888C128.853 43.5933 129.003 43.3442 129.194 43.1405C129.389 42.9368 129.618 42.7808 129.883 42.6725C130.147 42.5598 130.435 42.5035 130.747 42.5035C131.059 42.5035 131.347 42.5598 131.612 42.6725C131.88 42.7808 132.112 42.9368 132.307 43.1405C132.502 43.3442 132.654 43.5933 132.762 43.888C132.87 44.1827 132.925 44.512 132.925 44.876ZM131.69 44.876C131.69 44.6247 131.664 44.4145 131.612 44.2455C131.564 44.0765 131.497 43.94 131.41 43.836C131.328 43.732 131.228 43.6583 131.111 43.615C130.998 43.5673 130.877 43.5435 130.747 43.5435C130.617 43.5435 130.496 43.5673 130.383 43.615C130.27 43.6583 130.173 43.732 130.091 43.836C130.013 43.94 129.95 44.0765 129.902 44.2455C129.854 44.4145 129.831 44.6247 129.831 44.876C129.831 45.1187 129.854 45.3223 129.902 45.487C129.95 45.6473 130.013 45.7773 130.091 45.877C130.173 45.9767 130.27 46.0482 130.383 46.0915C130.496 46.1348 130.617 46.1565 130.747 46.1565C130.877 46.1565 130.998 46.1348 131.111 46.0915C131.228 46.0482 131.328 45.9767 131.41 45.877C131.497 45.7773 131.564 45.6473 131.612 45.487C131.664 45.3223 131.69 45.1187 131.69 44.876ZM136.051 42.8545C136.107 42.7895 136.172 42.731 136.246 42.679C136.324 42.627 136.432 42.601 136.571 42.601H137.741L130.76 51.7595C130.704 51.8288 130.637 51.8873 130.559 51.935C130.481 51.9783 130.385 52 130.273 52H129.077L136.051 42.8545ZM138.235 49.79C138.235 50.1453 138.174 50.466 138.053 50.752C137.936 51.038 137.778 51.2828 137.579 51.4865C137.379 51.6858 137.147 51.8418 136.883 51.9545C136.619 52.0628 136.344 52.117 136.058 52.117C135.746 52.117 135.457 52.0628 135.193 51.9545C134.929 51.8418 134.699 51.6858 134.504 51.4865C134.313 51.2828 134.164 51.038 134.056 50.752C133.947 50.466 133.893 50.1453 133.893 49.79C133.893 49.426 133.947 49.0967 134.056 48.802C134.164 48.5073 134.313 48.2582 134.504 48.0545C134.699 47.8508 134.929 47.6948 135.193 47.5865C135.457 47.4738 135.746 47.4175 136.058 47.4175C136.37 47.4175 136.658 47.4738 136.922 47.5865C137.191 47.6948 137.42 47.8508 137.611 48.0545C137.806 48.2582 137.958 48.5073 138.066 48.802C138.179 49.0967 138.235 49.426 138.235 49.79ZM136.994 49.79C136.994 49.5387 136.97 49.3285 136.922 49.1595C136.874 48.9905 136.807 48.854 136.721 48.75C136.638 48.646 136.539 48.5723 136.422 48.529C136.309 48.4813 136.188 48.4575 136.058 48.4575C135.928 48.4575 135.806 48.4813 135.694 48.529C135.581 48.5723 135.483 48.646 135.401 48.75C135.319 48.854 135.254 48.9905 135.206 49.1595C135.163 49.3285 135.141 49.5387 135.141 49.79C135.141 50.0327 135.163 50.2363 135.206 50.401C135.254 50.5657 135.319 50.6978 135.401 50.7975C135.483 50.8972 135.581 50.9687 135.694 51.012C135.806 51.0553 135.928 51.077 136.058 51.077C136.188 51.077 136.309 51.0553 136.422 51.012C136.539 50.9687 136.638 50.8972 136.721 50.7975C136.807 50.6978 136.874 50.5657 136.922 50.401C136.97 50.2363 136.994 50.0327 136.994 49.79Z" fill="white"/>
<path d="M20.1051 57.445V58H17.7051V57.445H18.5841V54.916C18.5841 54.816 18.5871 54.713 18.5931 54.607L17.9691 55.129C17.9331 55.157 17.8971 55.175 17.8611 55.183C17.8271 55.189 17.7941 55.189 17.7621 55.183C17.7321 55.177 17.7051 55.167 17.6811 55.153C17.6571 55.137 17.6391 55.12 17.6271 55.102L17.3931 54.781L18.7161 53.656H19.3251V57.445H20.1051Z" fill="#787878"/>
<path d="M24.9492 54.922L23.2722 58.846C23.2502 58.898 23.2212 58.937 23.1852 58.963C23.1512 58.991 23.0982 59.005 23.0262 59.005H22.4742L23.0502 57.769L21.8052 54.922H22.4562C22.5142 54.922 22.5592 54.936 22.5912 54.964C22.6252 54.992 22.6502 55.024 22.6662 55.06L23.3202 56.656C23.3422 56.71 23.3602 56.764 23.3742 56.818C23.3902 56.872 23.4052 56.927 23.4192 56.983C23.4372 56.927 23.4552 56.872 23.4732 56.818C23.4912 56.762 23.5112 56.707 23.5332 56.653L24.1512 55.06C24.1672 55.02 24.1932 54.987 24.2292 54.961C24.2672 54.935 24.3092 54.922 24.3552 54.922H24.9492Z" fill="#787878"/>
<path d="M27.2065 56.107C27.2065 56.011 27.1925 55.921 27.1645 55.837C27.1385 55.751 27.0985 55.676 27.0445 55.612C26.9905 55.548 26.9215 55.498 26.8375 55.462C26.7555 55.424 26.6595 55.405 26.5495 55.405C26.3355 55.405 26.1665 55.466 26.0425 55.588C25.9205 55.71 25.8425 55.883 25.8085 56.107H27.2065ZM25.7935 56.554C25.8055 56.712 25.8335 56.849 25.8775 56.965C25.9215 57.079 25.9795 57.174 26.0515 57.25C26.1235 57.324 26.2085 57.38 26.3065 57.418C26.4065 57.454 26.5165 57.472 26.6365 57.472C26.7565 57.472 26.8595 57.458 26.9455 57.43C27.0335 57.402 27.1095 57.371 27.1735 57.337C27.2395 57.303 27.2965 57.272 27.3445 57.244C27.3945 57.216 27.4425 57.202 27.4885 57.202C27.5505 57.202 27.5965 57.225 27.6265 57.271L27.8395 57.541C27.7575 57.637 27.6655 57.718 27.5635 57.784C27.4615 57.848 27.3545 57.9 27.2425 57.94C27.1325 57.978 27.0195 58.005 26.9035 58.021C26.7895 58.037 26.6785 58.045 26.5705 58.045C26.3565 58.045 26.1575 58.01 25.9735 57.94C25.7895 57.868 25.6295 57.763 25.4935 57.625C25.3575 57.485 25.2505 57.313 25.1725 57.109C25.0945 56.903 25.0555 56.665 25.0555 56.395C25.0555 56.185 25.0895 55.988 25.1575 55.804C25.2255 55.618 25.3225 55.457 25.4485 55.321C25.5765 55.183 25.7315 55.074 25.9135 54.994C26.0975 54.914 26.3045 54.874 26.5345 54.874C26.7285 54.874 26.9075 54.905 27.0715 54.967C27.2355 55.029 27.3765 55.12 27.4945 55.24C27.6125 55.358 27.7045 55.504 27.7705 55.678C27.8385 55.85 27.8725 56.047 27.8725 56.269C27.8725 56.381 27.8605 56.457 27.8365 56.497C27.8125 56.535 27.7665 56.554 27.6985 56.554H25.7935Z" fill="#787878"/>
<path d="M30.0546 56.686C29.8406 56.696 29.6606 56.715 29.5146 56.743C29.3686 56.769 29.2516 56.803 29.1636 56.845C29.0756 56.887 29.0126 56.936 28.9746 56.992C28.9366 57.048 28.9176 57.109 28.9176 57.175C28.9176 57.305 28.9556 57.398 29.0316 57.454C29.1096 57.51 29.2106 57.538 29.3346 57.538C29.4866 57.538 29.6176 57.511 29.7276 57.457C29.8396 57.401 29.9486 57.317 30.0546 57.205V56.686ZM28.3566 55.351C28.7106 55.027 29.1366 54.865 29.6346 54.865C29.8146 54.865 29.9756 54.895 30.1176 54.955C30.2596 55.013 30.3796 55.095 30.4776 55.201C30.5756 55.305 30.6496 55.43 30.6996 55.576C30.7516 55.722 30.7776 55.882 30.7776 56.056V58H30.4416C30.3716 58 30.3176 57.99 30.2796 57.97C30.2416 57.948 30.2116 57.905 30.1896 57.841L30.1236 57.619C30.0456 57.689 29.9696 57.751 29.8956 57.805C29.8216 57.857 29.7446 57.901 29.6646 57.937C29.5846 57.973 29.4986 58 29.4066 58.018C29.3166 58.038 29.2166 58.048 29.1066 58.048C28.9766 58.048 28.8566 58.031 28.7466 57.997C28.6366 57.961 28.5416 57.908 28.4616 57.838C28.3816 57.768 28.3196 57.681 28.2756 57.577C28.2316 57.473 28.2096 57.352 28.2096 57.214C28.2096 57.136 28.2226 57.059 28.2486 56.983C28.2746 56.905 28.3166 56.831 28.3746 56.761C28.4346 56.691 28.5116 56.625 28.6056 56.563C28.6996 56.501 28.8146 56.447 28.9506 56.401C29.0886 56.355 29.2486 56.318 29.4306 56.29C29.6126 56.26 29.8206 56.242 30.0546 56.236V56.056C30.0546 55.85 30.0106 55.698 29.9226 55.6C29.8346 55.5 29.7076 55.45 29.5416 55.45C29.4216 55.45 29.3216 55.464 29.2416 55.492C29.1636 55.52 29.0946 55.552 29.0346 55.588C28.9746 55.622 28.9196 55.653 28.8696 55.681C28.8216 55.709 28.7676 55.723 28.7076 55.723C28.6556 55.723 28.6116 55.71 28.5756 55.684C28.5396 55.656 28.5106 55.624 28.4886 55.588L28.3566 55.351Z" fill="#787878"/>
<path d="M32.1744 55.456C32.2704 55.272 32.3844 55.128 32.5164 55.024C32.6484 54.918 32.8044 54.865 32.9844 54.865C33.1264 54.865 33.2404 54.896 33.3264 54.958L33.2784 55.513C33.2684 55.549 33.2534 55.575 33.2334 55.591C33.2154 55.605 33.1904 55.612 33.1584 55.612C33.1284 55.612 33.0834 55.607 33.0234 55.597C32.9654 55.587 32.9084 55.582 32.8524 55.582C32.7704 55.582 32.6974 55.594 32.6334 55.618C32.5694 55.642 32.5114 55.677 32.4594 55.723C32.4094 55.767 32.3644 55.821 32.3244 55.885C32.2864 55.949 32.2504 56.022 32.2164 56.104V58H31.4754V54.922H31.9104C31.9864 54.922 32.0394 54.936 32.0694 54.964C32.0994 54.99 32.1194 55.038 32.1294 55.108L32.1744 55.456Z" fill="#787878"/>
<path d="M37.8818 56.26H36.7178V57.496H36.1148V56.26H34.9568V55.711H36.1148V54.481H36.7178V55.711H37.8818V56.26Z" fill="#787878"/>
<path d="M68.1051 58.445V59H65.7051V58.445H66.5841V55.916C66.5841 55.816 66.5871 55.713 66.5931 55.607L65.9691 56.129C65.9331 56.157 65.8971 56.175 65.8611 56.183C65.8271 56.189 65.7941 56.189 65.7621 56.183C65.7321 56.177 65.7051 56.167 65.6811 56.153C65.6571 56.137 65.6391 56.12 65.6271 56.102L65.3931 55.781L66.7161 54.656H67.3251V58.445H68.1051Z" fill="#787878"/>
<path d="M70.2815 56.879H71.8355V57.497H70.2815V56.879Z" fill="#787878"/>
<path d="M76.7418 58.445V59H74.3418V58.445H75.2208V55.916C75.2208 55.816 75.2238 55.713 75.2298 55.607L74.6058 56.129C74.5698 56.157 74.5338 56.175 74.4978 56.183C74.4638 56.189 74.4308 56.189 74.3988 56.183C74.3688 56.177 74.3418 56.167 74.3178 56.153C74.2938 56.137 74.2758 56.12 74.2638 56.102L74.0298 55.781L75.3528 54.656H75.9618V58.445H76.7418Z" fill="#787878"/>
<path d="M80.0603 58.31C80.1403 58.31 80.2033 58.333 80.2493 58.379C80.2973 58.423 80.3213 58.482 80.3213 58.556V59H77.3453V58.754C77.3453 58.704 77.3553 58.652 77.3753 58.598C77.3973 58.542 77.4313 58.492 77.4773 58.448L78.7943 57.128C78.9043 57.016 79.0023 56.909 79.0883 56.807C79.1763 56.705 79.2493 56.604 79.3073 56.504C79.3653 56.404 79.4093 56.303 79.4393 56.201C79.4713 56.097 79.4873 55.988 79.4873 55.874C79.4873 55.77 79.4723 55.679 79.4423 55.601C79.4123 55.521 79.3693 55.454 79.3133 55.4C79.2593 55.346 79.1933 55.306 79.1153 55.28C79.0393 55.252 78.9533 55.238 78.8573 55.238C78.7693 55.238 78.6873 55.251 78.6113 55.277C78.5373 55.301 78.4713 55.336 78.4133 55.382C78.3553 55.426 78.3063 55.478 78.2663 55.538C78.2263 55.598 78.1963 55.664 78.1763 55.736C78.1423 55.828 78.0983 55.889 78.0443 55.919C77.9903 55.949 77.9123 55.956 77.8103 55.94L77.4203 55.871C77.4503 55.663 77.5083 55.481 77.5943 55.325C77.6803 55.167 77.7873 55.036 77.9153 54.932C78.0453 54.826 78.1933 54.747 78.3593 54.695C78.5273 54.641 78.7073 54.614 78.8993 54.614C79.0993 54.614 79.2823 54.644 79.4483 54.704C79.6143 54.762 79.7563 54.845 79.8743 54.953C79.9923 55.061 80.0843 55.191 80.1503 55.343C80.2163 55.495 80.2493 55.664 80.2493 55.85C80.2493 56.01 80.2253 56.158 80.1773 56.294C80.1313 56.43 80.0683 56.56 79.9883 56.684C79.9103 56.808 79.8183 56.928 79.7123 57.044C79.6063 57.16 79.4953 57.278 79.3793 57.398L78.4013 58.397C78.4953 58.369 78.5883 58.348 78.6803 58.334C78.7743 58.318 78.8633 58.31 78.9473 58.31H80.0603Z" fill="#787878"/>
<path d="M82.4227 59V55.922H82.8757C82.9717 55.922 83.0347 55.967 83.0647 56.057L83.1127 56.285C83.1667 56.225 83.2227 56.17 83.2807 56.12C83.3407 56.07 83.4037 56.027 83.4697 55.991C83.5377 55.955 83.6097 55.927 83.6857 55.907C83.7637 55.885 83.8487 55.874 83.9407 55.874C84.1347 55.874 84.2937 55.927 84.4177 56.033C84.5437 56.137 84.6377 56.276 84.6997 56.45C84.7477 56.348 84.8077 56.261 84.8797 56.189C84.9517 56.115 85.0307 56.055 85.1167 56.009C85.2027 55.963 85.2937 55.929 85.3897 55.907C85.4877 55.885 85.5857 55.874 85.6837 55.874C85.8537 55.874 86.0047 55.9 86.1367 55.952C86.2687 56.004 86.3797 56.08 86.4697 56.18C86.5597 56.28 86.6277 56.402 86.6737 56.546C86.7217 56.69 86.7457 56.855 86.7457 57.041V59H86.0047V57.041C86.0047 56.845 85.9617 56.698 85.8757 56.6C85.7897 56.5 85.6637 56.45 85.4977 56.45C85.4217 56.45 85.3507 56.463 85.2847 56.489C85.2207 56.515 85.1637 56.553 85.1137 56.603C85.0657 56.651 85.0277 56.712 84.9997 56.786C84.9717 56.86 84.9577 56.945 84.9577 57.041V59H84.2137V57.041C84.2137 56.835 84.1717 56.685 84.0877 56.591C84.0057 56.497 83.8847 56.45 83.7247 56.45C83.6167 56.45 83.5157 56.477 83.4217 56.531C83.3297 56.583 83.2437 56.655 83.1637 56.747V59H82.4227Z" fill="#787878"/>
<path d="M87.3421 58.592C87.3421 58.53 87.3531 58.471 87.3751 58.415C87.3991 58.359 87.431 58.311 87.4711 58.271C87.5111 58.231 87.5591 58.199 87.6151 58.175C87.6711 58.151 87.7311 58.139 87.7951 58.139C87.8591 58.139 87.9181 58.151 87.9721 58.175C88.0281 58.199 88.076 58.231 88.1161 58.271C88.1581 58.311 88.1911 58.359 88.2151 58.415C88.2391 58.471 88.2511 58.53 88.2511 58.592C88.2511 58.656 88.2391 58.716 88.2151 58.772C88.1911 58.826 88.1581 58.873 88.1161 58.913C88.076 58.953 88.0281 58.984 87.9721 59.006C87.9181 59.03 87.8591 59.042 87.7951 59.042C87.7311 59.042 87.6711 59.03 87.6151 59.006C87.5591 58.984 87.5111 58.953 87.4711 58.913C87.431 58.873 87.3991 58.826 87.3751 58.772C87.3531 58.716 87.3421 58.656 87.3421 58.592Z" fill="#787878"/>
<path d="M115.614 56.87C115.52 56.916 115.417 56.952 115.305 56.978C115.417 57.004 115.52 57.04 115.614 57.086L116.703 57.647C116.749 57.669 116.782 57.697 116.802 57.731C116.822 57.765 116.832 57.802 116.832 57.842V58.37L114.453 57.128V56.828L116.832 55.589V56.117C116.832 56.157 116.822 56.194 116.802 56.228C116.782 56.26 116.749 56.288 116.703 56.312L115.614 56.87Z" fill="#787878"/>
<path d="M122.044 58.445V59H119.644V58.445H120.523V55.916C120.523 55.816 120.526 55.713 120.532 55.607L119.908 56.129C119.872 56.157 119.836 56.175 119.8 56.183C119.766 56.189 119.733 56.189 119.701 56.183C119.671 56.177 119.644 56.167 119.62 56.153C119.596 56.137 119.578 56.12 119.566 56.102L119.332 55.781L120.655 54.656H121.264V58.445H122.044Z" fill="#787878"/>
<path d="M124.245 59V55.922H124.698C124.794 55.922 124.857 55.967 124.887 56.057L124.935 56.285C124.989 56.225 125.045 56.17 125.103 56.12C125.163 56.07 125.226 56.027 125.292 55.991C125.36 55.955 125.432 55.927 125.508 55.907C125.586 55.885 125.671 55.874 125.763 55.874C125.957 55.874 126.116 55.927 126.24 56.033C126.366 56.137 126.46 56.276 126.522 56.45C126.57 56.348 126.63 56.261 126.702 56.189C126.774 56.115 126.853 56.055 126.939 56.009C127.025 55.963 127.116 55.929 127.212 55.907C127.31 55.885 127.408 55.874 127.506 55.874C127.676 55.874 127.827 55.9 127.959 55.952C128.091 56.004 128.202 56.08 128.292 56.18C128.382 56.28 128.45 56.402 128.496 56.546C128.544 56.69 128.568 56.855 128.568 57.041V59H127.827V57.041C127.827 56.845 127.784 56.698 127.698 56.6C127.612 56.5 127.486 56.45 127.32 56.45C127.244 56.45 127.173 56.463 127.107 56.489C127.043 56.515 126.986 56.553 126.936 56.603C126.888 56.651 126.85 56.712 126.822 56.786C126.794 56.86 126.78 56.945 126.78 57.041V59H126.036V57.041C126.036 56.835 125.994 56.685 125.91 56.591C125.828 56.497 125.707 56.45 125.547 56.45C125.439 56.45 125.338 56.477 125.244 56.531C125.152 56.583 125.066 56.655 124.986 56.747V59H124.245Z" fill="#787878"/>
<path d="M129.164 58.592C129.164 58.53 129.175 58.471 129.197 58.415C129.221 58.359 129.253 58.311 129.293 58.271C129.333 58.231 129.381 58.199 129.437 58.175C129.493 58.151 129.553 58.139 129.617 58.139C129.681 58.139 129.74 58.151 129.794 58.175C129.85 58.199 129.898 58.231 129.938 58.271C129.98 58.311 130.013 58.359 130.037 58.415C130.061 58.471 130.073 58.53 130.073 58.592C130.073 58.656 130.061 58.716 130.037 58.772C130.013 58.826 129.98 58.873 129.938 58.913C129.898 58.953 129.85 58.984 129.794 59.006C129.74 59.03 129.681 59.042 129.617 59.042C129.553 59.042 129.493 59.03 129.437 59.006C129.381 58.984 129.333 58.953 129.293 58.913C129.253 58.873 129.221 58.826 129.197 58.772C129.175 58.716 129.164 58.656 129.164 58.592Z" fill="#787878"/>
</svg>
