<svg width="16" height="16" viewBox="0 0 16 16" fill="none" xmlns="http://www.w3.org/2000/svg">
<path d="M10.0663 11.001C9.93298 11.001 9.79964 10.9344 9.66631 10.8677L6.46631 8.66771V5.40104C6.46631 5.00104 6.73298 4.73438 7.13298 4.73438C7.53298 4.73438 7.79964 5.00104 7.79964 5.40104V8.00104L10.3996 9.80104C10.733 10.001 10.7996 10.401 10.5996 10.7344C10.4663 10.8677 10.2663 11.001 10.0663 11.001Z" fill="#959595"/>
<path d="M8 1.33333C11.6667 1.33333 14.6667 4.33333 14.6667 8C14.6667 11.6667 11.6667 14.6667 8 14.6667C4.33333 14.6667 1.33333 11.6667 1.33333 8C1.33333 4.33333 4.33333 1.33333 8 1.33333ZM8 0C3.6 0 0 3.6 0 8C0 12.4 3.6 16 8 16C12.4 16 16 12.4 16 8C16 3.6 12.4 0 8 0Z" fill="#959595"/>
</svg>
