<svg width="14" height="12" viewBox="0 0 14 12" fill="none" xmlns="http://www.w3.org/2000/svg">
<path d="M13.1087 10.1149L7.5872 0.548821C7.16145 -0.18294 6.09707 -0.18294 5.67132 0.548821L0.149844 10.1149C-0.275908 10.8467 0.256283 11.7647 1.10779 11.7647H12.1507C13.0022 11.778 13.5211 10.8467 13.1087 10.1149ZM6.04385 4.00806C6.04385 3.70205 6.29664 3.46256 6.58934 3.46256C6.88205 3.46256 7.13484 3.71535 7.13484 4.00806V6.58918C7.13484 6.89519 6.88205 7.13467 6.58934 7.13467C6.29664 7.13467 6.04385 6.88188 6.04385 6.58918V4.00806ZM6.58934 9.68919C6.16359 9.68919 5.83097 9.34326 5.83097 8.93081C5.83097 8.50506 6.1769 8.17244 6.58934 8.17244C7.0151 8.17244 7.34771 8.51837 7.34771 8.93081C7.36102 9.34326 7.0151 9.68919 6.58934 9.68919Z" fill="#888888"/>
</svg>
