<svg width="24" height="22" viewBox="0 0 24 22" fill="none" xmlns="http://www.w3.org/2000/svg">
<path d="M9 21.0153C8 21.0153 6.9 20.9153 5.8 20.7153C3.9 20.4153 2 19.4153 1.4 19.0153L0 18.2153L1.5 17.7153C3.2 17.1153 4.2 16.7153 5.5 16.2153C4.2 15.5153 3.3 14.4153 2.8 12.8153L2.4 11.6153H2.7C2.4 11.3153 2.2 11.0153 2 10.7153C1.4 9.71531 1.1 8.51531 1.1 7.51531L1.2 6.51531L1.8 6.71531C1.6 6.21531 1.4 5.71531 1.3 5.21531C1.1 3.91531 1.3 2.51531 1.9 1.21531L2.4 0.215314L3.1 1.01531C5.2 3.81531 7.8 5.41531 11 5.91531C10.9 5.01531 11 4.01531 11.3 3.21531C11.7 2.21531 12.3 1.41531 13.2 0.915314C14.2 0.315314 15.4 -0.0846856 16.5 0.0153144C17.7 0.115314 18.9 0.615314 19.8 1.41531C20.2 1.31531 20.6 1.11531 21 1.01531C21.3 0.915314 21.6 0.815314 21.9 0.615314L23.3 0.115314L22.4 2.81531C22.5 2.81531 22.5 2.81531 22.6 2.81531H24L23.1 4.11531C23.1 4.21531 23 4.21531 23 4.21531C22.9 4.31531 22.8 4.51531 21.7 6.11531C21.4 6.51531 21.3 7.11531 21.3 7.71531C21.4 9.91531 21.2 11.9153 20.5 13.6153C19.9 15.2153 19 16.6153 17.9 17.8153C16.4 19.2153 14.6 20.2153 12.4 20.6153C11.3 20.9153 10.2 21.0153 9 21.0153Z" fill="#9E9E9E"/>
</svg>
