<svg width="37" height="33" viewBox="0 0 37 33" fill="none" xmlns="http://www.w3.org/2000/svg">
<path d="M36.5971 28.372L21.1821 1.53942C19.9935 -0.513141 17.022 -0.513141 15.8333 1.53942L0.418339 28.372C-0.770286 30.4246 0.715496 32.9996 3.09275 32.9996H33.9227C36.3 33.0369 37.7486 30.4246 36.5971 28.372ZM16.8734 11.2424C16.8734 10.3841 17.5791 9.71235 18.3963 9.71235C19.2135 9.71235 19.9192 10.4214 19.9192 11.2424V18.4824C19.9192 19.3407 19.2135 20.0125 18.3963 20.0125C17.5791 20.0125 16.8734 19.3034 16.8734 18.4824V11.2424ZM18.3963 27.1778C17.2077 27.1778 16.2791 26.2075 16.2791 25.0506C16.2791 23.8564 17.2448 22.9234 18.3963 22.9234C19.5849 22.9234 20.5135 23.8937 20.5135 25.0506C20.5507 26.2075 19.5849 27.1778 18.3963 27.1778Z" fill="#888888"/>
</svg>
